G04 #@! TF.GenerationSoftware,KiCad,Pcbnew,6.0.2*
G04 #@! TF.CreationDate,2022-02-11T20:01:43-05:00*
G04 #@! TF.ProjectId,A1200KB,41313230-304b-4422-9e6b-696361645f70,v4a*
G04 #@! TF.SameCoordinates,Original*
G04 #@! TF.FileFunction,Soldermask,Top*
G04 #@! TF.FilePolarity,Negative*
%FSLAX46Y46*%
G04 Gerber Fmt 4.6, Leading zero omitted, Abs format (unit mm)*
G04 Created by KiCad (PCBNEW 6.0.2) date 2022-02-11 20:01:43*
%MOMM*%
%LPD*%
G01*
G04 APERTURE LIST*
%ADD10C,3.987800*%
%ADD11C,1.750000*%
%ADD12C,3.048000*%
%ADD13C,3.200000*%
%ADD14C,1.524000*%
G04 APERTURE END LIST*
D10*
X60858800Y-85611600D03*
D11*
X65938800Y-85611600D03*
X55778800Y-85611600D03*
X96977200Y-85496400D03*
D10*
X91907200Y-85398400D03*
D11*
X86817200Y-85496400D03*
D10*
X115722800Y-85513600D03*
D11*
X120802800Y-85583600D03*
X110642800Y-85583600D03*
X134518800Y-85611600D03*
X144678800Y-85611600D03*
D10*
X139598800Y-85541600D03*
X163474800Y-85513600D03*
D11*
X168554800Y-85583600D03*
X158394800Y-85583600D03*
X192430800Y-85583600D03*
X182270800Y-85583600D03*
D10*
X187350800Y-85513600D03*
X219856800Y-85513600D03*
D11*
X224942800Y-85357600D03*
X214782800Y-85357600D03*
X238658800Y-85357600D03*
X248818800Y-85357600D03*
D10*
X243738800Y-85513600D03*
D11*
X272694800Y-85357600D03*
X262534800Y-85357600D03*
D10*
X267614800Y-85513600D03*
D11*
X296570800Y-85357600D03*
X286410800Y-85357600D03*
D10*
X291490800Y-85513600D03*
D11*
X310286800Y-85357600D03*
X320446800Y-85357600D03*
D10*
X315366800Y-85513600D03*
D11*
X364478000Y-114105600D03*
X374638000Y-114105600D03*
D10*
X369558000Y-114105600D03*
D11*
X426478800Y-114072000D03*
D10*
X431558800Y-114072000D03*
D11*
X436638800Y-114072000D03*
X455688800Y-114072000D03*
D10*
X450608800Y-114072000D03*
D11*
X445528800Y-114072000D03*
D10*
X469658800Y-114072000D03*
D11*
X464578800Y-114072000D03*
X474738800Y-114072000D03*
X493788800Y-114072000D03*
X483628800Y-114072000D03*
D10*
X488708800Y-114072000D03*
D11*
X436638800Y-133122000D03*
X426478800Y-133122000D03*
D10*
X431558800Y-133122000D03*
D11*
X445528800Y-133122000D03*
X455688800Y-133122000D03*
D10*
X450608800Y-133122000D03*
D11*
X464578800Y-133122000D03*
D10*
X469658800Y-133122000D03*
D11*
X474738800Y-133122000D03*
D10*
X488708800Y-133122000D03*
D11*
X493788800Y-133122000D03*
X483628800Y-133122000D03*
X388960000Y-152219600D03*
X378800000Y-152219600D03*
D10*
X383880000Y-152219600D03*
D11*
X426478800Y-152172000D03*
X436638800Y-152172000D03*
D10*
X431558800Y-152172000D03*
D11*
X455688800Y-152172000D03*
X445528800Y-152172000D03*
D10*
X450608800Y-152172000D03*
D11*
X474738800Y-152172000D03*
D10*
X469658800Y-152172000D03*
D11*
X464578800Y-152172000D03*
X483628800Y-152172000D03*
X493788800Y-152172000D03*
D10*
X488708800Y-152172000D03*
D11*
X359750000Y-171269600D03*
X369910000Y-171269600D03*
D10*
X364830000Y-171269600D03*
D11*
X378800000Y-171269600D03*
X388960000Y-171269600D03*
D10*
X383880000Y-171269600D03*
X402930000Y-171269600D03*
D11*
X408010000Y-171269600D03*
X397850000Y-171269600D03*
D10*
X431558800Y-171222000D03*
D11*
X436638800Y-171222000D03*
X426478800Y-171222000D03*
D10*
X450608800Y-171222000D03*
D11*
X445528800Y-171222000D03*
X455688800Y-171222000D03*
X474738800Y-171222000D03*
X464578800Y-171222000D03*
D10*
X469658800Y-171222000D03*
X488708800Y-180774000D03*
X480453800Y-168867750D03*
D12*
X495693800Y-168867750D03*
D11*
X488708800Y-185854000D03*
D10*
X480453800Y-192680250D03*
D12*
X495693800Y-192680250D03*
D11*
X488708800Y-175694000D03*
D10*
X441210800Y-190272000D03*
D12*
X429304550Y-197257000D03*
D10*
X429304550Y-182017000D03*
D11*
X436130800Y-190272000D03*
X446290800Y-190272000D03*
D10*
X453117050Y-182017000D03*
D12*
X453117050Y-197257000D03*
D10*
X469658800Y-190272000D03*
D11*
X464578800Y-190272000D03*
X474738800Y-190272000D03*
X393074000Y-114105600D03*
D10*
X398154000Y-114105600D03*
D11*
X403234000Y-114105600D03*
D13*
X57000000Y-97000000D03*
X57000000Y-193000000D03*
X493000000Y-162000000D03*
D10*
X70256800Y-133220400D03*
D12*
X58350550Y-126235400D03*
D11*
X65176800Y-133220400D03*
D10*
X58350550Y-141475400D03*
X82163050Y-141475400D03*
D11*
X75336800Y-133220400D03*
D12*
X82163050Y-126235400D03*
D10*
X255422800Y-182115400D03*
D12*
X255422800Y-197355400D03*
D11*
X193192800Y-190370400D03*
X203352800Y-190370400D03*
D10*
X198272800Y-190370400D03*
X141122800Y-182115400D03*
D12*
X141122800Y-197355400D03*
D10*
X146456800Y-114170400D03*
D11*
X141376800Y-114170400D03*
X151536800Y-114170400D03*
X84226800Y-114170400D03*
D10*
X89306800Y-114170400D03*
D11*
X94386800Y-114170400D03*
X236626800Y-114170400D03*
D10*
X241706800Y-114170400D03*
D11*
X246786800Y-114170400D03*
D10*
X203606800Y-114170400D03*
D11*
X198526800Y-114170400D03*
X208686800Y-114170400D03*
X113436800Y-114170400D03*
X103276800Y-114170400D03*
D10*
X108356800Y-114170400D03*
D11*
X284886800Y-114170400D03*
X274726800Y-114170400D03*
D10*
X279806800Y-114170400D03*
D11*
X170586800Y-114170400D03*
X160426800Y-114170400D03*
D10*
X165506800Y-114170400D03*
D11*
X227736800Y-114170400D03*
D10*
X222656800Y-114170400D03*
D11*
X217576800Y-114170400D03*
D10*
X184556800Y-114170400D03*
D11*
X189636800Y-114170400D03*
X179476800Y-114170400D03*
X122326800Y-114170400D03*
X132486800Y-114170400D03*
D10*
X127406800Y-114170400D03*
D12*
X327685800Y-154810400D03*
X327685800Y-130934400D03*
D11*
X339750800Y-142872400D03*
D10*
X342925800Y-154810400D03*
D11*
X329590800Y-142872400D03*
D10*
X342925800Y-130934400D03*
X334670800Y-142872400D03*
X236880800Y-152270400D03*
D11*
X241960800Y-152270400D03*
X231800800Y-152270400D03*
X255676800Y-114170400D03*
X265836800Y-114170400D03*
D10*
X260756800Y-114170400D03*
D11*
X98450800Y-152270400D03*
X108610800Y-152270400D03*
D10*
X103530800Y-152270400D03*
D11*
X127660800Y-152270400D03*
X117500800Y-152270400D03*
D10*
X122580800Y-152270400D03*
D11*
X318414800Y-152270400D03*
X308254800Y-152270400D03*
D10*
X313334800Y-152270400D03*
X198780800Y-152270400D03*
D11*
X203860800Y-152270400D03*
X193700800Y-152270400D03*
X222910800Y-152270400D03*
X212750800Y-152270400D03*
D10*
X217830800Y-152270400D03*
D11*
X313334800Y-133220400D03*
X303174800Y-133220400D03*
D10*
X308254800Y-133220400D03*
X294284800Y-152270400D03*
D11*
X299364800Y-152270400D03*
X289204800Y-152270400D03*
D10*
X275234800Y-152270400D03*
D11*
X280314800Y-152270400D03*
X270154800Y-152270400D03*
X136550800Y-152270400D03*
D10*
X141630800Y-152270400D03*
D11*
X146710800Y-152270400D03*
D10*
X255930800Y-152270400D03*
D11*
X250850800Y-152270400D03*
X261010800Y-152270400D03*
X174650800Y-152270400D03*
X184810800Y-152270400D03*
D10*
X179730800Y-152270400D03*
D11*
X165760800Y-152270400D03*
X155600800Y-152270400D03*
D10*
X160680800Y-152270400D03*
D11*
X103784800Y-133220400D03*
D10*
X98704800Y-133220400D03*
D11*
X93624800Y-133220400D03*
X207924800Y-133220400D03*
D10*
X213004800Y-133220400D03*
D11*
X218084800Y-133220400D03*
D10*
X193954800Y-133220400D03*
D11*
X199034800Y-133220400D03*
X188874800Y-133220400D03*
X256184800Y-133220400D03*
D10*
X251104800Y-133220400D03*
D11*
X246024800Y-133220400D03*
X331876800Y-114170400D03*
X342036800Y-114170400D03*
D10*
X336956800Y-114170400D03*
D11*
X141884800Y-133220400D03*
D10*
X136804800Y-133220400D03*
D11*
X131724800Y-133220400D03*
D10*
X317906800Y-114170400D03*
D11*
X312826800Y-114170400D03*
X322986800Y-114170400D03*
X284124800Y-133220400D03*
X294284800Y-133220400D03*
D10*
X289204800Y-133220400D03*
X232054800Y-133220400D03*
D11*
X237134800Y-133220400D03*
X226974800Y-133220400D03*
D10*
X117754800Y-133220400D03*
D11*
X112674800Y-133220400D03*
X122834800Y-133220400D03*
X179984800Y-133299200D03*
X169824800Y-133299200D03*
D10*
X174904800Y-133299200D03*
D11*
X293776800Y-114170400D03*
D10*
X298856800Y-114170400D03*
D11*
X303936800Y-114170400D03*
X150774800Y-133220400D03*
D10*
X155854800Y-133220400D03*
D11*
X160934800Y-133220400D03*
X265074800Y-133220400D03*
D10*
X270154800Y-133220400D03*
D11*
X275234800Y-133220400D03*
X325018800Y-190370400D03*
X314858800Y-190370400D03*
D10*
X319938800Y-190370400D03*
X100736800Y-190370400D03*
D11*
X105816800Y-190370400D03*
X95656800Y-190370400D03*
D10*
X296062800Y-190370400D03*
D11*
X290982800Y-190370400D03*
X301142800Y-190370400D03*
X73050800Y-171320400D03*
X62890800Y-171320400D03*
D10*
X67970800Y-171320400D03*
X84480800Y-152270400D03*
D11*
X79400800Y-152270400D03*
X89560800Y-152270400D03*
X60448800Y-114170400D03*
X70608800Y-114170400D03*
D10*
X65528800Y-114170400D03*
X76860800Y-190370400D03*
D11*
X71780800Y-190370400D03*
X81940800Y-190370400D03*
D10*
X308540550Y-179575400D03*
D11*
X315366800Y-171320400D03*
D12*
X308540550Y-164335400D03*
X332353050Y-164335400D03*
D11*
X325526800Y-171320400D03*
D10*
X320446800Y-171320400D03*
X332353050Y-179575400D03*
D11*
X58064800Y-152270400D03*
X68224800Y-152270400D03*
D10*
X63144800Y-152270400D03*
D11*
X118262800Y-171320400D03*
D10*
X113182800Y-171320400D03*
D11*
X108102800Y-171320400D03*
X127152800Y-171320400D03*
X137312800Y-171320400D03*
D10*
X132232800Y-171320400D03*
D11*
X222402800Y-171320400D03*
X232562800Y-171320400D03*
D10*
X227482800Y-171320400D03*
D11*
X270656800Y-171342400D03*
D10*
X265576800Y-171342400D03*
D11*
X260496800Y-171342400D03*
X184302800Y-171320400D03*
X194462800Y-171320400D03*
D10*
X189382800Y-171320400D03*
X94132800Y-171320400D03*
D11*
X89052800Y-171320400D03*
X99212800Y-171320400D03*
X279552800Y-171320400D03*
D10*
X284632800Y-171320400D03*
D11*
X289712800Y-171320400D03*
X241456800Y-171322400D03*
D10*
X246536800Y-171322400D03*
D11*
X251616800Y-171322400D03*
X156362800Y-171320400D03*
X146202800Y-171320400D03*
D10*
X151282800Y-171320400D03*
X170332800Y-171320400D03*
D11*
X165252800Y-171320400D03*
X175412800Y-171320400D03*
D10*
X208432800Y-171320400D03*
D11*
X213512800Y-171320400D03*
X203352800Y-171320400D03*
D14*
X184016800Y-98962400D03*
X185266800Y-101462400D03*
X186516800Y-98962400D03*
X187766800Y-101462400D03*
X189016800Y-98962400D03*
X190266800Y-101462400D03*
X191516800Y-98962400D03*
X192766800Y-101462400D03*
X194016800Y-98962400D03*
X195266800Y-101462400D03*
X196516800Y-98962400D03*
X197766800Y-101462400D03*
X199016800Y-98962400D03*
X200266800Y-101462400D03*
X201516800Y-98962400D03*
X202766800Y-101462400D03*
X204016800Y-98962400D03*
X205266800Y-101462400D03*
X206516800Y-98962400D03*
X207766800Y-101462400D03*
X209016800Y-98962400D03*
X210266800Y-101462400D03*
X211516800Y-98962400D03*
X212766800Y-101462400D03*
X214016800Y-98962400D03*
X215266800Y-101462400D03*
X216516800Y-98962400D03*
X217766800Y-101462400D03*
X219016800Y-98962400D03*
X220266800Y-101462400D03*
X221516800Y-98962400D03*
X222766800Y-101462400D03*
M02*
