M48
; DRILL file {KiCad 6.0.2} date Fri 11 Feb 2022 08:01:47 PM EST
; FORMAT={2:4/ absolute / inch / suppress leading zeros}
; #@! TF.CreationDate,2022-02-11T20:01:47-05:00
; #@! TF.GenerationSoftware,Kicad,Pcbnew,6.0.2
; #@! TF.FileFunction,Plated,1,2,PTH
FMAT,2
INCH,TZ
; #@! TA.AperFunction,Plated,PTH,ViaDrill
T1C0.0236
; #@! TA.AperFunction,Plated,PTH,ComponentDrill
T2C0.0335
; #@! TA.AperFunction,Plated,PTH,ComponentDrill
T3C0.0409
; #@! TA.AperFunction,Plated,PTH,ComponentDrill
T4C0.0579
%
G90
G05
T1
X22373Y-39847
X23040Y-40780
X24299Y-37841
X28432Y-36388
X29080Y-39460
X37940Y-37220
X48660Y-41600
X56180Y-36860
X58660Y-40000
X62403Y-40057
X62980Y-41140
X69120Y-42200
X73092Y-73888
X78140Y-49620
X79460Y-38100
X79640Y-62020
X79944Y-37600
X80895Y-41005
X80900Y-53200
X82290Y-32990
X82380Y-63360
X83280Y-72280
X83380Y-46000
X83960Y-32720
X84680Y-71580
X85120Y-73020
X87970Y-57230
X93660Y-42160
X95250Y-46730
X97040Y-36300
X99959Y-40521
X100300Y-63180
X100620Y-68680
X106860Y-54540
X108524Y-41736
X109320Y-63820
X109320Y-73940
X115812Y-36288
X121980Y-78160
X124100Y-47060
X126160Y-40980
X130151Y-50449
X132640Y-72200
X132659Y-64183
X136780Y-68500
X138895Y-43205
X143089Y-50449
X146556Y-57964
X146556Y-64656
X147140Y-76960
X149634Y-47054
X155240Y-42200
X166120Y-56020
X166120Y-69160
X167040Y-53500
X168400Y-62640
X168440Y-56780
X181360Y-41520
X181880Y-41260
X189900Y-68680
X190900Y-40560
X190905Y-57105
X194500Y-46780
T2
X72448Y-38962
X72940Y-39946
X73432Y-38962
X73924Y-39946
X74416Y-38962
X74908Y-39946
X75400Y-38962
X75892Y-39946
X76385Y-38962
X76877Y-39946
X77369Y-38962
X77861Y-39946
X78353Y-38962
X78845Y-39946
X79337Y-38962
X79829Y-39946
X80322Y-38962
X80814Y-39946
X81306Y-38962
X81798Y-39946
X82290Y-38962
X82782Y-39946
X83274Y-38962
X83766Y-39946
X84259Y-38962
X84751Y-39946
X85243Y-38962
X85735Y-39946
X86227Y-38962
X86719Y-39946
X87211Y-38962
X87703Y-39946
T3
X32760Y-57949
X33760Y-57949
T4
X22460Y-32705
X23360Y-58949
X24299Y-43949
X24960Y-31705
X25260Y-66449
X25860Y-57949
X26160Y-51449
X26799Y-42949
X27760Y-65449
X28660Y-50449
X28760Y-73949
X31260Y-72949
X32260Y-61949
X33660Y-43949
X34680Y-32660
X34760Y-60949
X35560Y-66449
X36160Y-42949
X37180Y-31660
X37360Y-51449
X38060Y-65449
X38160Y-73949
X39260Y-58949
X39860Y-50449
X40660Y-72949
X41160Y-43949
X41760Y-57949
X43060Y-66449
X43660Y-42949
X44060Y-32694
X44860Y-51449
X45560Y-65449
X46560Y-31694
X46760Y-58949
X47360Y-50449
X48660Y-43949
X49260Y-57949
X50560Y-66449
X51160Y-42949
X52360Y-51449
X53060Y-65449
X53460Y-32705
X54260Y-58949
X54860Y-50449
X55960Y-31705
X56160Y-43949
X56760Y-57949
X58060Y-66449
X58660Y-42949
X59860Y-51449
X60560Y-65449
X61760Y-58949
X62360Y-50449
X62860Y-32694
X63660Y-43949
X64260Y-57949
X65360Y-31694
X65560Y-66449
X66160Y-42949
X67360Y-51480
X68060Y-65449
X69260Y-58949
X69860Y-50480
X71160Y-43949
X71760Y-57949
X72260Y-32694
X73060Y-66449
X73660Y-42949
X74760Y-31694
X74860Y-51449
X75560Y-65449
X76760Y-58949
X77060Y-76949
X77360Y-50449
X78660Y-43949
X79260Y-57949
X79560Y-75949
X80560Y-66449
X81160Y-42949
X82360Y-51449
X83060Y-65449
X84260Y-58949
X84860Y-50449
X85060Y-32605
X86160Y-43949
X86760Y-57949
X87560Y-31605
X88060Y-66449
X88660Y-42949
X89860Y-51449
X90560Y-65449
X91760Y-58949
X92360Y-50449
X93660Y-43949
X94260Y-57949
X94460Y-32605
X95562Y-66450
X96160Y-42949
X96960Y-31605
X97360Y-51449
X98062Y-65450
X99260Y-58949
X99860Y-50449
X101160Y-43949
X101760Y-57949
X103058Y-66458
X103660Y-42949
X103860Y-32605
X104860Y-51449
X105558Y-65458
X106360Y-31605
X106860Y-58949
X107360Y-50449
X108660Y-43949
X109360Y-57949
X110560Y-66449
X111160Y-42949
X112360Y-51449
X113060Y-65449
X113260Y-32605
X114360Y-58949
X114860Y-50449
X115060Y-73949
X115760Y-31605
X116160Y-43949
X116860Y-57949
X117560Y-72949
X118660Y-42949
X119860Y-51449
X121860Y-58949
X122360Y-50449
X122660Y-32605
X123660Y-43949
X124360Y-57949
X124460Y-73949
X124660Y-66449
X125160Y-31605
X126160Y-42949
X126960Y-72949
X127160Y-65449
X130260Y-55249
X131160Y-43949
X132760Y-54249
X133660Y-42949
X142134Y-66429
X143995Y-43923
X144634Y-65429
X146495Y-42923
X149634Y-58929
X149634Y-66429
X152134Y-57929
X152134Y-65429
X155254Y-43923
X157134Y-66429
X157754Y-42923
X159634Y-65429
X168405Y-43910
X168405Y-51410
X168405Y-58910
X168405Y-66410
X170905Y-42910
X170905Y-50410
X170905Y-57910
X170905Y-65410
X172705Y-76910
X175205Y-75910
X175905Y-43910
X175905Y-51410
X175905Y-58910
X175905Y-66410
X178405Y-42910
X178405Y-50410
X178405Y-57910
X178405Y-65410
X183405Y-43910
X183405Y-51410
X183405Y-58910
X183405Y-66410
X183405Y-73910
X185905Y-42910
X185905Y-50410
X185905Y-57910
X185905Y-65410
X185905Y-72910
X190905Y-43910
X190905Y-51410
X190905Y-58910
X193405Y-42910
X193405Y-50410
X193405Y-57910
X193405Y-69671
X194405Y-72171
T0
M30
