G04 #@! TF.GenerationSoftware,KiCad,Pcbnew,6.0.2*
G04 #@! TF.CreationDate,2022-02-11T20:01:44-05:00*
G04 #@! TF.ProjectId,A1200KB,41313230-304b-4422-9e6b-696361645f70,v4a*
G04 #@! TF.SameCoordinates,Original*
G04 #@! TF.FileFunction,OtherDrawing,Comment*
%FSLAX46Y46*%
G04 Gerber Fmt 4.6, Leading zero omitted, Abs format (unit mm)*
G04 Created by KiCad (PCBNEW 6.0.2) date 2022-02-11 20:01:44*
%MOMM*%
%LPD*%
G01*
G04 APERTURE LIST*
%ADD10C,0.150000*%
G04 APERTURE END LIST*
D10*
X60120704Y-89238980D02*
X60120704Y-88238980D01*
X60692133Y-89238980D02*
X60263561Y-88667552D01*
X60692133Y-88238980D02*
X60120704Y-88810409D01*
X61644514Y-89238980D02*
X61073085Y-89238980D01*
X61358800Y-89238980D02*
X61358800Y-88238980D01*
X61263561Y-88381838D01*
X61168323Y-88477076D01*
X61073085Y-88524695D01*
X91159104Y-89123780D02*
X91159104Y-88123780D01*
X91730533Y-89123780D02*
X91301961Y-88552352D01*
X91730533Y-88123780D02*
X91159104Y-88695209D01*
X92111485Y-88219019D02*
X92159104Y-88171400D01*
X92254342Y-88123780D01*
X92492438Y-88123780D01*
X92587676Y-88171400D01*
X92635295Y-88219019D01*
X92682914Y-88314257D01*
X92682914Y-88409495D01*
X92635295Y-88552352D01*
X92063866Y-89123780D01*
X92682914Y-89123780D01*
X114984704Y-89210980D02*
X114984704Y-88210980D01*
X115556133Y-89210980D02*
X115127561Y-88639552D01*
X115556133Y-88210980D02*
X114984704Y-88782409D01*
X115889466Y-88210980D02*
X116508514Y-88210980D01*
X116175180Y-88591933D01*
X116318038Y-88591933D01*
X116413276Y-88639552D01*
X116460895Y-88687171D01*
X116508514Y-88782409D01*
X116508514Y-89020504D01*
X116460895Y-89115742D01*
X116413276Y-89163361D01*
X116318038Y-89210980D01*
X116032323Y-89210980D01*
X115937085Y-89163361D01*
X115889466Y-89115742D01*
X138860704Y-89238980D02*
X138860704Y-88238980D01*
X139432133Y-89238980D02*
X139003561Y-88667552D01*
X139432133Y-88238980D02*
X138860704Y-88810409D01*
X140289276Y-88572314D02*
X140289276Y-89238980D01*
X140051180Y-88191361D02*
X139813085Y-88905647D01*
X140432133Y-88905647D01*
X162736704Y-89210980D02*
X162736704Y-88210980D01*
X163308133Y-89210980D02*
X162879561Y-88639552D01*
X163308133Y-88210980D02*
X162736704Y-88782409D01*
X164212895Y-88210980D02*
X163736704Y-88210980D01*
X163689085Y-88687171D01*
X163736704Y-88639552D01*
X163831942Y-88591933D01*
X164070038Y-88591933D01*
X164165276Y-88639552D01*
X164212895Y-88687171D01*
X164260514Y-88782409D01*
X164260514Y-89020504D01*
X164212895Y-89115742D01*
X164165276Y-89163361D01*
X164070038Y-89210980D01*
X163831942Y-89210980D01*
X163736704Y-89163361D01*
X163689085Y-89115742D01*
X219124704Y-88984980D02*
X219124704Y-87984980D01*
X219696133Y-88984980D02*
X219267561Y-88413552D01*
X219696133Y-87984980D02*
X219124704Y-88556409D01*
X220029466Y-87984980D02*
X220696133Y-87984980D01*
X220267561Y-88984980D01*
X243000704Y-88984980D02*
X243000704Y-87984980D01*
X243572133Y-88984980D02*
X243143561Y-88413552D01*
X243572133Y-87984980D02*
X243000704Y-88556409D01*
X244143561Y-88413552D02*
X244048323Y-88365933D01*
X244000704Y-88318314D01*
X243953085Y-88223076D01*
X243953085Y-88175457D01*
X244000704Y-88080219D01*
X244048323Y-88032600D01*
X244143561Y-87984980D01*
X244334038Y-87984980D01*
X244429276Y-88032600D01*
X244476895Y-88080219D01*
X244524514Y-88175457D01*
X244524514Y-88223076D01*
X244476895Y-88318314D01*
X244429276Y-88365933D01*
X244334038Y-88413552D01*
X244143561Y-88413552D01*
X244048323Y-88461171D01*
X244000704Y-88508790D01*
X243953085Y-88604028D01*
X243953085Y-88794504D01*
X244000704Y-88889742D01*
X244048323Y-88937361D01*
X244143561Y-88984980D01*
X244334038Y-88984980D01*
X244429276Y-88937361D01*
X244476895Y-88889742D01*
X244524514Y-88794504D01*
X244524514Y-88604028D01*
X244476895Y-88508790D01*
X244429276Y-88461171D01*
X244334038Y-88413552D01*
X266876704Y-88984980D02*
X266876704Y-87984980D01*
X267448133Y-88984980D02*
X267019561Y-88413552D01*
X267448133Y-87984980D02*
X266876704Y-88556409D01*
X267924323Y-88984980D02*
X268114800Y-88984980D01*
X268210038Y-88937361D01*
X268257657Y-88889742D01*
X268352895Y-88746885D01*
X268400514Y-88556409D01*
X268400514Y-88175457D01*
X268352895Y-88080219D01*
X268305276Y-88032600D01*
X268210038Y-87984980D01*
X268019561Y-87984980D01*
X267924323Y-88032600D01*
X267876704Y-88080219D01*
X267829085Y-88175457D01*
X267829085Y-88413552D01*
X267876704Y-88508790D01*
X267924323Y-88556409D01*
X268019561Y-88604028D01*
X268210038Y-88604028D01*
X268305276Y-88556409D01*
X268352895Y-88508790D01*
X268400514Y-88413552D01*
X290276514Y-88984980D02*
X290276514Y-87984980D01*
X290847942Y-88984980D02*
X290419371Y-88413552D01*
X290847942Y-87984980D02*
X290276514Y-88556409D01*
X291800323Y-88984980D02*
X291228895Y-88984980D01*
X291514609Y-88984980D02*
X291514609Y-87984980D01*
X291419371Y-88127838D01*
X291324133Y-88223076D01*
X291228895Y-88270695D01*
X292419371Y-87984980D02*
X292514609Y-87984980D01*
X292609847Y-88032600D01*
X292657466Y-88080219D01*
X292705085Y-88175457D01*
X292752704Y-88365933D01*
X292752704Y-88604028D01*
X292705085Y-88794504D01*
X292657466Y-88889742D01*
X292609847Y-88937361D01*
X292514609Y-88984980D01*
X292419371Y-88984980D01*
X292324133Y-88937361D01*
X292276514Y-88889742D01*
X292228895Y-88794504D01*
X292181276Y-88604028D01*
X292181276Y-88365933D01*
X292228895Y-88175457D01*
X292276514Y-88080219D01*
X292324133Y-88032600D01*
X292419371Y-87984980D01*
X314152514Y-88984980D02*
X314152514Y-87984980D01*
X314723942Y-88984980D02*
X314295371Y-88413552D01*
X314723942Y-87984980D02*
X314152514Y-88556409D01*
X315676323Y-88984980D02*
X315104895Y-88984980D01*
X315390609Y-88984980D02*
X315390609Y-87984980D01*
X315295371Y-88127838D01*
X315200133Y-88223076D01*
X315104895Y-88270695D01*
X316628704Y-88984980D02*
X316057276Y-88984980D01*
X316342990Y-88984980D02*
X316342990Y-87984980D01*
X316247752Y-88127838D01*
X316152514Y-88223076D01*
X316057276Y-88270695D01*
X368343714Y-117732980D02*
X368343714Y-116732980D01*
X368915142Y-117732980D02*
X368486571Y-117161552D01*
X368915142Y-116732980D02*
X368343714Y-117304409D01*
X369296095Y-116828219D02*
X369343714Y-116780600D01*
X369438952Y-116732980D01*
X369677047Y-116732980D01*
X369772285Y-116780600D01*
X369819904Y-116828219D01*
X369867523Y-116923457D01*
X369867523Y-117018695D01*
X369819904Y-117161552D01*
X369248476Y-117732980D01*
X369867523Y-117732980D01*
X370200857Y-116732980D02*
X370867523Y-116732980D01*
X370438952Y-117732980D01*
X430344514Y-117699380D02*
X430344514Y-116699380D01*
X430915942Y-117699380D02*
X430487371Y-117127952D01*
X430915942Y-116699380D02*
X430344514Y-117270809D01*
X431296895Y-116794619D02*
X431344514Y-116747000D01*
X431439752Y-116699380D01*
X431677847Y-116699380D01*
X431773085Y-116747000D01*
X431820704Y-116794619D01*
X431868323Y-116889857D01*
X431868323Y-116985095D01*
X431820704Y-117127952D01*
X431249276Y-117699380D01*
X431868323Y-117699380D01*
X432344514Y-117699380D02*
X432534990Y-117699380D01*
X432630228Y-117651761D01*
X432677847Y-117604142D01*
X432773085Y-117461285D01*
X432820704Y-117270809D01*
X432820704Y-116889857D01*
X432773085Y-116794619D01*
X432725466Y-116747000D01*
X432630228Y-116699380D01*
X432439752Y-116699380D01*
X432344514Y-116747000D01*
X432296895Y-116794619D01*
X432249276Y-116889857D01*
X432249276Y-117127952D01*
X432296895Y-117223190D01*
X432344514Y-117270809D01*
X432439752Y-117318428D01*
X432630228Y-117318428D01*
X432725466Y-117270809D01*
X432773085Y-117223190D01*
X432820704Y-117127952D01*
X449394514Y-117699380D02*
X449394514Y-116699380D01*
X449965942Y-117699380D02*
X449537371Y-117127952D01*
X449965942Y-116699380D02*
X449394514Y-117270809D01*
X450299276Y-116699380D02*
X450918323Y-116699380D01*
X450584990Y-117080333D01*
X450727847Y-117080333D01*
X450823085Y-117127952D01*
X450870704Y-117175571D01*
X450918323Y-117270809D01*
X450918323Y-117508904D01*
X450870704Y-117604142D01*
X450823085Y-117651761D01*
X450727847Y-117699380D01*
X450442133Y-117699380D01*
X450346895Y-117651761D01*
X450299276Y-117604142D01*
X451537371Y-116699380D02*
X451632609Y-116699380D01*
X451727847Y-116747000D01*
X451775466Y-116794619D01*
X451823085Y-116889857D01*
X451870704Y-117080333D01*
X451870704Y-117318428D01*
X451823085Y-117508904D01*
X451775466Y-117604142D01*
X451727847Y-117651761D01*
X451632609Y-117699380D01*
X451537371Y-117699380D01*
X451442133Y-117651761D01*
X451394514Y-117604142D01*
X451346895Y-117508904D01*
X451299276Y-117318428D01*
X451299276Y-117080333D01*
X451346895Y-116889857D01*
X451394514Y-116794619D01*
X451442133Y-116747000D01*
X451537371Y-116699380D01*
X468444514Y-117699380D02*
X468444514Y-116699380D01*
X469015942Y-117699380D02*
X468587371Y-117127952D01*
X469015942Y-116699380D02*
X468444514Y-117270809D01*
X469349276Y-116699380D02*
X469968323Y-116699380D01*
X469634990Y-117080333D01*
X469777847Y-117080333D01*
X469873085Y-117127952D01*
X469920704Y-117175571D01*
X469968323Y-117270809D01*
X469968323Y-117508904D01*
X469920704Y-117604142D01*
X469873085Y-117651761D01*
X469777847Y-117699380D01*
X469492133Y-117699380D01*
X469396895Y-117651761D01*
X469349276Y-117604142D01*
X470920704Y-117699380D02*
X470349276Y-117699380D01*
X470634990Y-117699380D02*
X470634990Y-116699380D01*
X470539752Y-116842238D01*
X470444514Y-116937476D01*
X470349276Y-116985095D01*
X487494514Y-117699380D02*
X487494514Y-116699380D01*
X488065942Y-117699380D02*
X487637371Y-117127952D01*
X488065942Y-116699380D02*
X487494514Y-117270809D01*
X488399276Y-116699380D02*
X489018323Y-116699380D01*
X488684990Y-117080333D01*
X488827847Y-117080333D01*
X488923085Y-117127952D01*
X488970704Y-117175571D01*
X489018323Y-117270809D01*
X489018323Y-117508904D01*
X488970704Y-117604142D01*
X488923085Y-117651761D01*
X488827847Y-117699380D01*
X488542133Y-117699380D01*
X488446895Y-117651761D01*
X488399276Y-117604142D01*
X489399276Y-116794619D02*
X489446895Y-116747000D01*
X489542133Y-116699380D01*
X489780228Y-116699380D01*
X489875466Y-116747000D01*
X489923085Y-116794619D01*
X489970704Y-116889857D01*
X489970704Y-116985095D01*
X489923085Y-117127952D01*
X489351657Y-117699380D01*
X489970704Y-117699380D01*
X430344514Y-136749380D02*
X430344514Y-135749380D01*
X430915942Y-136749380D02*
X430487371Y-136177952D01*
X430915942Y-135749380D02*
X430344514Y-136320809D01*
X431773085Y-136082714D02*
X431773085Y-136749380D01*
X431534990Y-135701761D02*
X431296895Y-136416047D01*
X431915942Y-136416047D01*
X432201657Y-135749380D02*
X432868323Y-135749380D01*
X432439752Y-136749380D01*
X449394514Y-136749380D02*
X449394514Y-135749380D01*
X449965942Y-136749380D02*
X449537371Y-136177952D01*
X449965942Y-135749380D02*
X449394514Y-136320809D01*
X450823085Y-136082714D02*
X450823085Y-136749380D01*
X450584990Y-135701761D02*
X450346895Y-136416047D01*
X450965942Y-136416047D01*
X451489752Y-136177952D02*
X451394514Y-136130333D01*
X451346895Y-136082714D01*
X451299276Y-135987476D01*
X451299276Y-135939857D01*
X451346895Y-135844619D01*
X451394514Y-135797000D01*
X451489752Y-135749380D01*
X451680228Y-135749380D01*
X451775466Y-135797000D01*
X451823085Y-135844619D01*
X451870704Y-135939857D01*
X451870704Y-135987476D01*
X451823085Y-136082714D01*
X451775466Y-136130333D01*
X451680228Y-136177952D01*
X451489752Y-136177952D01*
X451394514Y-136225571D01*
X451346895Y-136273190D01*
X451299276Y-136368428D01*
X451299276Y-136558904D01*
X451346895Y-136654142D01*
X451394514Y-136701761D01*
X451489752Y-136749380D01*
X451680228Y-136749380D01*
X451775466Y-136701761D01*
X451823085Y-136654142D01*
X451870704Y-136558904D01*
X451870704Y-136368428D01*
X451823085Y-136273190D01*
X451775466Y-136225571D01*
X451680228Y-136177952D01*
X468444514Y-136749380D02*
X468444514Y-135749380D01*
X469015942Y-136749380D02*
X468587371Y-136177952D01*
X469015942Y-135749380D02*
X468444514Y-136320809D01*
X469873085Y-136082714D02*
X469873085Y-136749380D01*
X469634990Y-135701761D02*
X469396895Y-136416047D01*
X470015942Y-136416047D01*
X470444514Y-136749380D02*
X470634990Y-136749380D01*
X470730228Y-136701761D01*
X470777847Y-136654142D01*
X470873085Y-136511285D01*
X470920704Y-136320809D01*
X470920704Y-135939857D01*
X470873085Y-135844619D01*
X470825466Y-135797000D01*
X470730228Y-135749380D01*
X470539752Y-135749380D01*
X470444514Y-135797000D01*
X470396895Y-135844619D01*
X470349276Y-135939857D01*
X470349276Y-136177952D01*
X470396895Y-136273190D01*
X470444514Y-136320809D01*
X470539752Y-136368428D01*
X470730228Y-136368428D01*
X470825466Y-136320809D01*
X470873085Y-136273190D01*
X470920704Y-136177952D01*
X487494514Y-136749380D02*
X487494514Y-135749380D01*
X488065942Y-136749380D02*
X487637371Y-136177952D01*
X488065942Y-135749380D02*
X487494514Y-136320809D01*
X488970704Y-135749380D02*
X488494514Y-135749380D01*
X488446895Y-136225571D01*
X488494514Y-136177952D01*
X488589752Y-136130333D01*
X488827847Y-136130333D01*
X488923085Y-136177952D01*
X488970704Y-136225571D01*
X489018323Y-136320809D01*
X489018323Y-136558904D01*
X488970704Y-136654142D01*
X488923085Y-136701761D01*
X488827847Y-136749380D01*
X488589752Y-136749380D01*
X488494514Y-136701761D01*
X488446895Y-136654142D01*
X489637371Y-135749380D02*
X489732609Y-135749380D01*
X489827847Y-135797000D01*
X489875466Y-135844619D01*
X489923085Y-135939857D01*
X489970704Y-136130333D01*
X489970704Y-136368428D01*
X489923085Y-136558904D01*
X489875466Y-136654142D01*
X489827847Y-136701761D01*
X489732609Y-136749380D01*
X489637371Y-136749380D01*
X489542133Y-136701761D01*
X489494514Y-136654142D01*
X489446895Y-136558904D01*
X489399276Y-136368428D01*
X489399276Y-136130333D01*
X489446895Y-135939857D01*
X489494514Y-135844619D01*
X489542133Y-135797000D01*
X489637371Y-135749380D01*
X382665714Y-155846980D02*
X382665714Y-154846980D01*
X383237142Y-155846980D02*
X382808571Y-155275552D01*
X383237142Y-154846980D02*
X382665714Y-155418409D01*
X384094285Y-154846980D02*
X383903809Y-154846980D01*
X383808571Y-154894600D01*
X383760952Y-154942219D01*
X383665714Y-155085076D01*
X383618095Y-155275552D01*
X383618095Y-155656504D01*
X383665714Y-155751742D01*
X383713333Y-155799361D01*
X383808571Y-155846980D01*
X383999047Y-155846980D01*
X384094285Y-155799361D01*
X384141904Y-155751742D01*
X384189523Y-155656504D01*
X384189523Y-155418409D01*
X384141904Y-155323171D01*
X384094285Y-155275552D01*
X383999047Y-155227933D01*
X383808571Y-155227933D01*
X383713333Y-155275552D01*
X383665714Y-155323171D01*
X383618095Y-155418409D01*
X385094285Y-154846980D02*
X384618095Y-154846980D01*
X384570476Y-155323171D01*
X384618095Y-155275552D01*
X384713333Y-155227933D01*
X384951428Y-155227933D01*
X385046666Y-155275552D01*
X385094285Y-155323171D01*
X385141904Y-155418409D01*
X385141904Y-155656504D01*
X385094285Y-155751742D01*
X385046666Y-155799361D01*
X384951428Y-155846980D01*
X384713333Y-155846980D01*
X384618095Y-155799361D01*
X384570476Y-155751742D01*
X430344514Y-155799380D02*
X430344514Y-154799380D01*
X430915942Y-155799380D02*
X430487371Y-155227952D01*
X430915942Y-154799380D02*
X430344514Y-155370809D01*
X431773085Y-154799380D02*
X431582609Y-154799380D01*
X431487371Y-154847000D01*
X431439752Y-154894619D01*
X431344514Y-155037476D01*
X431296895Y-155227952D01*
X431296895Y-155608904D01*
X431344514Y-155704142D01*
X431392133Y-155751761D01*
X431487371Y-155799380D01*
X431677847Y-155799380D01*
X431773085Y-155751761D01*
X431820704Y-155704142D01*
X431868323Y-155608904D01*
X431868323Y-155370809D01*
X431820704Y-155275571D01*
X431773085Y-155227952D01*
X431677847Y-155180333D01*
X431487371Y-155180333D01*
X431392133Y-155227952D01*
X431344514Y-155275571D01*
X431296895Y-155370809D01*
X432725466Y-154799380D02*
X432534990Y-154799380D01*
X432439752Y-154847000D01*
X432392133Y-154894619D01*
X432296895Y-155037476D01*
X432249276Y-155227952D01*
X432249276Y-155608904D01*
X432296895Y-155704142D01*
X432344514Y-155751761D01*
X432439752Y-155799380D01*
X432630228Y-155799380D01*
X432725466Y-155751761D01*
X432773085Y-155704142D01*
X432820704Y-155608904D01*
X432820704Y-155370809D01*
X432773085Y-155275571D01*
X432725466Y-155227952D01*
X432630228Y-155180333D01*
X432439752Y-155180333D01*
X432344514Y-155227952D01*
X432296895Y-155275571D01*
X432249276Y-155370809D01*
X449394514Y-155799380D02*
X449394514Y-154799380D01*
X449965942Y-155799380D02*
X449537371Y-155227952D01*
X449965942Y-154799380D02*
X449394514Y-155370809D01*
X450823085Y-154799380D02*
X450632609Y-154799380D01*
X450537371Y-154847000D01*
X450489752Y-154894619D01*
X450394514Y-155037476D01*
X450346895Y-155227952D01*
X450346895Y-155608904D01*
X450394514Y-155704142D01*
X450442133Y-155751761D01*
X450537371Y-155799380D01*
X450727847Y-155799380D01*
X450823085Y-155751761D01*
X450870704Y-155704142D01*
X450918323Y-155608904D01*
X450918323Y-155370809D01*
X450870704Y-155275571D01*
X450823085Y-155227952D01*
X450727847Y-155180333D01*
X450537371Y-155180333D01*
X450442133Y-155227952D01*
X450394514Y-155275571D01*
X450346895Y-155370809D01*
X451251657Y-154799380D02*
X451918323Y-154799380D01*
X451489752Y-155799380D01*
X468444514Y-155799380D02*
X468444514Y-154799380D01*
X469015942Y-155799380D02*
X468587371Y-155227952D01*
X469015942Y-154799380D02*
X468444514Y-155370809D01*
X469873085Y-154799380D02*
X469682609Y-154799380D01*
X469587371Y-154847000D01*
X469539752Y-154894619D01*
X469444514Y-155037476D01*
X469396895Y-155227952D01*
X469396895Y-155608904D01*
X469444514Y-155704142D01*
X469492133Y-155751761D01*
X469587371Y-155799380D01*
X469777847Y-155799380D01*
X469873085Y-155751761D01*
X469920704Y-155704142D01*
X469968323Y-155608904D01*
X469968323Y-155370809D01*
X469920704Y-155275571D01*
X469873085Y-155227952D01*
X469777847Y-155180333D01*
X469587371Y-155180333D01*
X469492133Y-155227952D01*
X469444514Y-155275571D01*
X469396895Y-155370809D01*
X470539752Y-155227952D02*
X470444514Y-155180333D01*
X470396895Y-155132714D01*
X470349276Y-155037476D01*
X470349276Y-154989857D01*
X470396895Y-154894619D01*
X470444514Y-154847000D01*
X470539752Y-154799380D01*
X470730228Y-154799380D01*
X470825466Y-154847000D01*
X470873085Y-154894619D01*
X470920704Y-154989857D01*
X470920704Y-155037476D01*
X470873085Y-155132714D01*
X470825466Y-155180333D01*
X470730228Y-155227952D01*
X470539752Y-155227952D01*
X470444514Y-155275571D01*
X470396895Y-155323190D01*
X470349276Y-155418428D01*
X470349276Y-155608904D01*
X470396895Y-155704142D01*
X470444514Y-155751761D01*
X470539752Y-155799380D01*
X470730228Y-155799380D01*
X470825466Y-155751761D01*
X470873085Y-155704142D01*
X470920704Y-155608904D01*
X470920704Y-155418428D01*
X470873085Y-155323190D01*
X470825466Y-155275571D01*
X470730228Y-155227952D01*
X487494514Y-155799380D02*
X487494514Y-154799380D01*
X488065942Y-155799380D02*
X487637371Y-155227952D01*
X488065942Y-154799380D02*
X487494514Y-155370809D01*
X488923085Y-154799380D02*
X488732609Y-154799380D01*
X488637371Y-154847000D01*
X488589752Y-154894619D01*
X488494514Y-155037476D01*
X488446895Y-155227952D01*
X488446895Y-155608904D01*
X488494514Y-155704142D01*
X488542133Y-155751761D01*
X488637371Y-155799380D01*
X488827847Y-155799380D01*
X488923085Y-155751761D01*
X488970704Y-155704142D01*
X489018323Y-155608904D01*
X489018323Y-155370809D01*
X488970704Y-155275571D01*
X488923085Y-155227952D01*
X488827847Y-155180333D01*
X488637371Y-155180333D01*
X488542133Y-155227952D01*
X488494514Y-155275571D01*
X488446895Y-155370809D01*
X489494514Y-155799380D02*
X489684990Y-155799380D01*
X489780228Y-155751761D01*
X489827847Y-155704142D01*
X489923085Y-155561285D01*
X489970704Y-155370809D01*
X489970704Y-154989857D01*
X489923085Y-154894619D01*
X489875466Y-154847000D01*
X489780228Y-154799380D01*
X489589752Y-154799380D01*
X489494514Y-154847000D01*
X489446895Y-154894619D01*
X489399276Y-154989857D01*
X489399276Y-155227952D01*
X489446895Y-155323190D01*
X489494514Y-155370809D01*
X489589752Y-155418428D01*
X489780228Y-155418428D01*
X489875466Y-155370809D01*
X489923085Y-155323190D01*
X489970704Y-155227952D01*
X363615714Y-174896980D02*
X363615714Y-173896980D01*
X364187142Y-174896980D02*
X363758571Y-174325552D01*
X364187142Y-173896980D02*
X363615714Y-174468409D01*
X364758571Y-174325552D02*
X364663333Y-174277933D01*
X364615714Y-174230314D01*
X364568095Y-174135076D01*
X364568095Y-174087457D01*
X364615714Y-173992219D01*
X364663333Y-173944600D01*
X364758571Y-173896980D01*
X364949047Y-173896980D01*
X365044285Y-173944600D01*
X365091904Y-173992219D01*
X365139523Y-174087457D01*
X365139523Y-174135076D01*
X365091904Y-174230314D01*
X365044285Y-174277933D01*
X364949047Y-174325552D01*
X364758571Y-174325552D01*
X364663333Y-174373171D01*
X364615714Y-174420790D01*
X364568095Y-174516028D01*
X364568095Y-174706504D01*
X364615714Y-174801742D01*
X364663333Y-174849361D01*
X364758571Y-174896980D01*
X364949047Y-174896980D01*
X365044285Y-174849361D01*
X365091904Y-174801742D01*
X365139523Y-174706504D01*
X365139523Y-174516028D01*
X365091904Y-174420790D01*
X365044285Y-174373171D01*
X364949047Y-174325552D01*
X365472857Y-173896980D02*
X366091904Y-173896980D01*
X365758571Y-174277933D01*
X365901428Y-174277933D01*
X365996666Y-174325552D01*
X366044285Y-174373171D01*
X366091904Y-174468409D01*
X366091904Y-174706504D01*
X366044285Y-174801742D01*
X365996666Y-174849361D01*
X365901428Y-174896980D01*
X365615714Y-174896980D01*
X365520476Y-174849361D01*
X365472857Y-174801742D01*
X382665714Y-174896980D02*
X382665714Y-173896980D01*
X383237142Y-174896980D02*
X382808571Y-174325552D01*
X383237142Y-173896980D02*
X382665714Y-174468409D01*
X383808571Y-174325552D02*
X383713333Y-174277933D01*
X383665714Y-174230314D01*
X383618095Y-174135076D01*
X383618095Y-174087457D01*
X383665714Y-173992219D01*
X383713333Y-173944600D01*
X383808571Y-173896980D01*
X383999047Y-173896980D01*
X384094285Y-173944600D01*
X384141904Y-173992219D01*
X384189523Y-174087457D01*
X384189523Y-174135076D01*
X384141904Y-174230314D01*
X384094285Y-174277933D01*
X383999047Y-174325552D01*
X383808571Y-174325552D01*
X383713333Y-174373171D01*
X383665714Y-174420790D01*
X383618095Y-174516028D01*
X383618095Y-174706504D01*
X383665714Y-174801742D01*
X383713333Y-174849361D01*
X383808571Y-174896980D01*
X383999047Y-174896980D01*
X384094285Y-174849361D01*
X384141904Y-174801742D01*
X384189523Y-174706504D01*
X384189523Y-174516028D01*
X384141904Y-174420790D01*
X384094285Y-174373171D01*
X383999047Y-174325552D01*
X385046666Y-174230314D02*
X385046666Y-174896980D01*
X384808571Y-173849361D02*
X384570476Y-174563647D01*
X385189523Y-174563647D01*
X401715714Y-174896980D02*
X401715714Y-173896980D01*
X402287142Y-174896980D02*
X401858571Y-174325552D01*
X402287142Y-173896980D02*
X401715714Y-174468409D01*
X402858571Y-174325552D02*
X402763333Y-174277933D01*
X402715714Y-174230314D01*
X402668095Y-174135076D01*
X402668095Y-174087457D01*
X402715714Y-173992219D01*
X402763333Y-173944600D01*
X402858571Y-173896980D01*
X403049047Y-173896980D01*
X403144285Y-173944600D01*
X403191904Y-173992219D01*
X403239523Y-174087457D01*
X403239523Y-174135076D01*
X403191904Y-174230314D01*
X403144285Y-174277933D01*
X403049047Y-174325552D01*
X402858571Y-174325552D01*
X402763333Y-174373171D01*
X402715714Y-174420790D01*
X402668095Y-174516028D01*
X402668095Y-174706504D01*
X402715714Y-174801742D01*
X402763333Y-174849361D01*
X402858571Y-174896980D01*
X403049047Y-174896980D01*
X403144285Y-174849361D01*
X403191904Y-174801742D01*
X403239523Y-174706504D01*
X403239523Y-174516028D01*
X403191904Y-174420790D01*
X403144285Y-174373171D01*
X403049047Y-174325552D01*
X404144285Y-173896980D02*
X403668095Y-173896980D01*
X403620476Y-174373171D01*
X403668095Y-174325552D01*
X403763333Y-174277933D01*
X404001428Y-174277933D01*
X404096666Y-174325552D01*
X404144285Y-174373171D01*
X404191904Y-174468409D01*
X404191904Y-174706504D01*
X404144285Y-174801742D01*
X404096666Y-174849361D01*
X404001428Y-174896980D01*
X403763333Y-174896980D01*
X403668095Y-174849361D01*
X403620476Y-174801742D01*
X430344514Y-174849380D02*
X430344514Y-173849380D01*
X430915942Y-174849380D02*
X430487371Y-174277952D01*
X430915942Y-173849380D02*
X430344514Y-174420809D01*
X431487371Y-174277952D02*
X431392133Y-174230333D01*
X431344514Y-174182714D01*
X431296895Y-174087476D01*
X431296895Y-174039857D01*
X431344514Y-173944619D01*
X431392133Y-173897000D01*
X431487371Y-173849380D01*
X431677847Y-173849380D01*
X431773085Y-173897000D01*
X431820704Y-173944619D01*
X431868323Y-174039857D01*
X431868323Y-174087476D01*
X431820704Y-174182714D01*
X431773085Y-174230333D01*
X431677847Y-174277952D01*
X431487371Y-174277952D01*
X431392133Y-174325571D01*
X431344514Y-174373190D01*
X431296895Y-174468428D01*
X431296895Y-174658904D01*
X431344514Y-174754142D01*
X431392133Y-174801761D01*
X431487371Y-174849380D01*
X431677847Y-174849380D01*
X431773085Y-174801761D01*
X431820704Y-174754142D01*
X431868323Y-174658904D01*
X431868323Y-174468428D01*
X431820704Y-174373190D01*
X431773085Y-174325571D01*
X431677847Y-174277952D01*
X432725466Y-173849380D02*
X432534990Y-173849380D01*
X432439752Y-173897000D01*
X432392133Y-173944619D01*
X432296895Y-174087476D01*
X432249276Y-174277952D01*
X432249276Y-174658904D01*
X432296895Y-174754142D01*
X432344514Y-174801761D01*
X432439752Y-174849380D01*
X432630228Y-174849380D01*
X432725466Y-174801761D01*
X432773085Y-174754142D01*
X432820704Y-174658904D01*
X432820704Y-174420809D01*
X432773085Y-174325571D01*
X432725466Y-174277952D01*
X432630228Y-174230333D01*
X432439752Y-174230333D01*
X432344514Y-174277952D01*
X432296895Y-174325571D01*
X432249276Y-174420809D01*
X449394514Y-174849380D02*
X449394514Y-173849380D01*
X449965942Y-174849380D02*
X449537371Y-174277952D01*
X449965942Y-173849380D02*
X449394514Y-174420809D01*
X450537371Y-174277952D02*
X450442133Y-174230333D01*
X450394514Y-174182714D01*
X450346895Y-174087476D01*
X450346895Y-174039857D01*
X450394514Y-173944619D01*
X450442133Y-173897000D01*
X450537371Y-173849380D01*
X450727847Y-173849380D01*
X450823085Y-173897000D01*
X450870704Y-173944619D01*
X450918323Y-174039857D01*
X450918323Y-174087476D01*
X450870704Y-174182714D01*
X450823085Y-174230333D01*
X450727847Y-174277952D01*
X450537371Y-174277952D01*
X450442133Y-174325571D01*
X450394514Y-174373190D01*
X450346895Y-174468428D01*
X450346895Y-174658904D01*
X450394514Y-174754142D01*
X450442133Y-174801761D01*
X450537371Y-174849380D01*
X450727847Y-174849380D01*
X450823085Y-174801761D01*
X450870704Y-174754142D01*
X450918323Y-174658904D01*
X450918323Y-174468428D01*
X450870704Y-174373190D01*
X450823085Y-174325571D01*
X450727847Y-174277952D01*
X451251657Y-173849380D02*
X451918323Y-173849380D01*
X451489752Y-174849380D01*
X468444514Y-174849380D02*
X468444514Y-173849380D01*
X469015942Y-174849380D02*
X468587371Y-174277952D01*
X469015942Y-173849380D02*
X468444514Y-174420809D01*
X469587371Y-174277952D02*
X469492133Y-174230333D01*
X469444514Y-174182714D01*
X469396895Y-174087476D01*
X469396895Y-174039857D01*
X469444514Y-173944619D01*
X469492133Y-173897000D01*
X469587371Y-173849380D01*
X469777847Y-173849380D01*
X469873085Y-173897000D01*
X469920704Y-173944619D01*
X469968323Y-174039857D01*
X469968323Y-174087476D01*
X469920704Y-174182714D01*
X469873085Y-174230333D01*
X469777847Y-174277952D01*
X469587371Y-174277952D01*
X469492133Y-174325571D01*
X469444514Y-174373190D01*
X469396895Y-174468428D01*
X469396895Y-174658904D01*
X469444514Y-174754142D01*
X469492133Y-174801761D01*
X469587371Y-174849380D01*
X469777847Y-174849380D01*
X469873085Y-174801761D01*
X469920704Y-174754142D01*
X469968323Y-174658904D01*
X469968323Y-174468428D01*
X469920704Y-174373190D01*
X469873085Y-174325571D01*
X469777847Y-174277952D01*
X470539752Y-174277952D02*
X470444514Y-174230333D01*
X470396895Y-174182714D01*
X470349276Y-174087476D01*
X470349276Y-174039857D01*
X470396895Y-173944619D01*
X470444514Y-173897000D01*
X470539752Y-173849380D01*
X470730228Y-173849380D01*
X470825466Y-173897000D01*
X470873085Y-173944619D01*
X470920704Y-174039857D01*
X470920704Y-174087476D01*
X470873085Y-174182714D01*
X470825466Y-174230333D01*
X470730228Y-174277952D01*
X470539752Y-174277952D01*
X470444514Y-174325571D01*
X470396895Y-174373190D01*
X470349276Y-174468428D01*
X470349276Y-174658904D01*
X470396895Y-174754142D01*
X470444514Y-174801761D01*
X470539752Y-174849380D01*
X470730228Y-174849380D01*
X470825466Y-174801761D01*
X470873085Y-174754142D01*
X470920704Y-174658904D01*
X470920704Y-174468428D01*
X470873085Y-174373190D01*
X470825466Y-174325571D01*
X470730228Y-174277952D01*
X485187619Y-179505714D02*
X486187619Y-179505714D01*
X485187619Y-180077142D02*
X485759047Y-179648571D01*
X486187619Y-180077142D02*
X485616190Y-179505714D01*
X485759047Y-180648571D02*
X485806666Y-180553333D01*
X485854285Y-180505714D01*
X485949523Y-180458095D01*
X485997142Y-180458095D01*
X486092380Y-180505714D01*
X486140000Y-180553333D01*
X486187619Y-180648571D01*
X486187619Y-180839047D01*
X486140000Y-180934285D01*
X486092380Y-180981904D01*
X485997142Y-181029523D01*
X485949523Y-181029523D01*
X485854285Y-180981904D01*
X485806666Y-180934285D01*
X485759047Y-180839047D01*
X485759047Y-180648571D01*
X485711428Y-180553333D01*
X485663809Y-180505714D01*
X485568571Y-180458095D01*
X485378095Y-180458095D01*
X485282857Y-180505714D01*
X485235238Y-180553333D01*
X485187619Y-180648571D01*
X485187619Y-180839047D01*
X485235238Y-180934285D01*
X485282857Y-180981904D01*
X485378095Y-181029523D01*
X485568571Y-181029523D01*
X485663809Y-180981904D01*
X485711428Y-180934285D01*
X485759047Y-180839047D01*
X485187619Y-181505714D02*
X485187619Y-181696190D01*
X485235238Y-181791428D01*
X485282857Y-181839047D01*
X485425714Y-181934285D01*
X485616190Y-181981904D01*
X485997142Y-181981904D01*
X486092380Y-181934285D01*
X486140000Y-181886666D01*
X486187619Y-181791428D01*
X486187619Y-181600952D01*
X486140000Y-181505714D01*
X486092380Y-181458095D01*
X485997142Y-181410476D01*
X485759047Y-181410476D01*
X485663809Y-181458095D01*
X485616190Y-181505714D01*
X485568571Y-181600952D01*
X485568571Y-181791428D01*
X485616190Y-181886666D01*
X485663809Y-181934285D01*
X485759047Y-181981904D01*
X440015714Y-193852380D02*
X440015714Y-192852380D01*
X440587142Y-193852380D02*
X440158571Y-193280952D01*
X440587142Y-192852380D02*
X440015714Y-193423809D01*
X441063333Y-193852380D02*
X441253809Y-193852380D01*
X441349047Y-193804761D01*
X441396666Y-193757142D01*
X441491904Y-193614285D01*
X441539523Y-193423809D01*
X441539523Y-193042857D01*
X441491904Y-192947619D01*
X441444285Y-192900000D01*
X441349047Y-192852380D01*
X441158571Y-192852380D01*
X441063333Y-192900000D01*
X441015714Y-192947619D01*
X440968095Y-193042857D01*
X440968095Y-193280952D01*
X441015714Y-193376190D01*
X441063333Y-193423809D01*
X441158571Y-193471428D01*
X441349047Y-193471428D01*
X441444285Y-193423809D01*
X441491904Y-193376190D01*
X441539523Y-193280952D01*
X442444285Y-192852380D02*
X441968095Y-192852380D01*
X441920476Y-193328571D01*
X441968095Y-193280952D01*
X442063333Y-193233333D01*
X442301428Y-193233333D01*
X442396666Y-193280952D01*
X442444285Y-193328571D01*
X442491904Y-193423809D01*
X442491904Y-193661904D01*
X442444285Y-193757142D01*
X442396666Y-193804761D01*
X442301428Y-193852380D01*
X442063333Y-193852380D01*
X441968095Y-193804761D01*
X441920476Y-193757142D01*
X468444514Y-193899380D02*
X468444514Y-192899380D01*
X469015942Y-193899380D02*
X468587371Y-193327952D01*
X469015942Y-192899380D02*
X468444514Y-193470809D01*
X469492133Y-193899380D02*
X469682609Y-193899380D01*
X469777847Y-193851761D01*
X469825466Y-193804142D01*
X469920704Y-193661285D01*
X469968323Y-193470809D01*
X469968323Y-193089857D01*
X469920704Y-192994619D01*
X469873085Y-192947000D01*
X469777847Y-192899380D01*
X469587371Y-192899380D01*
X469492133Y-192947000D01*
X469444514Y-192994619D01*
X469396895Y-193089857D01*
X469396895Y-193327952D01*
X469444514Y-193423190D01*
X469492133Y-193470809D01*
X469587371Y-193518428D01*
X469777847Y-193518428D01*
X469873085Y-193470809D01*
X469920704Y-193423190D01*
X469968323Y-193327952D01*
X470825466Y-192899380D02*
X470634990Y-192899380D01*
X470539752Y-192947000D01*
X470492133Y-192994619D01*
X470396895Y-193137476D01*
X470349276Y-193327952D01*
X470349276Y-193708904D01*
X470396895Y-193804142D01*
X470444514Y-193851761D01*
X470539752Y-193899380D01*
X470730228Y-193899380D01*
X470825466Y-193851761D01*
X470873085Y-193804142D01*
X470920704Y-193708904D01*
X470920704Y-193470809D01*
X470873085Y-193375571D01*
X470825466Y-193327952D01*
X470730228Y-193280333D01*
X470539752Y-193280333D01*
X470444514Y-193327952D01*
X470396895Y-193375571D01*
X470349276Y-193470809D01*
X396939714Y-117732980D02*
X396939714Y-116732980D01*
X397511142Y-117732980D02*
X397082571Y-117161552D01*
X397511142Y-116732980D02*
X396939714Y-117304409D01*
X397892095Y-116828219D02*
X397939714Y-116780600D01*
X398034952Y-116732980D01*
X398273047Y-116732980D01*
X398368285Y-116780600D01*
X398415904Y-116828219D01*
X398463523Y-116923457D01*
X398463523Y-117018695D01*
X398415904Y-117161552D01*
X397844476Y-117732980D01*
X398463523Y-117732980D01*
X399034952Y-117161552D02*
X398939714Y-117113933D01*
X398892095Y-117066314D01*
X398844476Y-116971076D01*
X398844476Y-116923457D01*
X398892095Y-116828219D01*
X398939714Y-116780600D01*
X399034952Y-116732980D01*
X399225428Y-116732980D01*
X399320666Y-116780600D01*
X399368285Y-116828219D01*
X399415904Y-116923457D01*
X399415904Y-116971076D01*
X399368285Y-117066314D01*
X399320666Y-117113933D01*
X399225428Y-117161552D01*
X399034952Y-117161552D01*
X398939714Y-117209171D01*
X398892095Y-117256790D01*
X398844476Y-117352028D01*
X398844476Y-117542504D01*
X398892095Y-117637742D01*
X398939714Y-117685361D01*
X399034952Y-117732980D01*
X399225428Y-117732980D01*
X399320666Y-117685361D01*
X399368285Y-117637742D01*
X399415904Y-117542504D01*
X399415904Y-117352028D01*
X399368285Y-117256790D01*
X399320666Y-117209171D01*
X399225428Y-117161552D01*
X69042514Y-136847780D02*
X69042514Y-135847780D01*
X69613942Y-136847780D02*
X69185371Y-136276352D01*
X69613942Y-135847780D02*
X69042514Y-136419209D01*
X69947276Y-135847780D02*
X70566323Y-135847780D01*
X70232990Y-136228733D01*
X70375847Y-136228733D01*
X70471085Y-136276352D01*
X70518704Y-136323971D01*
X70566323Y-136419209D01*
X70566323Y-136657304D01*
X70518704Y-136752542D01*
X70471085Y-136800161D01*
X70375847Y-136847780D01*
X70090133Y-136847780D01*
X69994895Y-136800161D01*
X69947276Y-136752542D01*
X70899657Y-135847780D02*
X71518704Y-135847780D01*
X71185371Y-136228733D01*
X71328228Y-136228733D01*
X71423466Y-136276352D01*
X71471085Y-136323971D01*
X71518704Y-136419209D01*
X71518704Y-136657304D01*
X71471085Y-136752542D01*
X71423466Y-136800161D01*
X71328228Y-136847780D01*
X71042514Y-136847780D01*
X70947276Y-136800161D01*
X70899657Y-136752542D01*
X197075714Y-194072380D02*
X197075714Y-193072380D01*
X197647142Y-194072380D02*
X197218571Y-193500952D01*
X197647142Y-193072380D02*
X197075714Y-193643809D01*
X198123333Y-194072380D02*
X198313809Y-194072380D01*
X198409047Y-194024761D01*
X198456666Y-193977142D01*
X198551904Y-193834285D01*
X198599523Y-193643809D01*
X198599523Y-193262857D01*
X198551904Y-193167619D01*
X198504285Y-193120000D01*
X198409047Y-193072380D01*
X198218571Y-193072380D01*
X198123333Y-193120000D01*
X198075714Y-193167619D01*
X198028095Y-193262857D01*
X198028095Y-193500952D01*
X198075714Y-193596190D01*
X198123333Y-193643809D01*
X198218571Y-193691428D01*
X198409047Y-193691428D01*
X198504285Y-193643809D01*
X198551904Y-193596190D01*
X198599523Y-193500952D01*
X198980476Y-193167619D02*
X199028095Y-193120000D01*
X199123333Y-193072380D01*
X199361428Y-193072380D01*
X199456666Y-193120000D01*
X199504285Y-193167619D01*
X199551904Y-193262857D01*
X199551904Y-193358095D01*
X199504285Y-193500952D01*
X198932857Y-194072380D01*
X199551904Y-194072380D01*
X145242514Y-117797780D02*
X145242514Y-116797780D01*
X145813942Y-117797780D02*
X145385371Y-117226352D01*
X145813942Y-116797780D02*
X145242514Y-117369209D01*
X146766323Y-117797780D02*
X146194895Y-117797780D01*
X146480609Y-117797780D02*
X146480609Y-116797780D01*
X146385371Y-116940638D01*
X146290133Y-117035876D01*
X146194895Y-117083495D01*
X147623466Y-116797780D02*
X147432990Y-116797780D01*
X147337752Y-116845400D01*
X147290133Y-116893019D01*
X147194895Y-117035876D01*
X147147276Y-117226352D01*
X147147276Y-117607304D01*
X147194895Y-117702542D01*
X147242514Y-117750161D01*
X147337752Y-117797780D01*
X147528228Y-117797780D01*
X147623466Y-117750161D01*
X147671085Y-117702542D01*
X147718704Y-117607304D01*
X147718704Y-117369209D01*
X147671085Y-117273971D01*
X147623466Y-117226352D01*
X147528228Y-117178733D01*
X147337752Y-117178733D01*
X147242514Y-117226352D01*
X147194895Y-117273971D01*
X147147276Y-117369209D01*
X88092514Y-117797780D02*
X88092514Y-116797780D01*
X88663942Y-117797780D02*
X88235371Y-117226352D01*
X88663942Y-116797780D02*
X88092514Y-117369209D01*
X89616323Y-117797780D02*
X89044895Y-117797780D01*
X89330609Y-117797780D02*
X89330609Y-116797780D01*
X89235371Y-116940638D01*
X89140133Y-117035876D01*
X89044895Y-117083495D01*
X89949657Y-116797780D02*
X90568704Y-116797780D01*
X90235371Y-117178733D01*
X90378228Y-117178733D01*
X90473466Y-117226352D01*
X90521085Y-117273971D01*
X90568704Y-117369209D01*
X90568704Y-117607304D01*
X90521085Y-117702542D01*
X90473466Y-117750161D01*
X90378228Y-117797780D01*
X90092514Y-117797780D01*
X89997276Y-117750161D01*
X89949657Y-117702542D01*
X240492514Y-117797780D02*
X240492514Y-116797780D01*
X241063942Y-117797780D02*
X240635371Y-117226352D01*
X241063942Y-116797780D02*
X240492514Y-117369209D01*
X241444895Y-116893019D02*
X241492514Y-116845400D01*
X241587752Y-116797780D01*
X241825847Y-116797780D01*
X241921085Y-116845400D01*
X241968704Y-116893019D01*
X242016323Y-116988257D01*
X242016323Y-117083495D01*
X241968704Y-117226352D01*
X241397276Y-117797780D01*
X242016323Y-117797780D01*
X242968704Y-117797780D02*
X242397276Y-117797780D01*
X242682990Y-117797780D02*
X242682990Y-116797780D01*
X242587752Y-116940638D01*
X242492514Y-117035876D01*
X242397276Y-117083495D01*
X202392514Y-117797780D02*
X202392514Y-116797780D01*
X202963942Y-117797780D02*
X202535371Y-117226352D01*
X202963942Y-116797780D02*
X202392514Y-117369209D01*
X203916323Y-117797780D02*
X203344895Y-117797780D01*
X203630609Y-117797780D02*
X203630609Y-116797780D01*
X203535371Y-116940638D01*
X203440133Y-117035876D01*
X203344895Y-117083495D01*
X204392514Y-117797780D02*
X204582990Y-117797780D01*
X204678228Y-117750161D01*
X204725847Y-117702542D01*
X204821085Y-117559685D01*
X204868704Y-117369209D01*
X204868704Y-116988257D01*
X204821085Y-116893019D01*
X204773466Y-116845400D01*
X204678228Y-116797780D01*
X204487752Y-116797780D01*
X204392514Y-116845400D01*
X204344895Y-116893019D01*
X204297276Y-116988257D01*
X204297276Y-117226352D01*
X204344895Y-117321590D01*
X204392514Y-117369209D01*
X204487752Y-117416828D01*
X204678228Y-117416828D01*
X204773466Y-117369209D01*
X204821085Y-117321590D01*
X204868704Y-117226352D01*
X107142514Y-117797780D02*
X107142514Y-116797780D01*
X107713942Y-117797780D02*
X107285371Y-117226352D01*
X107713942Y-116797780D02*
X107142514Y-117369209D01*
X108666323Y-117797780D02*
X108094895Y-117797780D01*
X108380609Y-117797780D02*
X108380609Y-116797780D01*
X108285371Y-116940638D01*
X108190133Y-117035876D01*
X108094895Y-117083495D01*
X109523466Y-117131114D02*
X109523466Y-117797780D01*
X109285371Y-116750161D02*
X109047276Y-117464447D01*
X109666323Y-117464447D01*
X278592514Y-117797780D02*
X278592514Y-116797780D01*
X279163942Y-117797780D02*
X278735371Y-117226352D01*
X279163942Y-116797780D02*
X278592514Y-117369209D01*
X279544895Y-116893019D02*
X279592514Y-116845400D01*
X279687752Y-116797780D01*
X279925847Y-116797780D01*
X280021085Y-116845400D01*
X280068704Y-116893019D01*
X280116323Y-116988257D01*
X280116323Y-117083495D01*
X280068704Y-117226352D01*
X279497276Y-117797780D01*
X280116323Y-117797780D01*
X280449657Y-116797780D02*
X281068704Y-116797780D01*
X280735371Y-117178733D01*
X280878228Y-117178733D01*
X280973466Y-117226352D01*
X281021085Y-117273971D01*
X281068704Y-117369209D01*
X281068704Y-117607304D01*
X281021085Y-117702542D01*
X280973466Y-117750161D01*
X280878228Y-117797780D01*
X280592514Y-117797780D01*
X280497276Y-117750161D01*
X280449657Y-117702542D01*
X164292514Y-117797780D02*
X164292514Y-116797780D01*
X164863942Y-117797780D02*
X164435371Y-117226352D01*
X164863942Y-116797780D02*
X164292514Y-117369209D01*
X165816323Y-117797780D02*
X165244895Y-117797780D01*
X165530609Y-117797780D02*
X165530609Y-116797780D01*
X165435371Y-116940638D01*
X165340133Y-117035876D01*
X165244895Y-117083495D01*
X166149657Y-116797780D02*
X166816323Y-116797780D01*
X166387752Y-117797780D01*
X221442514Y-117797780D02*
X221442514Y-116797780D01*
X222013942Y-117797780D02*
X221585371Y-117226352D01*
X222013942Y-116797780D02*
X221442514Y-117369209D01*
X222394895Y-116893019D02*
X222442514Y-116845400D01*
X222537752Y-116797780D01*
X222775847Y-116797780D01*
X222871085Y-116845400D01*
X222918704Y-116893019D01*
X222966323Y-116988257D01*
X222966323Y-117083495D01*
X222918704Y-117226352D01*
X222347276Y-117797780D01*
X222966323Y-117797780D01*
X223585371Y-116797780D02*
X223680609Y-116797780D01*
X223775847Y-116845400D01*
X223823466Y-116893019D01*
X223871085Y-116988257D01*
X223918704Y-117178733D01*
X223918704Y-117416828D01*
X223871085Y-117607304D01*
X223823466Y-117702542D01*
X223775847Y-117750161D01*
X223680609Y-117797780D01*
X223585371Y-117797780D01*
X223490133Y-117750161D01*
X223442514Y-117702542D01*
X223394895Y-117607304D01*
X223347276Y-117416828D01*
X223347276Y-117178733D01*
X223394895Y-116988257D01*
X223442514Y-116893019D01*
X223490133Y-116845400D01*
X223585371Y-116797780D01*
X183342514Y-117797780D02*
X183342514Y-116797780D01*
X183913942Y-117797780D02*
X183485371Y-117226352D01*
X183913942Y-116797780D02*
X183342514Y-117369209D01*
X184866323Y-117797780D02*
X184294895Y-117797780D01*
X184580609Y-117797780D02*
X184580609Y-116797780D01*
X184485371Y-116940638D01*
X184390133Y-117035876D01*
X184294895Y-117083495D01*
X185437752Y-117226352D02*
X185342514Y-117178733D01*
X185294895Y-117131114D01*
X185247276Y-117035876D01*
X185247276Y-116988257D01*
X185294895Y-116893019D01*
X185342514Y-116845400D01*
X185437752Y-116797780D01*
X185628228Y-116797780D01*
X185723466Y-116845400D01*
X185771085Y-116893019D01*
X185818704Y-116988257D01*
X185818704Y-117035876D01*
X185771085Y-117131114D01*
X185723466Y-117178733D01*
X185628228Y-117226352D01*
X185437752Y-117226352D01*
X185342514Y-117273971D01*
X185294895Y-117321590D01*
X185247276Y-117416828D01*
X185247276Y-117607304D01*
X185294895Y-117702542D01*
X185342514Y-117750161D01*
X185437752Y-117797780D01*
X185628228Y-117797780D01*
X185723466Y-117750161D01*
X185771085Y-117702542D01*
X185818704Y-117607304D01*
X185818704Y-117416828D01*
X185771085Y-117321590D01*
X185723466Y-117273971D01*
X185628228Y-117226352D01*
X126192514Y-117797780D02*
X126192514Y-116797780D01*
X126763942Y-117797780D02*
X126335371Y-117226352D01*
X126763942Y-116797780D02*
X126192514Y-117369209D01*
X127716323Y-117797780D02*
X127144895Y-117797780D01*
X127430609Y-117797780D02*
X127430609Y-116797780D01*
X127335371Y-116940638D01*
X127240133Y-117035876D01*
X127144895Y-117083495D01*
X128621085Y-116797780D02*
X128144895Y-116797780D01*
X128097276Y-117273971D01*
X128144895Y-117226352D01*
X128240133Y-117178733D01*
X128478228Y-117178733D01*
X128573466Y-117226352D01*
X128621085Y-117273971D01*
X128668704Y-117369209D01*
X128668704Y-117607304D01*
X128621085Y-117702542D01*
X128573466Y-117750161D01*
X128478228Y-117797780D01*
X128240133Y-117797780D01*
X128144895Y-117750161D01*
X128097276Y-117702542D01*
X333456514Y-146499780D02*
X333456514Y-145499780D01*
X334027942Y-146499780D02*
X333599371Y-145928352D01*
X334027942Y-145499780D02*
X333456514Y-146071209D01*
X334885085Y-145833114D02*
X334885085Y-146499780D01*
X334646990Y-145452161D02*
X334408895Y-146166447D01*
X335027942Y-146166447D01*
X335837466Y-145499780D02*
X335646990Y-145499780D01*
X335551752Y-145547400D01*
X335504133Y-145595019D01*
X335408895Y-145737876D01*
X335361276Y-145928352D01*
X335361276Y-146309304D01*
X335408895Y-146404542D01*
X335456514Y-146452161D01*
X335551752Y-146499780D01*
X335742228Y-146499780D01*
X335837466Y-146452161D01*
X335885085Y-146404542D01*
X335932704Y-146309304D01*
X335932704Y-146071209D01*
X335885085Y-145975971D01*
X335837466Y-145928352D01*
X335742228Y-145880733D01*
X335551752Y-145880733D01*
X335456514Y-145928352D01*
X335408895Y-145975971D01*
X335361276Y-146071209D01*
X235666514Y-155897780D02*
X235666514Y-154897780D01*
X236237942Y-155897780D02*
X235809371Y-155326352D01*
X236237942Y-154897780D02*
X235666514Y-155469209D01*
X237095085Y-154897780D02*
X236904609Y-154897780D01*
X236809371Y-154945400D01*
X236761752Y-154993019D01*
X236666514Y-155135876D01*
X236618895Y-155326352D01*
X236618895Y-155707304D01*
X236666514Y-155802542D01*
X236714133Y-155850161D01*
X236809371Y-155897780D01*
X236999847Y-155897780D01*
X237095085Y-155850161D01*
X237142704Y-155802542D01*
X237190323Y-155707304D01*
X237190323Y-155469209D01*
X237142704Y-155373971D01*
X237095085Y-155326352D01*
X236999847Y-155278733D01*
X236809371Y-155278733D01*
X236714133Y-155326352D01*
X236666514Y-155373971D01*
X236618895Y-155469209D01*
X237809371Y-154897780D02*
X237904609Y-154897780D01*
X237999847Y-154945400D01*
X238047466Y-154993019D01*
X238095085Y-155088257D01*
X238142704Y-155278733D01*
X238142704Y-155516828D01*
X238095085Y-155707304D01*
X238047466Y-155802542D01*
X237999847Y-155850161D01*
X237904609Y-155897780D01*
X237809371Y-155897780D01*
X237714133Y-155850161D01*
X237666514Y-155802542D01*
X237618895Y-155707304D01*
X237571276Y-155516828D01*
X237571276Y-155278733D01*
X237618895Y-155088257D01*
X237666514Y-154993019D01*
X237714133Y-154945400D01*
X237809371Y-154897780D01*
X259542514Y-117797780D02*
X259542514Y-116797780D01*
X260113942Y-117797780D02*
X259685371Y-117226352D01*
X260113942Y-116797780D02*
X259542514Y-117369209D01*
X260494895Y-116893019D02*
X260542514Y-116845400D01*
X260637752Y-116797780D01*
X260875847Y-116797780D01*
X260971085Y-116845400D01*
X261018704Y-116893019D01*
X261066323Y-116988257D01*
X261066323Y-117083495D01*
X261018704Y-117226352D01*
X260447276Y-117797780D01*
X261066323Y-117797780D01*
X261447276Y-116893019D02*
X261494895Y-116845400D01*
X261590133Y-116797780D01*
X261828228Y-116797780D01*
X261923466Y-116845400D01*
X261971085Y-116893019D01*
X262018704Y-116988257D01*
X262018704Y-117083495D01*
X261971085Y-117226352D01*
X261399657Y-117797780D01*
X262018704Y-117797780D01*
X102316514Y-155897780D02*
X102316514Y-154897780D01*
X102887942Y-155897780D02*
X102459371Y-155326352D01*
X102887942Y-154897780D02*
X102316514Y-155469209D01*
X103792704Y-154897780D02*
X103316514Y-154897780D01*
X103268895Y-155373971D01*
X103316514Y-155326352D01*
X103411752Y-155278733D01*
X103649847Y-155278733D01*
X103745085Y-155326352D01*
X103792704Y-155373971D01*
X103840323Y-155469209D01*
X103840323Y-155707304D01*
X103792704Y-155802542D01*
X103745085Y-155850161D01*
X103649847Y-155897780D01*
X103411752Y-155897780D01*
X103316514Y-155850161D01*
X103268895Y-155802542D01*
X104173657Y-154897780D02*
X104792704Y-154897780D01*
X104459371Y-155278733D01*
X104602228Y-155278733D01*
X104697466Y-155326352D01*
X104745085Y-155373971D01*
X104792704Y-155469209D01*
X104792704Y-155707304D01*
X104745085Y-155802542D01*
X104697466Y-155850161D01*
X104602228Y-155897780D01*
X104316514Y-155897780D01*
X104221276Y-155850161D01*
X104173657Y-155802542D01*
X121366514Y-155897780D02*
X121366514Y-154897780D01*
X121937942Y-155897780D02*
X121509371Y-155326352D01*
X121937942Y-154897780D02*
X121366514Y-155469209D01*
X122842704Y-154897780D02*
X122366514Y-154897780D01*
X122318895Y-155373971D01*
X122366514Y-155326352D01*
X122461752Y-155278733D01*
X122699847Y-155278733D01*
X122795085Y-155326352D01*
X122842704Y-155373971D01*
X122890323Y-155469209D01*
X122890323Y-155707304D01*
X122842704Y-155802542D01*
X122795085Y-155850161D01*
X122699847Y-155897780D01*
X122461752Y-155897780D01*
X122366514Y-155850161D01*
X122318895Y-155802542D01*
X123747466Y-155231114D02*
X123747466Y-155897780D01*
X123509371Y-154850161D02*
X123271276Y-155564447D01*
X123890323Y-155564447D01*
X312120514Y-155897780D02*
X312120514Y-154897780D01*
X312691942Y-155897780D02*
X312263371Y-155326352D01*
X312691942Y-154897780D02*
X312120514Y-155469209D01*
X313549085Y-154897780D02*
X313358609Y-154897780D01*
X313263371Y-154945400D01*
X313215752Y-154993019D01*
X313120514Y-155135876D01*
X313072895Y-155326352D01*
X313072895Y-155707304D01*
X313120514Y-155802542D01*
X313168133Y-155850161D01*
X313263371Y-155897780D01*
X313453847Y-155897780D01*
X313549085Y-155850161D01*
X313596704Y-155802542D01*
X313644323Y-155707304D01*
X313644323Y-155469209D01*
X313596704Y-155373971D01*
X313549085Y-155326352D01*
X313453847Y-155278733D01*
X313263371Y-155278733D01*
X313168133Y-155326352D01*
X313120514Y-155373971D01*
X313072895Y-155469209D01*
X314501466Y-155231114D02*
X314501466Y-155897780D01*
X314263371Y-154850161D02*
X314025276Y-155564447D01*
X314644323Y-155564447D01*
X197566514Y-155897780D02*
X197566514Y-154897780D01*
X198137942Y-155897780D02*
X197709371Y-155326352D01*
X198137942Y-154897780D02*
X197566514Y-155469209D01*
X199042704Y-154897780D02*
X198566514Y-154897780D01*
X198518895Y-155373971D01*
X198566514Y-155326352D01*
X198661752Y-155278733D01*
X198899847Y-155278733D01*
X198995085Y-155326352D01*
X199042704Y-155373971D01*
X199090323Y-155469209D01*
X199090323Y-155707304D01*
X199042704Y-155802542D01*
X198995085Y-155850161D01*
X198899847Y-155897780D01*
X198661752Y-155897780D01*
X198566514Y-155850161D01*
X198518895Y-155802542D01*
X199661752Y-155326352D02*
X199566514Y-155278733D01*
X199518895Y-155231114D01*
X199471276Y-155135876D01*
X199471276Y-155088257D01*
X199518895Y-154993019D01*
X199566514Y-154945400D01*
X199661752Y-154897780D01*
X199852228Y-154897780D01*
X199947466Y-154945400D01*
X199995085Y-154993019D01*
X200042704Y-155088257D01*
X200042704Y-155135876D01*
X199995085Y-155231114D01*
X199947466Y-155278733D01*
X199852228Y-155326352D01*
X199661752Y-155326352D01*
X199566514Y-155373971D01*
X199518895Y-155421590D01*
X199471276Y-155516828D01*
X199471276Y-155707304D01*
X199518895Y-155802542D01*
X199566514Y-155850161D01*
X199661752Y-155897780D01*
X199852228Y-155897780D01*
X199947466Y-155850161D01*
X199995085Y-155802542D01*
X200042704Y-155707304D01*
X200042704Y-155516828D01*
X199995085Y-155421590D01*
X199947466Y-155373971D01*
X199852228Y-155326352D01*
X216616514Y-155897780D02*
X216616514Y-154897780D01*
X217187942Y-155897780D02*
X216759371Y-155326352D01*
X217187942Y-154897780D02*
X216616514Y-155469209D01*
X218092704Y-154897780D02*
X217616514Y-154897780D01*
X217568895Y-155373971D01*
X217616514Y-155326352D01*
X217711752Y-155278733D01*
X217949847Y-155278733D01*
X218045085Y-155326352D01*
X218092704Y-155373971D01*
X218140323Y-155469209D01*
X218140323Y-155707304D01*
X218092704Y-155802542D01*
X218045085Y-155850161D01*
X217949847Y-155897780D01*
X217711752Y-155897780D01*
X217616514Y-155850161D01*
X217568895Y-155802542D01*
X218616514Y-155897780D02*
X218806990Y-155897780D01*
X218902228Y-155850161D01*
X218949847Y-155802542D01*
X219045085Y-155659685D01*
X219092704Y-155469209D01*
X219092704Y-155088257D01*
X219045085Y-154993019D01*
X218997466Y-154945400D01*
X218902228Y-154897780D01*
X218711752Y-154897780D01*
X218616514Y-154945400D01*
X218568895Y-154993019D01*
X218521276Y-155088257D01*
X218521276Y-155326352D01*
X218568895Y-155421590D01*
X218616514Y-155469209D01*
X218711752Y-155516828D01*
X218902228Y-155516828D01*
X218997466Y-155469209D01*
X219045085Y-155421590D01*
X219092704Y-155326352D01*
X307040514Y-136847780D02*
X307040514Y-135847780D01*
X307611942Y-136847780D02*
X307183371Y-136276352D01*
X307611942Y-135847780D02*
X307040514Y-136419209D01*
X308469085Y-136181114D02*
X308469085Y-136847780D01*
X308230990Y-135800161D02*
X307992895Y-136514447D01*
X308611942Y-136514447D01*
X309469085Y-135847780D02*
X308992895Y-135847780D01*
X308945276Y-136323971D01*
X308992895Y-136276352D01*
X309088133Y-136228733D01*
X309326228Y-136228733D01*
X309421466Y-136276352D01*
X309469085Y-136323971D01*
X309516704Y-136419209D01*
X309516704Y-136657304D01*
X309469085Y-136752542D01*
X309421466Y-136800161D01*
X309326228Y-136847780D01*
X309088133Y-136847780D01*
X308992895Y-136800161D01*
X308945276Y-136752542D01*
X293070514Y-155897780D02*
X293070514Y-154897780D01*
X293641942Y-155897780D02*
X293213371Y-155326352D01*
X293641942Y-154897780D02*
X293070514Y-155469209D01*
X294499085Y-154897780D02*
X294308609Y-154897780D01*
X294213371Y-154945400D01*
X294165752Y-154993019D01*
X294070514Y-155135876D01*
X294022895Y-155326352D01*
X294022895Y-155707304D01*
X294070514Y-155802542D01*
X294118133Y-155850161D01*
X294213371Y-155897780D01*
X294403847Y-155897780D01*
X294499085Y-155850161D01*
X294546704Y-155802542D01*
X294594323Y-155707304D01*
X294594323Y-155469209D01*
X294546704Y-155373971D01*
X294499085Y-155326352D01*
X294403847Y-155278733D01*
X294213371Y-155278733D01*
X294118133Y-155326352D01*
X294070514Y-155373971D01*
X294022895Y-155469209D01*
X294927657Y-154897780D02*
X295546704Y-154897780D01*
X295213371Y-155278733D01*
X295356228Y-155278733D01*
X295451466Y-155326352D01*
X295499085Y-155373971D01*
X295546704Y-155469209D01*
X295546704Y-155707304D01*
X295499085Y-155802542D01*
X295451466Y-155850161D01*
X295356228Y-155897780D01*
X295070514Y-155897780D01*
X294975276Y-155850161D01*
X294927657Y-155802542D01*
X274020514Y-155897780D02*
X274020514Y-154897780D01*
X274591942Y-155897780D02*
X274163371Y-155326352D01*
X274591942Y-154897780D02*
X274020514Y-155469209D01*
X275449085Y-154897780D02*
X275258609Y-154897780D01*
X275163371Y-154945400D01*
X275115752Y-154993019D01*
X275020514Y-155135876D01*
X274972895Y-155326352D01*
X274972895Y-155707304D01*
X275020514Y-155802542D01*
X275068133Y-155850161D01*
X275163371Y-155897780D01*
X275353847Y-155897780D01*
X275449085Y-155850161D01*
X275496704Y-155802542D01*
X275544323Y-155707304D01*
X275544323Y-155469209D01*
X275496704Y-155373971D01*
X275449085Y-155326352D01*
X275353847Y-155278733D01*
X275163371Y-155278733D01*
X275068133Y-155326352D01*
X275020514Y-155373971D01*
X274972895Y-155469209D01*
X275925276Y-154993019D02*
X275972895Y-154945400D01*
X276068133Y-154897780D01*
X276306228Y-154897780D01*
X276401466Y-154945400D01*
X276449085Y-154993019D01*
X276496704Y-155088257D01*
X276496704Y-155183495D01*
X276449085Y-155326352D01*
X275877657Y-155897780D01*
X276496704Y-155897780D01*
X140416514Y-155897780D02*
X140416514Y-154897780D01*
X140987942Y-155897780D02*
X140559371Y-155326352D01*
X140987942Y-154897780D02*
X140416514Y-155469209D01*
X141892704Y-154897780D02*
X141416514Y-154897780D01*
X141368895Y-155373971D01*
X141416514Y-155326352D01*
X141511752Y-155278733D01*
X141749847Y-155278733D01*
X141845085Y-155326352D01*
X141892704Y-155373971D01*
X141940323Y-155469209D01*
X141940323Y-155707304D01*
X141892704Y-155802542D01*
X141845085Y-155850161D01*
X141749847Y-155897780D01*
X141511752Y-155897780D01*
X141416514Y-155850161D01*
X141368895Y-155802542D01*
X142845085Y-154897780D02*
X142368895Y-154897780D01*
X142321276Y-155373971D01*
X142368895Y-155326352D01*
X142464133Y-155278733D01*
X142702228Y-155278733D01*
X142797466Y-155326352D01*
X142845085Y-155373971D01*
X142892704Y-155469209D01*
X142892704Y-155707304D01*
X142845085Y-155802542D01*
X142797466Y-155850161D01*
X142702228Y-155897780D01*
X142464133Y-155897780D01*
X142368895Y-155850161D01*
X142321276Y-155802542D01*
X254716514Y-155897780D02*
X254716514Y-154897780D01*
X255287942Y-155897780D02*
X254859371Y-155326352D01*
X255287942Y-154897780D02*
X254716514Y-155469209D01*
X256145085Y-154897780D02*
X255954609Y-154897780D01*
X255859371Y-154945400D01*
X255811752Y-154993019D01*
X255716514Y-155135876D01*
X255668895Y-155326352D01*
X255668895Y-155707304D01*
X255716514Y-155802542D01*
X255764133Y-155850161D01*
X255859371Y-155897780D01*
X256049847Y-155897780D01*
X256145085Y-155850161D01*
X256192704Y-155802542D01*
X256240323Y-155707304D01*
X256240323Y-155469209D01*
X256192704Y-155373971D01*
X256145085Y-155326352D01*
X256049847Y-155278733D01*
X255859371Y-155278733D01*
X255764133Y-155326352D01*
X255716514Y-155373971D01*
X255668895Y-155469209D01*
X257192704Y-155897780D02*
X256621276Y-155897780D01*
X256906990Y-155897780D02*
X256906990Y-154897780D01*
X256811752Y-155040638D01*
X256716514Y-155135876D01*
X256621276Y-155183495D01*
X178516514Y-155897780D02*
X178516514Y-154897780D01*
X179087942Y-155897780D02*
X178659371Y-155326352D01*
X179087942Y-154897780D02*
X178516514Y-155469209D01*
X179992704Y-154897780D02*
X179516514Y-154897780D01*
X179468895Y-155373971D01*
X179516514Y-155326352D01*
X179611752Y-155278733D01*
X179849847Y-155278733D01*
X179945085Y-155326352D01*
X179992704Y-155373971D01*
X180040323Y-155469209D01*
X180040323Y-155707304D01*
X179992704Y-155802542D01*
X179945085Y-155850161D01*
X179849847Y-155897780D01*
X179611752Y-155897780D01*
X179516514Y-155850161D01*
X179468895Y-155802542D01*
X180373657Y-154897780D02*
X181040323Y-154897780D01*
X180611752Y-155897780D01*
X159466514Y-155897780D02*
X159466514Y-154897780D01*
X160037942Y-155897780D02*
X159609371Y-155326352D01*
X160037942Y-154897780D02*
X159466514Y-155469209D01*
X160942704Y-154897780D02*
X160466514Y-154897780D01*
X160418895Y-155373971D01*
X160466514Y-155326352D01*
X160561752Y-155278733D01*
X160799847Y-155278733D01*
X160895085Y-155326352D01*
X160942704Y-155373971D01*
X160990323Y-155469209D01*
X160990323Y-155707304D01*
X160942704Y-155802542D01*
X160895085Y-155850161D01*
X160799847Y-155897780D01*
X160561752Y-155897780D01*
X160466514Y-155850161D01*
X160418895Y-155802542D01*
X161847466Y-154897780D02*
X161656990Y-154897780D01*
X161561752Y-154945400D01*
X161514133Y-154993019D01*
X161418895Y-155135876D01*
X161371276Y-155326352D01*
X161371276Y-155707304D01*
X161418895Y-155802542D01*
X161466514Y-155850161D01*
X161561752Y-155897780D01*
X161752228Y-155897780D01*
X161847466Y-155850161D01*
X161895085Y-155802542D01*
X161942704Y-155707304D01*
X161942704Y-155469209D01*
X161895085Y-155373971D01*
X161847466Y-155326352D01*
X161752228Y-155278733D01*
X161561752Y-155278733D01*
X161466514Y-155326352D01*
X161418895Y-155373971D01*
X161371276Y-155469209D01*
X97490514Y-136847780D02*
X97490514Y-135847780D01*
X98061942Y-136847780D02*
X97633371Y-136276352D01*
X98061942Y-135847780D02*
X97490514Y-136419209D01*
X98395276Y-135847780D02*
X99014323Y-135847780D01*
X98680990Y-136228733D01*
X98823847Y-136228733D01*
X98919085Y-136276352D01*
X98966704Y-136323971D01*
X99014323Y-136419209D01*
X99014323Y-136657304D01*
X98966704Y-136752542D01*
X98919085Y-136800161D01*
X98823847Y-136847780D01*
X98538133Y-136847780D01*
X98442895Y-136800161D01*
X98395276Y-136752542D01*
X99871466Y-136181114D02*
X99871466Y-136847780D01*
X99633371Y-135800161D02*
X99395276Y-136514447D01*
X100014323Y-136514447D01*
X211790514Y-136847780D02*
X211790514Y-135847780D01*
X212361942Y-136847780D02*
X211933371Y-136276352D01*
X212361942Y-135847780D02*
X211790514Y-136419209D01*
X213219085Y-136181114D02*
X213219085Y-136847780D01*
X212980990Y-135800161D02*
X212742895Y-136514447D01*
X213361942Y-136514447D01*
X213933371Y-135847780D02*
X214028609Y-135847780D01*
X214123847Y-135895400D01*
X214171466Y-135943019D01*
X214219085Y-136038257D01*
X214266704Y-136228733D01*
X214266704Y-136466828D01*
X214219085Y-136657304D01*
X214171466Y-136752542D01*
X214123847Y-136800161D01*
X214028609Y-136847780D01*
X213933371Y-136847780D01*
X213838133Y-136800161D01*
X213790514Y-136752542D01*
X213742895Y-136657304D01*
X213695276Y-136466828D01*
X213695276Y-136228733D01*
X213742895Y-136038257D01*
X213790514Y-135943019D01*
X213838133Y-135895400D01*
X213933371Y-135847780D01*
X192740514Y-136847780D02*
X192740514Y-135847780D01*
X193311942Y-136847780D02*
X192883371Y-136276352D01*
X193311942Y-135847780D02*
X192740514Y-136419209D01*
X193645276Y-135847780D02*
X194264323Y-135847780D01*
X193930990Y-136228733D01*
X194073847Y-136228733D01*
X194169085Y-136276352D01*
X194216704Y-136323971D01*
X194264323Y-136419209D01*
X194264323Y-136657304D01*
X194216704Y-136752542D01*
X194169085Y-136800161D01*
X194073847Y-136847780D01*
X193788133Y-136847780D01*
X193692895Y-136800161D01*
X193645276Y-136752542D01*
X194740514Y-136847780D02*
X194930990Y-136847780D01*
X195026228Y-136800161D01*
X195073847Y-136752542D01*
X195169085Y-136609685D01*
X195216704Y-136419209D01*
X195216704Y-136038257D01*
X195169085Y-135943019D01*
X195121466Y-135895400D01*
X195026228Y-135847780D01*
X194835752Y-135847780D01*
X194740514Y-135895400D01*
X194692895Y-135943019D01*
X194645276Y-136038257D01*
X194645276Y-136276352D01*
X194692895Y-136371590D01*
X194740514Y-136419209D01*
X194835752Y-136466828D01*
X195026228Y-136466828D01*
X195121466Y-136419209D01*
X195169085Y-136371590D01*
X195216704Y-136276352D01*
X249890514Y-136847780D02*
X249890514Y-135847780D01*
X250461942Y-136847780D02*
X250033371Y-136276352D01*
X250461942Y-135847780D02*
X249890514Y-136419209D01*
X251319085Y-136181114D02*
X251319085Y-136847780D01*
X251080990Y-135800161D02*
X250842895Y-136514447D01*
X251461942Y-136514447D01*
X251795276Y-135943019D02*
X251842895Y-135895400D01*
X251938133Y-135847780D01*
X252176228Y-135847780D01*
X252271466Y-135895400D01*
X252319085Y-135943019D01*
X252366704Y-136038257D01*
X252366704Y-136133495D01*
X252319085Y-136276352D01*
X251747657Y-136847780D01*
X252366704Y-136847780D01*
X335742514Y-117797780D02*
X335742514Y-116797780D01*
X336313942Y-117797780D02*
X335885371Y-117226352D01*
X336313942Y-116797780D02*
X335742514Y-117369209D01*
X336694895Y-116893019D02*
X336742514Y-116845400D01*
X336837752Y-116797780D01*
X337075847Y-116797780D01*
X337171085Y-116845400D01*
X337218704Y-116893019D01*
X337266323Y-116988257D01*
X337266323Y-117083495D01*
X337218704Y-117226352D01*
X336647276Y-117797780D01*
X337266323Y-117797780D01*
X338123466Y-116797780D02*
X337932990Y-116797780D01*
X337837752Y-116845400D01*
X337790133Y-116893019D01*
X337694895Y-117035876D01*
X337647276Y-117226352D01*
X337647276Y-117607304D01*
X337694895Y-117702542D01*
X337742514Y-117750161D01*
X337837752Y-117797780D01*
X338028228Y-117797780D01*
X338123466Y-117750161D01*
X338171085Y-117702542D01*
X338218704Y-117607304D01*
X338218704Y-117369209D01*
X338171085Y-117273971D01*
X338123466Y-117226352D01*
X338028228Y-117178733D01*
X337837752Y-117178733D01*
X337742514Y-117226352D01*
X337694895Y-117273971D01*
X337647276Y-117369209D01*
X135590514Y-136847780D02*
X135590514Y-135847780D01*
X136161942Y-136847780D02*
X135733371Y-136276352D01*
X136161942Y-135847780D02*
X135590514Y-136419209D01*
X136495276Y-135847780D02*
X137114323Y-135847780D01*
X136780990Y-136228733D01*
X136923847Y-136228733D01*
X137019085Y-136276352D01*
X137066704Y-136323971D01*
X137114323Y-136419209D01*
X137114323Y-136657304D01*
X137066704Y-136752542D01*
X137019085Y-136800161D01*
X136923847Y-136847780D01*
X136638133Y-136847780D01*
X136542895Y-136800161D01*
X136495276Y-136752542D01*
X137971466Y-135847780D02*
X137780990Y-135847780D01*
X137685752Y-135895400D01*
X137638133Y-135943019D01*
X137542895Y-136085876D01*
X137495276Y-136276352D01*
X137495276Y-136657304D01*
X137542895Y-136752542D01*
X137590514Y-136800161D01*
X137685752Y-136847780D01*
X137876228Y-136847780D01*
X137971466Y-136800161D01*
X138019085Y-136752542D01*
X138066704Y-136657304D01*
X138066704Y-136419209D01*
X138019085Y-136323971D01*
X137971466Y-136276352D01*
X137876228Y-136228733D01*
X137685752Y-136228733D01*
X137590514Y-136276352D01*
X137542895Y-136323971D01*
X137495276Y-136419209D01*
X316692514Y-117797780D02*
X316692514Y-116797780D01*
X317263942Y-117797780D02*
X316835371Y-117226352D01*
X317263942Y-116797780D02*
X316692514Y-117369209D01*
X317644895Y-116893019D02*
X317692514Y-116845400D01*
X317787752Y-116797780D01*
X318025847Y-116797780D01*
X318121085Y-116845400D01*
X318168704Y-116893019D01*
X318216323Y-116988257D01*
X318216323Y-117083495D01*
X318168704Y-117226352D01*
X317597276Y-117797780D01*
X318216323Y-117797780D01*
X319121085Y-116797780D02*
X318644895Y-116797780D01*
X318597276Y-117273971D01*
X318644895Y-117226352D01*
X318740133Y-117178733D01*
X318978228Y-117178733D01*
X319073466Y-117226352D01*
X319121085Y-117273971D01*
X319168704Y-117369209D01*
X319168704Y-117607304D01*
X319121085Y-117702542D01*
X319073466Y-117750161D01*
X318978228Y-117797780D01*
X318740133Y-117797780D01*
X318644895Y-117750161D01*
X318597276Y-117702542D01*
X287990514Y-136847780D02*
X287990514Y-135847780D01*
X288561942Y-136847780D02*
X288133371Y-136276352D01*
X288561942Y-135847780D02*
X287990514Y-136419209D01*
X289419085Y-136181114D02*
X289419085Y-136847780D01*
X289180990Y-135800161D02*
X288942895Y-136514447D01*
X289561942Y-136514447D01*
X290371466Y-136181114D02*
X290371466Y-136847780D01*
X290133371Y-135800161D02*
X289895276Y-136514447D01*
X290514323Y-136514447D01*
X230840514Y-136847780D02*
X230840514Y-135847780D01*
X231411942Y-136847780D02*
X230983371Y-136276352D01*
X231411942Y-135847780D02*
X230840514Y-136419209D01*
X232269085Y-136181114D02*
X232269085Y-136847780D01*
X232030990Y-135800161D02*
X231792895Y-136514447D01*
X232411942Y-136514447D01*
X233316704Y-136847780D02*
X232745276Y-136847780D01*
X233030990Y-136847780D02*
X233030990Y-135847780D01*
X232935752Y-135990638D01*
X232840514Y-136085876D01*
X232745276Y-136133495D01*
X116540514Y-136847780D02*
X116540514Y-135847780D01*
X117111942Y-136847780D02*
X116683371Y-136276352D01*
X117111942Y-135847780D02*
X116540514Y-136419209D01*
X117445276Y-135847780D02*
X118064323Y-135847780D01*
X117730990Y-136228733D01*
X117873847Y-136228733D01*
X117969085Y-136276352D01*
X118016704Y-136323971D01*
X118064323Y-136419209D01*
X118064323Y-136657304D01*
X118016704Y-136752542D01*
X117969085Y-136800161D01*
X117873847Y-136847780D01*
X117588133Y-136847780D01*
X117492895Y-136800161D01*
X117445276Y-136752542D01*
X118969085Y-135847780D02*
X118492895Y-135847780D01*
X118445276Y-136323971D01*
X118492895Y-136276352D01*
X118588133Y-136228733D01*
X118826228Y-136228733D01*
X118921466Y-136276352D01*
X118969085Y-136323971D01*
X119016704Y-136419209D01*
X119016704Y-136657304D01*
X118969085Y-136752542D01*
X118921466Y-136800161D01*
X118826228Y-136847780D01*
X118588133Y-136847780D01*
X118492895Y-136800161D01*
X118445276Y-136752542D01*
X173690514Y-136926580D02*
X173690514Y-135926580D01*
X174261942Y-136926580D02*
X173833371Y-136355152D01*
X174261942Y-135926580D02*
X173690514Y-136498009D01*
X174595276Y-135926580D02*
X175214323Y-135926580D01*
X174880990Y-136307533D01*
X175023847Y-136307533D01*
X175119085Y-136355152D01*
X175166704Y-136402771D01*
X175214323Y-136498009D01*
X175214323Y-136736104D01*
X175166704Y-136831342D01*
X175119085Y-136878961D01*
X175023847Y-136926580D01*
X174738133Y-136926580D01*
X174642895Y-136878961D01*
X174595276Y-136831342D01*
X175785752Y-136355152D02*
X175690514Y-136307533D01*
X175642895Y-136259914D01*
X175595276Y-136164676D01*
X175595276Y-136117057D01*
X175642895Y-136021819D01*
X175690514Y-135974200D01*
X175785752Y-135926580D01*
X175976228Y-135926580D01*
X176071466Y-135974200D01*
X176119085Y-136021819D01*
X176166704Y-136117057D01*
X176166704Y-136164676D01*
X176119085Y-136259914D01*
X176071466Y-136307533D01*
X175976228Y-136355152D01*
X175785752Y-136355152D01*
X175690514Y-136402771D01*
X175642895Y-136450390D01*
X175595276Y-136545628D01*
X175595276Y-136736104D01*
X175642895Y-136831342D01*
X175690514Y-136878961D01*
X175785752Y-136926580D01*
X175976228Y-136926580D01*
X176071466Y-136878961D01*
X176119085Y-136831342D01*
X176166704Y-136736104D01*
X176166704Y-136545628D01*
X176119085Y-136450390D01*
X176071466Y-136402771D01*
X175976228Y-136355152D01*
X297642514Y-117797780D02*
X297642514Y-116797780D01*
X298213942Y-117797780D02*
X297785371Y-117226352D01*
X298213942Y-116797780D02*
X297642514Y-117369209D01*
X298594895Y-116893019D02*
X298642514Y-116845400D01*
X298737752Y-116797780D01*
X298975847Y-116797780D01*
X299071085Y-116845400D01*
X299118704Y-116893019D01*
X299166323Y-116988257D01*
X299166323Y-117083495D01*
X299118704Y-117226352D01*
X298547276Y-117797780D01*
X299166323Y-117797780D01*
X300023466Y-117131114D02*
X300023466Y-117797780D01*
X299785371Y-116750161D02*
X299547276Y-117464447D01*
X300166323Y-117464447D01*
X154640514Y-136847780D02*
X154640514Y-135847780D01*
X155211942Y-136847780D02*
X154783371Y-136276352D01*
X155211942Y-135847780D02*
X154640514Y-136419209D01*
X155545276Y-135847780D02*
X156164323Y-135847780D01*
X155830990Y-136228733D01*
X155973847Y-136228733D01*
X156069085Y-136276352D01*
X156116704Y-136323971D01*
X156164323Y-136419209D01*
X156164323Y-136657304D01*
X156116704Y-136752542D01*
X156069085Y-136800161D01*
X155973847Y-136847780D01*
X155688133Y-136847780D01*
X155592895Y-136800161D01*
X155545276Y-136752542D01*
X156497657Y-135847780D02*
X157164323Y-135847780D01*
X156735752Y-136847780D01*
X268940514Y-136847780D02*
X268940514Y-135847780D01*
X269511942Y-136847780D02*
X269083371Y-136276352D01*
X269511942Y-135847780D02*
X268940514Y-136419209D01*
X270369085Y-136181114D02*
X270369085Y-136847780D01*
X270130990Y-135800161D02*
X269892895Y-136514447D01*
X270511942Y-136514447D01*
X270797657Y-135847780D02*
X271416704Y-135847780D01*
X271083371Y-136228733D01*
X271226228Y-136228733D01*
X271321466Y-136276352D01*
X271369085Y-136323971D01*
X271416704Y-136419209D01*
X271416704Y-136657304D01*
X271369085Y-136752542D01*
X271321466Y-136800161D01*
X271226228Y-136847780D01*
X270940514Y-136847780D01*
X270845276Y-136800161D01*
X270797657Y-136752542D01*
X318724514Y-193997780D02*
X318724514Y-192997780D01*
X319295942Y-193997780D02*
X318867371Y-193426352D01*
X319295942Y-192997780D02*
X318724514Y-193569209D01*
X319772133Y-193997780D02*
X319962609Y-193997780D01*
X320057847Y-193950161D01*
X320105466Y-193902542D01*
X320200704Y-193759685D01*
X320248323Y-193569209D01*
X320248323Y-193188257D01*
X320200704Y-193093019D01*
X320153085Y-193045400D01*
X320057847Y-192997780D01*
X319867371Y-192997780D01*
X319772133Y-193045400D01*
X319724514Y-193093019D01*
X319676895Y-193188257D01*
X319676895Y-193426352D01*
X319724514Y-193521590D01*
X319772133Y-193569209D01*
X319867371Y-193616828D01*
X320057847Y-193616828D01*
X320153085Y-193569209D01*
X320200704Y-193521590D01*
X320248323Y-193426352D01*
X321105466Y-193331114D02*
X321105466Y-193997780D01*
X320867371Y-192950161D02*
X320629276Y-193664447D01*
X321248323Y-193664447D01*
X99522514Y-193997780D02*
X99522514Y-192997780D01*
X100093942Y-193997780D02*
X99665371Y-193426352D01*
X100093942Y-192997780D02*
X99522514Y-193569209D01*
X100570133Y-193997780D02*
X100760609Y-193997780D01*
X100855847Y-193950161D01*
X100903466Y-193902542D01*
X100998704Y-193759685D01*
X101046323Y-193569209D01*
X101046323Y-193188257D01*
X100998704Y-193093019D01*
X100951085Y-193045400D01*
X100855847Y-192997780D01*
X100665371Y-192997780D01*
X100570133Y-193045400D01*
X100522514Y-193093019D01*
X100474895Y-193188257D01*
X100474895Y-193426352D01*
X100522514Y-193521590D01*
X100570133Y-193569209D01*
X100665371Y-193616828D01*
X100855847Y-193616828D01*
X100951085Y-193569209D01*
X100998704Y-193521590D01*
X101046323Y-193426352D01*
X101998704Y-193997780D02*
X101427276Y-193997780D01*
X101712990Y-193997780D02*
X101712990Y-192997780D01*
X101617752Y-193140638D01*
X101522514Y-193235876D01*
X101427276Y-193283495D01*
X294848514Y-193997780D02*
X294848514Y-192997780D01*
X295419942Y-193997780D02*
X294991371Y-193426352D01*
X295419942Y-192997780D02*
X294848514Y-193569209D01*
X295896133Y-193997780D02*
X296086609Y-193997780D01*
X296181847Y-193950161D01*
X296229466Y-193902542D01*
X296324704Y-193759685D01*
X296372323Y-193569209D01*
X296372323Y-193188257D01*
X296324704Y-193093019D01*
X296277085Y-193045400D01*
X296181847Y-192997780D01*
X295991371Y-192997780D01*
X295896133Y-193045400D01*
X295848514Y-193093019D01*
X295800895Y-193188257D01*
X295800895Y-193426352D01*
X295848514Y-193521590D01*
X295896133Y-193569209D01*
X295991371Y-193616828D01*
X296181847Y-193616828D01*
X296277085Y-193569209D01*
X296324704Y-193521590D01*
X296372323Y-193426352D01*
X296705657Y-192997780D02*
X297324704Y-192997780D01*
X296991371Y-193378733D01*
X297134228Y-193378733D01*
X297229466Y-193426352D01*
X297277085Y-193473971D01*
X297324704Y-193569209D01*
X297324704Y-193807304D01*
X297277085Y-193902542D01*
X297229466Y-193950161D01*
X297134228Y-193997780D01*
X296848514Y-193997780D01*
X296753276Y-193950161D01*
X296705657Y-193902542D01*
X66756514Y-174947780D02*
X66756514Y-173947780D01*
X67327942Y-174947780D02*
X66899371Y-174376352D01*
X67327942Y-173947780D02*
X66756514Y-174519209D01*
X67661276Y-173947780D02*
X68327942Y-173947780D01*
X67899371Y-174947780D01*
X68899371Y-173947780D02*
X68994609Y-173947780D01*
X69089847Y-173995400D01*
X69137466Y-174043019D01*
X69185085Y-174138257D01*
X69232704Y-174328733D01*
X69232704Y-174566828D01*
X69185085Y-174757304D01*
X69137466Y-174852542D01*
X69089847Y-174900161D01*
X68994609Y-174947780D01*
X68899371Y-174947780D01*
X68804133Y-174900161D01*
X68756514Y-174852542D01*
X68708895Y-174757304D01*
X68661276Y-174566828D01*
X68661276Y-174328733D01*
X68708895Y-174138257D01*
X68756514Y-174043019D01*
X68804133Y-173995400D01*
X68899371Y-173947780D01*
X83266514Y-155897780D02*
X83266514Y-154897780D01*
X83837942Y-155897780D02*
X83409371Y-155326352D01*
X83837942Y-154897780D02*
X83266514Y-155469209D01*
X84742704Y-154897780D02*
X84266514Y-154897780D01*
X84218895Y-155373971D01*
X84266514Y-155326352D01*
X84361752Y-155278733D01*
X84599847Y-155278733D01*
X84695085Y-155326352D01*
X84742704Y-155373971D01*
X84790323Y-155469209D01*
X84790323Y-155707304D01*
X84742704Y-155802542D01*
X84695085Y-155850161D01*
X84599847Y-155897780D01*
X84361752Y-155897780D01*
X84266514Y-155850161D01*
X84218895Y-155802542D01*
X85171276Y-154993019D02*
X85218895Y-154945400D01*
X85314133Y-154897780D01*
X85552228Y-154897780D01*
X85647466Y-154945400D01*
X85695085Y-154993019D01*
X85742704Y-155088257D01*
X85742704Y-155183495D01*
X85695085Y-155326352D01*
X85123657Y-155897780D01*
X85742704Y-155897780D01*
X64314514Y-117797780D02*
X64314514Y-116797780D01*
X64885942Y-117797780D02*
X64457371Y-117226352D01*
X64885942Y-116797780D02*
X64314514Y-117369209D01*
X65838323Y-117797780D02*
X65266895Y-117797780D01*
X65552609Y-117797780D02*
X65552609Y-116797780D01*
X65457371Y-116940638D01*
X65362133Y-117035876D01*
X65266895Y-117083495D01*
X66219276Y-116893019D02*
X66266895Y-116845400D01*
X66362133Y-116797780D01*
X66600228Y-116797780D01*
X66695466Y-116845400D01*
X66743085Y-116893019D01*
X66790704Y-116988257D01*
X66790704Y-117083495D01*
X66743085Y-117226352D01*
X66171657Y-117797780D01*
X66790704Y-117797780D01*
X75646514Y-193997780D02*
X75646514Y-192997780D01*
X76217942Y-193997780D02*
X75789371Y-193426352D01*
X76217942Y-192997780D02*
X75646514Y-193569209D01*
X76694133Y-193997780D02*
X76884609Y-193997780D01*
X76979847Y-193950161D01*
X77027466Y-193902542D01*
X77122704Y-193759685D01*
X77170323Y-193569209D01*
X77170323Y-193188257D01*
X77122704Y-193093019D01*
X77075085Y-193045400D01*
X76979847Y-192997780D01*
X76789371Y-192997780D01*
X76694133Y-193045400D01*
X76646514Y-193093019D01*
X76598895Y-193188257D01*
X76598895Y-193426352D01*
X76646514Y-193521590D01*
X76694133Y-193569209D01*
X76789371Y-193616828D01*
X76979847Y-193616828D01*
X77075085Y-193569209D01*
X77122704Y-193521590D01*
X77170323Y-193426352D01*
X77789371Y-192997780D02*
X77884609Y-192997780D01*
X77979847Y-193045400D01*
X78027466Y-193093019D01*
X78075085Y-193188257D01*
X78122704Y-193378733D01*
X78122704Y-193616828D01*
X78075085Y-193807304D01*
X78027466Y-193902542D01*
X77979847Y-193950161D01*
X77884609Y-193997780D01*
X77789371Y-193997780D01*
X77694133Y-193950161D01*
X77646514Y-193902542D01*
X77598895Y-193807304D01*
X77551276Y-193616828D01*
X77551276Y-193378733D01*
X77598895Y-193188257D01*
X77646514Y-193093019D01*
X77694133Y-193045400D01*
X77789371Y-192997780D01*
X319232514Y-174947780D02*
X319232514Y-173947780D01*
X319803942Y-174947780D02*
X319375371Y-174376352D01*
X319803942Y-173947780D02*
X319232514Y-174519209D01*
X320375371Y-174376352D02*
X320280133Y-174328733D01*
X320232514Y-174281114D01*
X320184895Y-174185876D01*
X320184895Y-174138257D01*
X320232514Y-174043019D01*
X320280133Y-173995400D01*
X320375371Y-173947780D01*
X320565847Y-173947780D01*
X320661085Y-173995400D01*
X320708704Y-174043019D01*
X320756323Y-174138257D01*
X320756323Y-174185876D01*
X320708704Y-174281114D01*
X320661085Y-174328733D01*
X320565847Y-174376352D01*
X320375371Y-174376352D01*
X320280133Y-174423971D01*
X320232514Y-174471590D01*
X320184895Y-174566828D01*
X320184895Y-174757304D01*
X320232514Y-174852542D01*
X320280133Y-174900161D01*
X320375371Y-174947780D01*
X320565847Y-174947780D01*
X320661085Y-174900161D01*
X320708704Y-174852542D01*
X320756323Y-174757304D01*
X320756323Y-174566828D01*
X320708704Y-174471590D01*
X320661085Y-174423971D01*
X320565847Y-174376352D01*
X321137276Y-174043019D02*
X321184895Y-173995400D01*
X321280133Y-173947780D01*
X321518228Y-173947780D01*
X321613466Y-173995400D01*
X321661085Y-174043019D01*
X321708704Y-174138257D01*
X321708704Y-174233495D01*
X321661085Y-174376352D01*
X321089657Y-174947780D01*
X321708704Y-174947780D01*
X61930514Y-155897780D02*
X61930514Y-154897780D01*
X62501942Y-155897780D02*
X62073371Y-155326352D01*
X62501942Y-154897780D02*
X61930514Y-155469209D01*
X63406704Y-154897780D02*
X62930514Y-154897780D01*
X62882895Y-155373971D01*
X62930514Y-155326352D01*
X63025752Y-155278733D01*
X63263847Y-155278733D01*
X63359085Y-155326352D01*
X63406704Y-155373971D01*
X63454323Y-155469209D01*
X63454323Y-155707304D01*
X63406704Y-155802542D01*
X63359085Y-155850161D01*
X63263847Y-155897780D01*
X63025752Y-155897780D01*
X62930514Y-155850161D01*
X62882895Y-155802542D01*
X64406704Y-155897780D02*
X63835276Y-155897780D01*
X64120990Y-155897780D02*
X64120990Y-154897780D01*
X64025752Y-155040638D01*
X63930514Y-155135876D01*
X63835276Y-155183495D01*
X111968514Y-174947780D02*
X111968514Y-173947780D01*
X112539942Y-174947780D02*
X112111371Y-174376352D01*
X112539942Y-173947780D02*
X111968514Y-174519209D01*
X112873276Y-173947780D02*
X113539942Y-173947780D01*
X113111371Y-174947780D01*
X113873276Y-174043019D02*
X113920895Y-173995400D01*
X114016133Y-173947780D01*
X114254228Y-173947780D01*
X114349466Y-173995400D01*
X114397085Y-174043019D01*
X114444704Y-174138257D01*
X114444704Y-174233495D01*
X114397085Y-174376352D01*
X113825657Y-174947780D01*
X114444704Y-174947780D01*
X131018514Y-174947780D02*
X131018514Y-173947780D01*
X131589942Y-174947780D02*
X131161371Y-174376352D01*
X131589942Y-173947780D02*
X131018514Y-174519209D01*
X131923276Y-173947780D02*
X132589942Y-173947780D01*
X132161371Y-174947780D01*
X132875657Y-173947780D02*
X133494704Y-173947780D01*
X133161371Y-174328733D01*
X133304228Y-174328733D01*
X133399466Y-174376352D01*
X133447085Y-174423971D01*
X133494704Y-174519209D01*
X133494704Y-174757304D01*
X133447085Y-174852542D01*
X133399466Y-174900161D01*
X133304228Y-174947780D01*
X133018514Y-174947780D01*
X132923276Y-174900161D01*
X132875657Y-174852542D01*
X226268514Y-174947780D02*
X226268514Y-173947780D01*
X226839942Y-174947780D02*
X226411371Y-174376352D01*
X226839942Y-173947780D02*
X226268514Y-174519209D01*
X227173276Y-173947780D02*
X227839942Y-173947780D01*
X227411371Y-174947780D01*
X228363752Y-174376352D02*
X228268514Y-174328733D01*
X228220895Y-174281114D01*
X228173276Y-174185876D01*
X228173276Y-174138257D01*
X228220895Y-174043019D01*
X228268514Y-173995400D01*
X228363752Y-173947780D01*
X228554228Y-173947780D01*
X228649466Y-173995400D01*
X228697085Y-174043019D01*
X228744704Y-174138257D01*
X228744704Y-174185876D01*
X228697085Y-174281114D01*
X228649466Y-174328733D01*
X228554228Y-174376352D01*
X228363752Y-174376352D01*
X228268514Y-174423971D01*
X228220895Y-174471590D01*
X228173276Y-174566828D01*
X228173276Y-174757304D01*
X228220895Y-174852542D01*
X228268514Y-174900161D01*
X228363752Y-174947780D01*
X228554228Y-174947780D01*
X228649466Y-174900161D01*
X228697085Y-174852542D01*
X228744704Y-174757304D01*
X228744704Y-174566828D01*
X228697085Y-174471590D01*
X228649466Y-174423971D01*
X228554228Y-174376352D01*
X264362514Y-174969780D02*
X264362514Y-173969780D01*
X264933942Y-174969780D02*
X264505371Y-174398352D01*
X264933942Y-173969780D02*
X264362514Y-174541209D01*
X265505371Y-174398352D02*
X265410133Y-174350733D01*
X265362514Y-174303114D01*
X265314895Y-174207876D01*
X265314895Y-174160257D01*
X265362514Y-174065019D01*
X265410133Y-174017400D01*
X265505371Y-173969780D01*
X265695847Y-173969780D01*
X265791085Y-174017400D01*
X265838704Y-174065019D01*
X265886323Y-174160257D01*
X265886323Y-174207876D01*
X265838704Y-174303114D01*
X265791085Y-174350733D01*
X265695847Y-174398352D01*
X265505371Y-174398352D01*
X265410133Y-174445971D01*
X265362514Y-174493590D01*
X265314895Y-174588828D01*
X265314895Y-174779304D01*
X265362514Y-174874542D01*
X265410133Y-174922161D01*
X265505371Y-174969780D01*
X265695847Y-174969780D01*
X265791085Y-174922161D01*
X265838704Y-174874542D01*
X265886323Y-174779304D01*
X265886323Y-174588828D01*
X265838704Y-174493590D01*
X265791085Y-174445971D01*
X265695847Y-174398352D01*
X266505371Y-173969780D02*
X266600609Y-173969780D01*
X266695847Y-174017400D01*
X266743466Y-174065019D01*
X266791085Y-174160257D01*
X266838704Y-174350733D01*
X266838704Y-174588828D01*
X266791085Y-174779304D01*
X266743466Y-174874542D01*
X266695847Y-174922161D01*
X266600609Y-174969780D01*
X266505371Y-174969780D01*
X266410133Y-174922161D01*
X266362514Y-174874542D01*
X266314895Y-174779304D01*
X266267276Y-174588828D01*
X266267276Y-174350733D01*
X266314895Y-174160257D01*
X266362514Y-174065019D01*
X266410133Y-174017400D01*
X266505371Y-173969780D01*
X188168514Y-174947780D02*
X188168514Y-173947780D01*
X188739942Y-174947780D02*
X188311371Y-174376352D01*
X188739942Y-173947780D02*
X188168514Y-174519209D01*
X189073276Y-173947780D02*
X189739942Y-173947780D01*
X189311371Y-174947780D01*
X190549466Y-173947780D02*
X190358990Y-173947780D01*
X190263752Y-173995400D01*
X190216133Y-174043019D01*
X190120895Y-174185876D01*
X190073276Y-174376352D01*
X190073276Y-174757304D01*
X190120895Y-174852542D01*
X190168514Y-174900161D01*
X190263752Y-174947780D01*
X190454228Y-174947780D01*
X190549466Y-174900161D01*
X190597085Y-174852542D01*
X190644704Y-174757304D01*
X190644704Y-174519209D01*
X190597085Y-174423971D01*
X190549466Y-174376352D01*
X190454228Y-174328733D01*
X190263752Y-174328733D01*
X190168514Y-174376352D01*
X190120895Y-174423971D01*
X190073276Y-174519209D01*
X92918514Y-174947780D02*
X92918514Y-173947780D01*
X93489942Y-174947780D02*
X93061371Y-174376352D01*
X93489942Y-173947780D02*
X92918514Y-174519209D01*
X93823276Y-173947780D02*
X94489942Y-173947780D01*
X94061371Y-174947780D01*
X95394704Y-174947780D02*
X94823276Y-174947780D01*
X95108990Y-174947780D02*
X95108990Y-173947780D01*
X95013752Y-174090638D01*
X94918514Y-174185876D01*
X94823276Y-174233495D01*
X283418514Y-174947780D02*
X283418514Y-173947780D01*
X283989942Y-174947780D02*
X283561371Y-174376352D01*
X283989942Y-173947780D02*
X283418514Y-174519209D01*
X284561371Y-174376352D02*
X284466133Y-174328733D01*
X284418514Y-174281114D01*
X284370895Y-174185876D01*
X284370895Y-174138257D01*
X284418514Y-174043019D01*
X284466133Y-173995400D01*
X284561371Y-173947780D01*
X284751847Y-173947780D01*
X284847085Y-173995400D01*
X284894704Y-174043019D01*
X284942323Y-174138257D01*
X284942323Y-174185876D01*
X284894704Y-174281114D01*
X284847085Y-174328733D01*
X284751847Y-174376352D01*
X284561371Y-174376352D01*
X284466133Y-174423971D01*
X284418514Y-174471590D01*
X284370895Y-174566828D01*
X284370895Y-174757304D01*
X284418514Y-174852542D01*
X284466133Y-174900161D01*
X284561371Y-174947780D01*
X284751847Y-174947780D01*
X284847085Y-174900161D01*
X284894704Y-174852542D01*
X284942323Y-174757304D01*
X284942323Y-174566828D01*
X284894704Y-174471590D01*
X284847085Y-174423971D01*
X284751847Y-174376352D01*
X285894704Y-174947780D02*
X285323276Y-174947780D01*
X285608990Y-174947780D02*
X285608990Y-173947780D01*
X285513752Y-174090638D01*
X285418514Y-174185876D01*
X285323276Y-174233495D01*
X245322514Y-174949780D02*
X245322514Y-173949780D01*
X245893942Y-174949780D02*
X245465371Y-174378352D01*
X245893942Y-173949780D02*
X245322514Y-174521209D01*
X246227276Y-173949780D02*
X246893942Y-173949780D01*
X246465371Y-174949780D01*
X247322514Y-174949780D02*
X247512990Y-174949780D01*
X247608228Y-174902161D01*
X247655847Y-174854542D01*
X247751085Y-174711685D01*
X247798704Y-174521209D01*
X247798704Y-174140257D01*
X247751085Y-174045019D01*
X247703466Y-173997400D01*
X247608228Y-173949780D01*
X247417752Y-173949780D01*
X247322514Y-173997400D01*
X247274895Y-174045019D01*
X247227276Y-174140257D01*
X247227276Y-174378352D01*
X247274895Y-174473590D01*
X247322514Y-174521209D01*
X247417752Y-174568828D01*
X247608228Y-174568828D01*
X247703466Y-174521209D01*
X247751085Y-174473590D01*
X247798704Y-174378352D01*
X150068514Y-174947780D02*
X150068514Y-173947780D01*
X150639942Y-174947780D02*
X150211371Y-174376352D01*
X150639942Y-173947780D02*
X150068514Y-174519209D01*
X150973276Y-173947780D02*
X151639942Y-173947780D01*
X151211371Y-174947780D01*
X152449466Y-174281114D02*
X152449466Y-174947780D01*
X152211371Y-173900161D02*
X151973276Y-174614447D01*
X152592323Y-174614447D01*
X169118514Y-174947780D02*
X169118514Y-173947780D01*
X169689942Y-174947780D02*
X169261371Y-174376352D01*
X169689942Y-173947780D02*
X169118514Y-174519209D01*
X170023276Y-173947780D02*
X170689942Y-173947780D01*
X170261371Y-174947780D01*
X171547085Y-173947780D02*
X171070895Y-173947780D01*
X171023276Y-174423971D01*
X171070895Y-174376352D01*
X171166133Y-174328733D01*
X171404228Y-174328733D01*
X171499466Y-174376352D01*
X171547085Y-174423971D01*
X171594704Y-174519209D01*
X171594704Y-174757304D01*
X171547085Y-174852542D01*
X171499466Y-174900161D01*
X171404228Y-174947780D01*
X171166133Y-174947780D01*
X171070895Y-174900161D01*
X171023276Y-174852542D01*
X207218514Y-174947780D02*
X207218514Y-173947780D01*
X207789942Y-174947780D02*
X207361371Y-174376352D01*
X207789942Y-173947780D02*
X207218514Y-174519209D01*
X208123276Y-173947780D02*
X208789942Y-173947780D01*
X208361371Y-174947780D01*
X209075657Y-173947780D02*
X209742323Y-173947780D01*
X209313752Y-174947780D01*
X51333800Y-95136600D02*
X51333800Y-76086600D01*
X70383800Y-95136600D02*
X51333800Y-95136600D01*
X51333800Y-76086600D02*
X70383800Y-76086600D01*
X70383800Y-76086600D02*
X70383800Y-95136600D01*
X103803450Y-75971400D02*
X103803450Y-95021400D01*
X79990950Y-95021400D02*
X103803450Y-95021400D01*
X79990950Y-95021400D02*
X79990950Y-75971400D01*
X79990950Y-75971400D02*
X103803450Y-75971400D01*
X103816550Y-95108600D02*
X127629050Y-95108600D01*
X103816550Y-76058600D02*
X127629050Y-76058600D01*
X103816550Y-95108600D02*
X103816550Y-76058600D01*
X127629050Y-76058600D02*
X127629050Y-95108600D01*
X151505050Y-76086600D02*
X151505050Y-95136600D01*
X127692550Y-95136600D02*
X151505050Y-95136600D01*
X127692550Y-76086600D02*
X151505050Y-76086600D01*
X127692550Y-95136600D02*
X127692550Y-76086600D01*
X151568550Y-95108600D02*
X175381050Y-95108600D01*
X151568550Y-76058600D02*
X175381050Y-76058600D01*
X151568550Y-95108600D02*
X151568550Y-76058600D01*
X175381050Y-76058600D02*
X175381050Y-95108600D01*
X175444550Y-95108600D02*
X199257050Y-95108600D01*
X175444550Y-95108600D02*
X175444550Y-76058600D01*
X175444550Y-76058600D02*
X199257050Y-76058600D01*
X199257050Y-76058600D02*
X199257050Y-95108600D01*
X207956550Y-94882600D02*
X207956550Y-75832600D01*
X231769050Y-75832600D02*
X231769050Y-94882600D01*
X207956550Y-75832600D02*
X231769050Y-75832600D01*
X207956550Y-94882600D02*
X231769050Y-94882600D01*
X231832550Y-75832600D02*
X255645050Y-75832600D01*
X231832550Y-94882600D02*
X255645050Y-94882600D01*
X231832550Y-94882600D02*
X231832550Y-75832600D01*
X255645050Y-75832600D02*
X255645050Y-94882600D01*
X255708550Y-94882600D02*
X279521050Y-94882600D01*
X255708550Y-75832600D02*
X279521050Y-75832600D01*
X279521050Y-75832600D02*
X279521050Y-94882600D01*
X255708550Y-94882600D02*
X255708550Y-75832600D01*
X279584550Y-94882600D02*
X279584550Y-75832600D01*
X303397050Y-75832600D02*
X303397050Y-94882600D01*
X279584550Y-94882600D02*
X303397050Y-94882600D01*
X279584550Y-75832600D02*
X303397050Y-75832600D01*
X327273050Y-75832600D02*
X327273050Y-94882600D01*
X303460550Y-94882600D02*
X303460550Y-75832600D01*
X303460550Y-75832600D02*
X327273050Y-75832600D01*
X303460550Y-94882600D02*
X327273050Y-94882600D01*
X383845500Y-104580600D02*
X383845500Y-123630600D01*
X355270500Y-104580600D02*
X383845500Y-104580600D01*
X355270500Y-123630600D02*
X355270500Y-104580600D01*
X355270500Y-123630600D02*
X383845500Y-123630600D01*
X441083800Y-104547000D02*
X441083800Y-123597000D01*
X441083800Y-123597000D02*
X422033800Y-123597000D01*
X422033800Y-104547000D02*
X441083800Y-104547000D01*
X422033800Y-123597000D02*
X422033800Y-104547000D01*
X441083800Y-104547000D02*
X460133800Y-104547000D01*
X460133800Y-123597000D02*
X441083800Y-123597000D01*
X460133800Y-104547000D02*
X460133800Y-123597000D01*
X441083800Y-123597000D02*
X441083800Y-104547000D01*
X460133800Y-123597000D02*
X460133800Y-104547000D01*
X479183800Y-123597000D02*
X460133800Y-123597000D01*
X460133800Y-104547000D02*
X479183800Y-104547000D01*
X479183800Y-104547000D02*
X479183800Y-123597000D01*
X498233800Y-123597000D02*
X479183800Y-123597000D01*
X479183800Y-123597000D02*
X479183800Y-104547000D01*
X479183800Y-104547000D02*
X498233800Y-104547000D01*
X498233800Y-104547000D02*
X498233800Y-123597000D01*
X441083800Y-142647000D02*
X422033800Y-142647000D01*
X422033800Y-142647000D02*
X422033800Y-123597000D01*
X441083800Y-123597000D02*
X441083800Y-142647000D01*
X422033800Y-123597000D02*
X441083800Y-123597000D01*
X460133800Y-142647000D02*
X441083800Y-142647000D01*
X441083800Y-123597000D02*
X460133800Y-123597000D01*
X441083800Y-142647000D02*
X441083800Y-123597000D01*
X460133800Y-123597000D02*
X460133800Y-142647000D01*
X460133800Y-142647000D02*
X460133800Y-123597000D01*
X479183800Y-123597000D02*
X479183800Y-142647000D01*
X479183800Y-142647000D02*
X460133800Y-142647000D01*
X460133800Y-123597000D02*
X479183800Y-123597000D01*
X479183800Y-142647000D02*
X479183800Y-123597000D01*
X479183800Y-123597000D02*
X498233800Y-123597000D01*
X498233800Y-142647000D02*
X479183800Y-142647000D01*
X498233800Y-123597000D02*
X498233800Y-142647000D01*
X393405000Y-161744600D02*
X374355000Y-161744600D01*
X374355000Y-142694600D02*
X393405000Y-142694600D01*
X393405000Y-142694600D02*
X393405000Y-161744600D01*
X374355000Y-161744600D02*
X374355000Y-142694600D01*
X441083800Y-142647000D02*
X441083800Y-161697000D01*
X441083800Y-161697000D02*
X422033800Y-161697000D01*
X422033800Y-161697000D02*
X422033800Y-142647000D01*
X422033800Y-142647000D02*
X441083800Y-142647000D01*
X460133800Y-142647000D02*
X460133800Y-161697000D01*
X441083800Y-142647000D02*
X460133800Y-142647000D01*
X460133800Y-161697000D02*
X441083800Y-161697000D01*
X441083800Y-161697000D02*
X441083800Y-142647000D01*
X479183800Y-161697000D02*
X460133800Y-161697000D01*
X479183800Y-142647000D02*
X479183800Y-161697000D01*
X460133800Y-161697000D02*
X460133800Y-142647000D01*
X460133800Y-142647000D02*
X479183800Y-142647000D01*
X498233800Y-142647000D02*
X498233800Y-161697000D01*
X479183800Y-142647000D02*
X498233800Y-142647000D01*
X498233800Y-161697000D02*
X479183800Y-161697000D01*
X479183800Y-161697000D02*
X479183800Y-142647000D01*
X355305000Y-180794600D02*
X355305000Y-161744600D01*
X374355000Y-161744600D02*
X374355000Y-180794600D01*
X374355000Y-180794600D02*
X355305000Y-180794600D01*
X355305000Y-161744600D02*
X374355000Y-161744600D01*
X393405000Y-161744600D02*
X393405000Y-180794600D01*
X374355000Y-180794600D02*
X374355000Y-161744600D01*
X374355000Y-161744600D02*
X393405000Y-161744600D01*
X393405000Y-180794600D02*
X374355000Y-180794600D01*
X393405000Y-161744600D02*
X412455000Y-161744600D01*
X412455000Y-161744600D02*
X412455000Y-180794600D01*
X393405000Y-180794600D02*
X393405000Y-161744600D01*
X412455000Y-180794600D02*
X393405000Y-180794600D01*
X441083800Y-180747000D02*
X422033800Y-180747000D01*
X422033800Y-161697000D02*
X441083800Y-161697000D01*
X441083800Y-161697000D02*
X441083800Y-180747000D01*
X422033800Y-180747000D02*
X422033800Y-161697000D01*
X460133800Y-161697000D02*
X460133800Y-180747000D01*
X441083800Y-180747000D02*
X441083800Y-161697000D01*
X441083800Y-161697000D02*
X460133800Y-161697000D01*
X460133800Y-180747000D02*
X441083800Y-180747000D01*
X479183800Y-180747000D02*
X460133800Y-180747000D01*
X460133800Y-180747000D02*
X460133800Y-161697000D01*
X460133800Y-161697000D02*
X479183800Y-161697000D01*
X479183800Y-161697000D02*
X479183800Y-180747000D01*
X498233800Y-161724000D02*
X498233800Y-199824000D01*
X479183800Y-161724000D02*
X479183800Y-199824000D01*
X479183800Y-161724000D02*
X498233800Y-161724000D01*
X498233800Y-199824000D02*
X479183800Y-199824000D01*
X422160800Y-199797000D02*
X422160800Y-180747000D01*
X460260800Y-180747000D02*
X422160800Y-180747000D01*
X460260800Y-180747000D02*
X460260800Y-199797000D01*
X460260800Y-199797000D02*
X422160800Y-199797000D01*
X460133800Y-199797000D02*
X460133800Y-180747000D01*
X479183800Y-199797000D02*
X460133800Y-199797000D01*
X479183800Y-180747000D02*
X479183800Y-199797000D01*
X460133800Y-180747000D02*
X479183800Y-180747000D01*
X412441500Y-104580600D02*
X412441500Y-123630600D01*
X383866500Y-123630600D02*
X412441500Y-123630600D01*
X383866500Y-123630600D02*
X383866500Y-104580600D01*
X383866500Y-104580600D02*
X412441500Y-104580600D01*
X51206800Y-142745400D02*
X89306800Y-142745400D01*
X89306800Y-123695400D02*
X89306800Y-142745400D01*
X51206800Y-123695400D02*
X89306800Y-123695400D01*
X51206800Y-142745400D02*
X51206800Y-123695400D01*
X264947800Y-199895400D02*
X131597800Y-199895400D01*
X264947800Y-180845400D02*
X264947800Y-199895400D01*
X264947800Y-180845400D02*
X131597800Y-180845400D01*
X131597800Y-199895400D02*
X131597800Y-180845400D01*
X136931800Y-123695400D02*
X136931800Y-104645400D01*
X136931800Y-104645400D02*
X155981800Y-104645400D01*
X155981800Y-104645400D02*
X155981800Y-123695400D01*
X155981800Y-123695400D02*
X136931800Y-123695400D01*
X79781800Y-123695400D02*
X79781800Y-104645400D01*
X79781800Y-104645400D02*
X98831800Y-104645400D01*
X98831800Y-104645400D02*
X98831800Y-123695400D01*
X98831800Y-123695400D02*
X79781800Y-123695400D01*
X232181800Y-104645400D02*
X251231800Y-104645400D01*
X251231800Y-123695400D02*
X232181800Y-123695400D01*
X232181800Y-123695400D02*
X232181800Y-104645400D01*
X251231800Y-104645400D02*
X251231800Y-123695400D01*
X194081800Y-123695400D02*
X194081800Y-104645400D01*
X213131800Y-123695400D02*
X194081800Y-123695400D01*
X194081800Y-104645400D02*
X213131800Y-104645400D01*
X213131800Y-104645400D02*
X213131800Y-123695400D01*
X117881800Y-104645400D02*
X117881800Y-123695400D01*
X98831800Y-123695400D02*
X98831800Y-104645400D01*
X117881800Y-123695400D02*
X98831800Y-123695400D01*
X98831800Y-104645400D02*
X117881800Y-104645400D01*
X289331800Y-123695400D02*
X270281800Y-123695400D01*
X270281800Y-123695400D02*
X270281800Y-104645400D01*
X270281800Y-104645400D02*
X289331800Y-104645400D01*
X289331800Y-104645400D02*
X289331800Y-123695400D01*
X155981800Y-123695400D02*
X155981800Y-104645400D01*
X175031800Y-123695400D02*
X155981800Y-123695400D01*
X175031800Y-104645400D02*
X175031800Y-123695400D01*
X155981800Y-104645400D02*
X175031800Y-104645400D01*
X232181800Y-104645400D02*
X232181800Y-123695400D01*
X232181800Y-123695400D02*
X213131800Y-123695400D01*
X213131800Y-104645400D02*
X232181800Y-104645400D01*
X213131800Y-123695400D02*
X213131800Y-104645400D01*
X175031800Y-123695400D02*
X175031800Y-104645400D01*
X194081800Y-123695400D02*
X175031800Y-123695400D01*
X175031800Y-104645400D02*
X194081800Y-104645400D01*
X194081800Y-104645400D02*
X194081800Y-123695400D01*
X117881800Y-104645400D02*
X136931800Y-104645400D01*
X117881800Y-123695400D02*
X117881800Y-104645400D01*
X136931800Y-104645400D02*
X136931800Y-123695400D01*
X136931800Y-123695400D02*
X117881800Y-123695400D01*
X322764550Y-142872400D02*
X318002050Y-142872400D01*
X322764550Y-161922400D02*
X322764550Y-142872400D01*
X322764550Y-161922400D02*
X346577050Y-161922400D01*
X318002050Y-123822400D02*
X318002050Y-142872400D01*
X346577050Y-123822400D02*
X346577050Y-161922400D01*
X318002050Y-123822400D02*
X346577050Y-123822400D01*
X246405800Y-142745400D02*
X246405800Y-161795400D01*
X227355800Y-142745400D02*
X246405800Y-142745400D01*
X246405800Y-161795400D02*
X227355800Y-161795400D01*
X227355800Y-161795400D02*
X227355800Y-142745400D01*
X251231800Y-123695400D02*
X251231800Y-104645400D01*
X270281800Y-104645400D02*
X270281800Y-123695400D01*
X270281800Y-123695400D02*
X251231800Y-123695400D01*
X251231800Y-104645400D02*
X270281800Y-104645400D01*
X94005800Y-142745400D02*
X113055800Y-142745400D01*
X94005800Y-161795400D02*
X94005800Y-142745400D01*
X113055800Y-142745400D02*
X113055800Y-161795400D01*
X113055800Y-161795400D02*
X94005800Y-161795400D01*
X113055800Y-161795400D02*
X113055800Y-142745400D01*
X113055800Y-142745400D02*
X132105800Y-142745400D01*
X132105800Y-161795400D02*
X113055800Y-161795400D01*
X132105800Y-142745400D02*
X132105800Y-161795400D01*
X303809800Y-142745400D02*
X322859800Y-142745400D01*
X303809800Y-161795400D02*
X303809800Y-142745400D01*
X322859800Y-142745400D02*
X322859800Y-161795400D01*
X322859800Y-161795400D02*
X303809800Y-161795400D01*
X189255800Y-142745400D02*
X208305800Y-142745400D01*
X208305800Y-142745400D02*
X208305800Y-161795400D01*
X208305800Y-161795400D02*
X189255800Y-161795400D01*
X189255800Y-161795400D02*
X189255800Y-142745400D01*
X227355800Y-142745400D02*
X227355800Y-161795400D01*
X227355800Y-161795400D02*
X208305800Y-161795400D01*
X208305800Y-161795400D02*
X208305800Y-142745400D01*
X208305800Y-142745400D02*
X227355800Y-142745400D01*
X298729800Y-123695400D02*
X317779800Y-123695400D01*
X317779800Y-142745400D02*
X298729800Y-142745400D01*
X298729800Y-142745400D02*
X298729800Y-123695400D01*
X317779800Y-123695400D02*
X317779800Y-142745400D01*
X284759800Y-161795400D02*
X284759800Y-142745400D01*
X303809800Y-161795400D02*
X284759800Y-161795400D01*
X303809800Y-142745400D02*
X303809800Y-161795400D01*
X284759800Y-142745400D02*
X303809800Y-142745400D01*
X284759800Y-142745400D02*
X284759800Y-161795400D01*
X265709800Y-142745400D02*
X284759800Y-142745400D01*
X265709800Y-161795400D02*
X265709800Y-142745400D01*
X284759800Y-161795400D02*
X265709800Y-161795400D01*
X151155800Y-142745400D02*
X151155800Y-161795400D01*
X151155800Y-161795400D02*
X132105800Y-161795400D01*
X132105800Y-161795400D02*
X132105800Y-142745400D01*
X132105800Y-142745400D02*
X151155800Y-142745400D01*
X265455800Y-142745400D02*
X265455800Y-161795400D01*
X246405800Y-142745400D02*
X265455800Y-142745400D01*
X246405800Y-161795400D02*
X246405800Y-142745400D01*
X265455800Y-161795400D02*
X246405800Y-161795400D01*
X170205800Y-161795400D02*
X170205800Y-142745400D01*
X189255800Y-161795400D02*
X170205800Y-161795400D01*
X170205800Y-142745400D02*
X189255800Y-142745400D01*
X189255800Y-142745400D02*
X189255800Y-161795400D01*
X170205800Y-142745400D02*
X170205800Y-161795400D01*
X170205800Y-161795400D02*
X151155800Y-161795400D01*
X151155800Y-142745400D02*
X170205800Y-142745400D01*
X151155800Y-161795400D02*
X151155800Y-142745400D01*
X108229800Y-123695400D02*
X108229800Y-142745400D01*
X108229800Y-142745400D02*
X89179800Y-142745400D01*
X89179800Y-142745400D02*
X89179800Y-123695400D01*
X89179800Y-123695400D02*
X108229800Y-123695400D01*
X222529800Y-123695400D02*
X222529800Y-142745400D01*
X203479800Y-142745400D02*
X203479800Y-123695400D01*
X222529800Y-142745400D02*
X203479800Y-142745400D01*
X203479800Y-123695400D02*
X222529800Y-123695400D01*
X184429800Y-123695400D02*
X203479800Y-123695400D01*
X203479800Y-142745400D02*
X184429800Y-142745400D01*
X184429800Y-142745400D02*
X184429800Y-123695400D01*
X203479800Y-123695400D02*
X203479800Y-142745400D01*
X260629800Y-142745400D02*
X241579800Y-142745400D01*
X241579800Y-123695400D02*
X260629800Y-123695400D01*
X241579800Y-142745400D02*
X241579800Y-123695400D01*
X260629800Y-123695400D02*
X260629800Y-142745400D01*
X327431800Y-123695400D02*
X327431800Y-104645400D01*
X346481800Y-123695400D02*
X327431800Y-123695400D01*
X327431800Y-104645400D02*
X346481800Y-104645400D01*
X346481800Y-104645400D02*
X346481800Y-123695400D01*
X127279800Y-123695400D02*
X146329800Y-123695400D01*
X146329800Y-142745400D02*
X127279800Y-142745400D01*
X146329800Y-123695400D02*
X146329800Y-142745400D01*
X127279800Y-142745400D02*
X127279800Y-123695400D01*
X327431800Y-123695400D02*
X308381800Y-123695400D01*
X308381800Y-123695400D02*
X308381800Y-104645400D01*
X308381800Y-104645400D02*
X327431800Y-104645400D01*
X327431800Y-104645400D02*
X327431800Y-123695400D01*
X279679800Y-123695400D02*
X298729800Y-123695400D01*
X298729800Y-142745400D02*
X279679800Y-142745400D01*
X279679800Y-142745400D02*
X279679800Y-123695400D01*
X298729800Y-123695400D02*
X298729800Y-142745400D01*
X241579800Y-142745400D02*
X222529800Y-142745400D01*
X241579800Y-123695400D02*
X241579800Y-142745400D01*
X222529800Y-123695400D02*
X241579800Y-123695400D01*
X222529800Y-142745400D02*
X222529800Y-123695400D01*
X127279800Y-142745400D02*
X108229800Y-142745400D01*
X127279800Y-123695400D02*
X127279800Y-142745400D01*
X108229800Y-123695400D02*
X127279800Y-123695400D01*
X108229800Y-142745400D02*
X108229800Y-123695400D01*
X165379800Y-123774200D02*
X184429800Y-123774200D01*
X184429800Y-123774200D02*
X184429800Y-142824200D01*
X165379800Y-142824200D02*
X165379800Y-123774200D01*
X184429800Y-142824200D02*
X165379800Y-142824200D01*
X289331800Y-123695400D02*
X289331800Y-104645400D01*
X308381800Y-104645400D02*
X308381800Y-123695400D01*
X289331800Y-104645400D02*
X308381800Y-104645400D01*
X308381800Y-123695400D02*
X289331800Y-123695400D01*
X165379800Y-142745400D02*
X146329800Y-142745400D01*
X146329800Y-142745400D02*
X146329800Y-123695400D01*
X146329800Y-123695400D02*
X165379800Y-123695400D01*
X165379800Y-123695400D02*
X165379800Y-142745400D01*
X260629800Y-123695400D02*
X279679800Y-123695400D01*
X279679800Y-123695400D02*
X279679800Y-142745400D01*
X279679800Y-142745400D02*
X260629800Y-142745400D01*
X260629800Y-142745400D02*
X260629800Y-123695400D01*
X331845050Y-180845400D02*
X331845050Y-199895400D01*
X308032550Y-199895400D02*
X308032550Y-180845400D01*
X308032550Y-199895400D02*
X331845050Y-199895400D01*
X308032550Y-180845400D02*
X331845050Y-180845400D01*
X88830550Y-180845400D02*
X112643050Y-180845400D01*
X88830550Y-199895400D02*
X88830550Y-180845400D01*
X112643050Y-180845400D02*
X112643050Y-199895400D01*
X88830550Y-199895400D02*
X112643050Y-199895400D01*
X284156550Y-199895400D02*
X307969050Y-199895400D01*
X307969050Y-180845400D02*
X307969050Y-199895400D01*
X284156550Y-199895400D02*
X284156550Y-180845400D01*
X284156550Y-180845400D02*
X307969050Y-180845400D01*
X51302050Y-180845400D02*
X84639550Y-180845400D01*
X51302050Y-180845400D02*
X51302050Y-161795400D01*
X84639550Y-161795400D02*
X84639550Y-180845400D01*
X51302050Y-161795400D02*
X84639550Y-161795400D01*
X74955800Y-142745400D02*
X94005800Y-142745400D01*
X94005800Y-161795400D02*
X74955800Y-161795400D01*
X94005800Y-142745400D02*
X94005800Y-161795400D01*
X74955800Y-161795400D02*
X74955800Y-142745400D01*
X79816300Y-104645400D02*
X79816300Y-123695400D01*
X51241300Y-123695400D02*
X51241300Y-104645400D01*
X51241300Y-104645400D02*
X79816300Y-104645400D01*
X51241300Y-123695400D02*
X79816300Y-123695400D01*
X64954550Y-199895400D02*
X88767050Y-199895400D01*
X64954550Y-180845400D02*
X88767050Y-180845400D01*
X88767050Y-180845400D02*
X88767050Y-199895400D01*
X64954550Y-199895400D02*
X64954550Y-180845400D01*
X294253050Y-180845400D02*
X346640550Y-180845400D01*
X294253050Y-161795400D02*
X346640550Y-161795400D01*
X346640550Y-161795400D02*
X346640550Y-180845400D01*
X294253050Y-180845400D02*
X294253050Y-161795400D01*
X51238550Y-161795400D02*
X51238550Y-142745400D01*
X75051050Y-142745400D02*
X75051050Y-161795400D01*
X51238550Y-142745400D02*
X75051050Y-142745400D01*
X51238550Y-161795400D02*
X75051050Y-161795400D01*
X103657800Y-180845400D02*
X103657800Y-161795400D01*
X103657800Y-161795400D02*
X122707800Y-161795400D01*
X122707800Y-161795400D02*
X122707800Y-180845400D01*
X122707800Y-180845400D02*
X103657800Y-180845400D01*
X141757800Y-180845400D02*
X122707800Y-180845400D01*
X122707800Y-180845400D02*
X122707800Y-161795400D01*
X122707800Y-161795400D02*
X141757800Y-161795400D01*
X141757800Y-161795400D02*
X141757800Y-180845400D01*
X237007800Y-161795400D02*
X237007800Y-180845400D01*
X217957800Y-180845400D02*
X217957800Y-161795400D01*
X217957800Y-161795400D02*
X237007800Y-161795400D01*
X237007800Y-180845400D02*
X217957800Y-180845400D01*
X275101800Y-161817400D02*
X275101800Y-180867400D01*
X256051800Y-180867400D02*
X256051800Y-161817400D01*
X256051800Y-161817400D02*
X275101800Y-161817400D01*
X275101800Y-180867400D02*
X256051800Y-180867400D01*
X179857800Y-180845400D02*
X179857800Y-161795400D01*
X198907800Y-180845400D02*
X179857800Y-180845400D01*
X179857800Y-161795400D02*
X198907800Y-161795400D01*
X198907800Y-161795400D02*
X198907800Y-180845400D01*
X84607800Y-161795400D02*
X103657800Y-161795400D01*
X103657800Y-161795400D02*
X103657800Y-180845400D01*
X103657800Y-180845400D02*
X84607800Y-180845400D01*
X84607800Y-180845400D02*
X84607800Y-161795400D01*
X294157800Y-180845400D02*
X275107800Y-180845400D01*
X275107800Y-180845400D02*
X275107800Y-161795400D01*
X275107800Y-161795400D02*
X294157800Y-161795400D01*
X294157800Y-161795400D02*
X294157800Y-180845400D01*
X256061800Y-161797400D02*
X256061800Y-180847400D01*
X256061800Y-180847400D02*
X237011800Y-180847400D01*
X237011800Y-161797400D02*
X256061800Y-161797400D01*
X237011800Y-180847400D02*
X237011800Y-161797400D01*
X160807800Y-161795400D02*
X160807800Y-180845400D01*
X141757800Y-161795400D02*
X160807800Y-161795400D01*
X160807800Y-180845400D02*
X141757800Y-180845400D01*
X141757800Y-180845400D02*
X141757800Y-161795400D01*
X179857800Y-180845400D02*
X160807800Y-180845400D01*
X160807800Y-161795400D02*
X179857800Y-161795400D01*
X179857800Y-161795400D02*
X179857800Y-180845400D01*
X160807800Y-180845400D02*
X160807800Y-161795400D01*
X217957800Y-180845400D02*
X198907800Y-180845400D01*
X198907800Y-161795400D02*
X217957800Y-161795400D01*
X217957800Y-161795400D02*
X217957800Y-180845400D01*
X198907800Y-180845400D02*
X198907800Y-161795400D01*
M02*
