M48
; DRILL file {KiCad 6.0.2} date Fri 11 Feb 2022 08:01:47 PM EST
; FORMAT={2:4/ absolute / inch / suppress leading zeros}
; #@! TF.CreationDate,2022-02-11T20:01:47-05:00
; #@! TF.GenerationSoftware,Kicad,Pcbnew,6.0.2
; #@! TF.FileFunction,NonPlated,1,2,NPTH
FMAT,2
INCH,TZ
; #@! TA.AperFunction,NonPlated,NPTH,ComponentDrill
T1C0.0689
; #@! TA.AperFunction,NonPlated,NPTH,ComponentDrill
T2C0.1200
; #@! TA.AperFunction,NonPlated,NPTH,ComponentDrill
T3C0.1260
; #@! TA.AperFunction,NonPlated,NPTH,ComponentDrill
T4C0.1570
%
G90
G05
T1
X21960Y-33705
X22860Y-59949
X23799Y-44949
X24760Y-67449
X25660Y-52449
X25960Y-33705
X26860Y-59949
X27799Y-44949
X28260Y-74949
X28760Y-67449
X29660Y-52449
X31260Y-59949
X32260Y-74949
X33160Y-44949
X34180Y-33660
X35060Y-67449
X35260Y-59949
X36860Y-52449
X37160Y-44949
X37660Y-74949
X38180Y-33660
X38760Y-59949
X39060Y-67449
X40660Y-44949
X40860Y-52449
X41660Y-74949
X42560Y-67449
X42760Y-59949
X43560Y-33694
X44360Y-52449
X44660Y-44949
X46260Y-59949
X46560Y-67449
X47560Y-33694
X48160Y-44949
X48360Y-52449
X50060Y-67449
X50260Y-59949
X51860Y-52449
X52160Y-44949
X52960Y-33705
X53760Y-59949
X54060Y-67449
X55660Y-44949
X55860Y-52449
X56960Y-33705
X57560Y-67449
X57760Y-59949
X59360Y-52449
X59660Y-44949
X61260Y-59949
X61560Y-67449
X62360Y-33694
X63160Y-44949
X63360Y-52449
X65060Y-67449
X65260Y-59949
X66360Y-33694
X66860Y-52480
X67160Y-44949
X68760Y-59949
X69060Y-67449
X70660Y-44949
X70860Y-52480
X71760Y-33694
X72560Y-67449
X72760Y-59949
X74360Y-52449
X74660Y-44949
X75760Y-33694
X76060Y-74949
X76260Y-59949
X76560Y-67449
X78160Y-44949
X78360Y-52449
X80060Y-67449
X80060Y-74949
X80260Y-59949
X81860Y-52449
X82160Y-44949
X83760Y-59949
X84060Y-67449
X84560Y-33605
X85660Y-44949
X85860Y-52449
X87560Y-67449
X87760Y-59949
X88560Y-33605
X89360Y-52449
X89660Y-44949
X91260Y-59949
X91560Y-67449
X93160Y-44949
X93360Y-52449
X93960Y-33605
X95062Y-67450
X95260Y-59949
X96860Y-52449
X97160Y-44949
X97960Y-33605
X98760Y-59949
X99062Y-67450
X100660Y-44949
X100860Y-52449
X102558Y-67458
X102760Y-59949
X103360Y-33605
X104360Y-52449
X104660Y-44949
X106360Y-59949
X106558Y-67458
X107360Y-33605
X108160Y-44949
X108360Y-52449
X110060Y-67449
X110360Y-59949
X111860Y-52449
X112160Y-44949
X112760Y-33605
X113860Y-59949
X114060Y-67449
X114560Y-74949
X115660Y-44949
X115860Y-52449
X116760Y-33605
X117860Y-59949
X118560Y-74949
X119360Y-52449
X119660Y-44949
X121360Y-59949
X122160Y-33605
X123160Y-44949
X123360Y-52449
X123960Y-74949
X124160Y-67449
X125360Y-59949
X126160Y-33605
X127160Y-44949
X127960Y-74949
X128160Y-67449
X129760Y-56249
X130660Y-44949
X133760Y-56249
X134660Y-44949
X141634Y-67429
X143495Y-44923
X145634Y-67429
X147495Y-44923
X149134Y-59929
X149134Y-67429
X153134Y-59929
X153134Y-67429
X154754Y-44923
X156634Y-67429
X158754Y-44923
X160634Y-67429
X167905Y-44910
X167905Y-52410
X167905Y-59910
X167905Y-67410
X171705Y-74910
X171905Y-44910
X171905Y-52410
X171905Y-59910
X171905Y-67410
X175405Y-44910
X175405Y-52410
X175405Y-59910
X175405Y-67410
X175705Y-74910
X179405Y-44910
X179405Y-52410
X179405Y-59910
X179405Y-67410
X182905Y-44910
X182905Y-52410
X182905Y-59910
X182905Y-67410
X182905Y-74910
X186905Y-44910
X186905Y-52410
X186905Y-59910
X186905Y-67410
X186905Y-74910
X190405Y-44910
X190405Y-52410
X190405Y-59910
X192405Y-69171
X192405Y-73171
X194405Y-44910
X194405Y-52410
X194405Y-59910
T2
X22973Y-49699
X32348Y-49699
X55560Y-77699
X100560Y-77699
X121473Y-64699
X129010Y-51549
X129010Y-60949
X130848Y-64699
X169018Y-77660
X178393Y-77660
X195155Y-66483
X195155Y-75858
T3
X22441Y-38189
X22441Y-75984
X194094Y-63780
T4
X22973Y-55699
X23960Y-33705
X24860Y-59949
X25799Y-44949
X26760Y-67449
X27660Y-52449
X30260Y-74949
X32348Y-55699
X33260Y-59949
X35160Y-44949
X36184Y-33621
X37060Y-67449
X38860Y-52449
X39660Y-74949
X40760Y-59949
X42660Y-44949
X44560Y-67449
X45560Y-33667
X46360Y-52449
X48260Y-59949
X50160Y-44949
X52060Y-67449
X53860Y-52449
X54960Y-33678
X55560Y-71699
X55760Y-59949
X57660Y-44949
X59560Y-67449
X61360Y-52449
X63260Y-59949
X64360Y-33667
X65160Y-44949
X67060Y-67449
X68860Y-52480
X70760Y-59949
X72660Y-44949
X73760Y-33667
X74560Y-67449
X76360Y-52449
X78060Y-74949
X78260Y-59949
X80160Y-44949
X82060Y-67449
X83860Y-52449
X85760Y-59949
X86558Y-33667
X87660Y-44949
X89560Y-67449
X91360Y-52449
X93260Y-59949
X95160Y-44949
X95960Y-33667
X97062Y-67450
X98860Y-52449
X100560Y-71699
X100760Y-59949
X102660Y-44949
X104558Y-67458
X105360Y-33667
X106360Y-52449
X108360Y-59949
X110160Y-44949
X112060Y-67449
X113860Y-52449
X114760Y-33667
X115860Y-59949
X116560Y-74949
X117660Y-44949
X121360Y-52449
X121473Y-70699
X123360Y-59949
X124160Y-33667
X125160Y-44949
X125960Y-74949
X126160Y-67449
X130848Y-70699
X131760Y-56249
X132660Y-44949
X135010Y-51549
X135010Y-60949
X143634Y-67429
X145495Y-44923
X151134Y-59929
X151134Y-67429
X156754Y-44923
X158634Y-67429
X169018Y-71660
X169905Y-44910
X169905Y-52410
X169905Y-59910
X169905Y-67410
X173705Y-74910
X177405Y-44910
X177405Y-52410
X177405Y-59910
X177405Y-67410
X178393Y-71660
X184905Y-44910
X184905Y-52410
X184905Y-59910
X184905Y-67410
X184905Y-74910
X189155Y-66483
X189155Y-75858
X192405Y-44910
X192405Y-52410
X192405Y-59910
X192405Y-71171
T0
M30
