G04 #@! TF.GenerationSoftware,KiCad,Pcbnew,6.0.1*
G04 #@! TF.CreationDate,2022-02-09T11:15:16-05:00*
G04 #@! TF.ProjectId,A1200KB,41313230-304b-4422-9e6b-696361645f70,v4a*
G04 #@! TF.SameCoordinates,Original*
G04 #@! TF.FileFunction,Copper,L1,Top*
G04 #@! TF.FilePolarity,Positive*
%FSLAX46Y46*%
G04 Gerber Fmt 4.6, Leading zero omitted, Abs format (unit mm)*
G04 Created by KiCad (PCBNEW 6.0.1) date 2022-02-09 11:15:16*
%MOMM*%
%LPD*%
G01*
G04 APERTURE LIST*
%ADD10C,0.300000*%
G04 #@! TA.AperFunction,NonConductor*
%ADD11C,0.300000*%
G04 #@! TD*
G04 #@! TA.AperFunction,ComponentPad*
%ADD12C,2.250000*%
G04 #@! TD*
G04 #@! TA.AperFunction,ComponentPad*
%ADD13R,1.905000X1.905000*%
G04 #@! TD*
G04 #@! TA.AperFunction,ComponentPad*
%ADD14C,1.905000*%
G04 #@! TD*
G04 #@! TA.AperFunction,ComponentPad*
%ADD15C,1.524000*%
G04 #@! TD*
G04 #@! TA.AperFunction,ViaPad*
%ADD16C,1.000000*%
G04 #@! TD*
G04 #@! TA.AperFunction,Conductor*
%ADD17C,0.800000*%
G04 #@! TD*
G04 APERTURE END LIST*
D10*
D11*
X86931428Y-144887142D02*
X85788571Y-144887142D01*
X86360000Y-145458571D02*
X86360000Y-144315714D01*
D12*
X63398800Y-80531600D03*
X57048800Y-83071600D03*
X94437200Y-80416400D03*
X88087200Y-82956400D03*
X118262800Y-80503600D03*
X111912800Y-83043600D03*
X142138800Y-80531600D03*
X135788800Y-83071600D03*
X166014800Y-80503600D03*
X159664800Y-83043600D03*
X189890800Y-80503600D03*
X183540800Y-83043600D03*
X222402800Y-80277600D03*
X216052800Y-82817600D03*
X246278800Y-80277600D03*
X239928800Y-82817600D03*
X270154800Y-80277600D03*
X263804800Y-82817600D03*
X294030800Y-80277600D03*
X287680800Y-82817600D03*
X317906800Y-80277600D03*
X311556800Y-82817600D03*
X372098000Y-109025600D03*
X365748000Y-111565600D03*
X434098800Y-108992000D03*
X427748800Y-111532000D03*
X453148800Y-108992000D03*
X446798800Y-111532000D03*
X472198800Y-108992000D03*
X465848800Y-111532000D03*
X491248800Y-108992000D03*
X484898800Y-111532000D03*
X434098800Y-128042000D03*
X427748800Y-130582000D03*
X453148800Y-128042000D03*
X446798800Y-130582000D03*
X472198800Y-128042000D03*
X465848800Y-130582000D03*
X491248800Y-128042000D03*
X484898800Y-130582000D03*
X386420000Y-147139600D03*
X380070000Y-149679600D03*
X434098800Y-147092000D03*
X427748800Y-149632000D03*
X453148800Y-147092000D03*
X446798800Y-149632000D03*
X472198800Y-147092000D03*
X465848800Y-149632000D03*
X491248800Y-147092000D03*
X484898800Y-149632000D03*
X367370000Y-166189600D03*
X361020000Y-168729600D03*
X386420000Y-166189600D03*
X380070000Y-168729600D03*
X405470000Y-166189600D03*
X399120000Y-168729600D03*
X434098800Y-166142000D03*
X427748800Y-168682000D03*
X453148800Y-166142000D03*
X446798800Y-168682000D03*
X472198800Y-166142000D03*
X465848800Y-168682000D03*
X493788800Y-183314000D03*
X491248800Y-176964000D03*
X438670800Y-195352000D03*
X445020800Y-192812000D03*
X472198800Y-185192000D03*
X465848800Y-187732000D03*
X400694000Y-109025600D03*
X394344000Y-111565600D03*
X72796800Y-128140400D03*
X66446800Y-130680400D03*
X195732800Y-195450400D03*
X202082800Y-192910400D03*
X148996800Y-109090400D03*
X142646800Y-111630400D03*
X91846800Y-109090400D03*
X85496800Y-111630400D03*
X244246800Y-109090400D03*
X237896800Y-111630400D03*
X206146800Y-109090400D03*
X199796800Y-111630400D03*
X110896800Y-109090400D03*
X104546800Y-111630400D03*
X282346800Y-109090400D03*
X275996800Y-111630400D03*
X168046800Y-109090400D03*
X161696800Y-111630400D03*
X225196800Y-109090400D03*
X218846800Y-111630400D03*
X187096800Y-109090400D03*
X180746800Y-111630400D03*
X129946800Y-109090400D03*
X123596800Y-111630400D03*
X337210800Y-137792400D03*
X330860800Y-140332400D03*
X239420800Y-147190400D03*
X233070800Y-149730400D03*
X263296800Y-109090400D03*
X256946800Y-111630400D03*
X106070800Y-147190400D03*
X99720800Y-149730400D03*
X125120800Y-147190400D03*
X118770800Y-149730400D03*
X315874800Y-147190400D03*
X309524800Y-149730400D03*
X201320800Y-147190400D03*
X194970800Y-149730400D03*
X220370800Y-147190400D03*
X214020800Y-149730400D03*
X310794800Y-128140400D03*
X304444800Y-130680400D03*
X296824800Y-147190400D03*
X290474800Y-149730400D03*
X277774800Y-147190400D03*
X271424800Y-149730400D03*
X144170800Y-147190400D03*
X137820800Y-149730400D03*
X258470800Y-147190400D03*
X252120800Y-149730400D03*
X182270800Y-147190400D03*
X175920800Y-149730400D03*
X163220800Y-147190400D03*
X156870800Y-149730400D03*
X101244800Y-128140400D03*
X94894800Y-130680400D03*
X215544800Y-128140400D03*
X209194800Y-130680400D03*
X196494800Y-128140400D03*
X190144800Y-130680400D03*
X253644800Y-128140400D03*
X247294800Y-130680400D03*
X339496800Y-109090400D03*
X333146800Y-111630400D03*
X139344800Y-128140400D03*
X132994800Y-130680400D03*
X320446800Y-109090400D03*
X314096800Y-111630400D03*
X291744800Y-128140400D03*
X285394800Y-130680400D03*
X234594800Y-128140400D03*
X228244800Y-130680400D03*
X120294800Y-128140400D03*
X113944800Y-130680400D03*
X177444800Y-128219200D03*
X171094800Y-130759200D03*
X301396800Y-109090400D03*
X295046800Y-111630400D03*
X158394800Y-128140400D03*
X152044800Y-130680400D03*
X272694800Y-128140400D03*
X266344800Y-130680400D03*
X322478800Y-185290400D03*
X316128800Y-187830400D03*
X103276800Y-185290400D03*
X96926800Y-187830400D03*
X298602800Y-185290400D03*
X292252800Y-187830400D03*
X70510800Y-166240400D03*
X64160800Y-168780400D03*
D13*
X83210800Y-147190400D03*
D14*
X85750800Y-147190400D03*
D12*
X81940800Y-157350400D03*
X88290800Y-154810400D03*
X68068800Y-109090400D03*
X61718800Y-111630400D03*
X79400800Y-185290400D03*
X73050800Y-187830400D03*
X322986800Y-166240400D03*
X316636800Y-168780400D03*
X65684800Y-147190400D03*
X59334800Y-149730400D03*
X115722800Y-166240400D03*
X109372800Y-168780400D03*
X134772800Y-166240400D03*
X128422800Y-168780400D03*
X230022800Y-166240400D03*
X223672800Y-168780400D03*
X268116800Y-166262400D03*
X261766800Y-168802400D03*
X191922800Y-166240400D03*
X185572800Y-168780400D03*
X96672800Y-166240400D03*
X90322800Y-168780400D03*
X287172800Y-166240400D03*
X280822800Y-168780400D03*
X249076800Y-166242400D03*
X242726800Y-168782400D03*
X153822800Y-166240400D03*
X147472800Y-168780400D03*
X172872800Y-166240400D03*
X166522800Y-168780400D03*
X210972800Y-166240400D03*
X204622800Y-168780400D03*
D15*
X184016800Y-98962400D03*
X185266800Y-101462400D03*
X186516800Y-98962400D03*
X187766800Y-101462400D03*
X189016800Y-98962400D03*
X190266800Y-101462400D03*
X191516800Y-98962400D03*
X192766800Y-101462400D03*
X194016800Y-98962400D03*
X195266800Y-101462400D03*
X196516800Y-98962400D03*
X197766800Y-101462400D03*
X199016800Y-98962400D03*
X200266800Y-101462400D03*
X201516800Y-98962400D03*
X202766800Y-101462400D03*
X204016800Y-98962400D03*
X205266800Y-101462400D03*
X206516800Y-98962400D03*
X207766800Y-101462400D03*
X209016800Y-98962400D03*
X210266800Y-101462400D03*
X211516800Y-98962400D03*
X212766800Y-101462400D03*
X214016800Y-98962400D03*
X215266800Y-101462400D03*
X216516800Y-98962400D03*
X217766800Y-101462400D03*
X219016800Y-98962400D03*
X220266800Y-101462400D03*
X221516800Y-98962400D03*
X222766800Y-101462400D03*
D16*
X352793401Y-109740599D03*
X484886000Y-103022400D03*
X61718800Y-96116800D03*
X461975200Y-104800400D03*
X96367600Y-94538800D03*
X201828400Y-96774000D03*
X205472202Y-104153798D03*
X123596800Y-105663600D03*
X223442601Y-145365399D03*
X460654400Y-105460800D03*
X142697200Y-93624400D03*
X203058400Y-95504000D03*
X159969801Y-104494999D03*
X185652701Y-187676499D03*
X175564800Y-107188000D03*
X254762000Y-160477200D03*
X255574800Y-174447200D03*
X421944800Y-175666400D03*
X421944800Y-142290800D03*
X209016800Y-83794800D03*
X202285799Y-157530601D03*
X336905600Y-183388000D03*
X336954072Y-163025900D03*
X246481600Y-92202000D03*
X271424800Y-138532000D03*
X275650226Y-106010174D03*
X309829200Y-198526400D03*
X294162113Y-92171887D03*
X427736000Y-159105600D03*
X373735600Y-195478400D03*
X320446800Y-104088800D03*
X482346000Y-174447200D03*
X394309600Y-107188000D03*
X277672800Y-162102800D03*
X277672800Y-187807600D03*
X253894799Y-102924401D03*
X209245200Y-160934400D03*
X148996400Y-101600000D03*
X380070000Y-119516800D03*
X315212899Y-119531299D03*
X424281600Y-135890000D03*
X205486000Y-135128000D03*
X427837600Y-144221200D03*
X484898800Y-145046800D03*
X211785200Y-116840000D03*
X211531200Y-183591200D03*
X330583600Y-128140400D03*
X363446000Y-128140400D03*
X215087801Y-181812599D03*
X372251901Y-164225901D03*
X372251901Y-147228899D03*
X58521600Y-103581200D03*
X347421200Y-173990000D03*
X158502962Y-101745438D03*
X198475600Y-126034800D03*
X56827610Y-101211190D03*
X216204800Y-185470800D03*
X213258400Y-83108800D03*
X72218401Y-92424399D03*
X73863200Y-100228400D03*
X237896400Y-107086400D03*
X494030000Y-118821200D03*
X241935000Y-118694200D03*
D17*
X352793401Y-109740599D02*
X352793401Y-109740599D01*
X246278800Y-80277600D02*
X228281600Y-80277600D01*
X374799002Y-109025600D02*
X372974001Y-110850601D01*
X225741600Y-82817600D02*
X216052800Y-82817600D01*
X118262800Y-80503600D02*
X94524400Y-80503600D01*
X367734003Y-110850601D02*
X366624001Y-109740599D01*
X434098800Y-108992000D02*
X400727600Y-108992000D01*
X372974001Y-110850601D02*
X367734003Y-110850601D01*
X213738800Y-80503600D02*
X216052800Y-82817600D01*
X189890800Y-80503600D02*
X213738800Y-80503600D01*
X400694000Y-109025600D02*
X374799002Y-109025600D01*
X189890800Y-80503600D02*
X166014800Y-80503600D01*
X472198800Y-108992000D02*
X453148800Y-108992000D01*
X453148800Y-108992000D02*
X434098800Y-108992000D01*
X142138800Y-80531600D02*
X118290800Y-80531600D01*
X166014800Y-80503600D02*
X142166800Y-80503600D01*
X228281600Y-80277600D02*
X225741600Y-82817600D01*
X142166800Y-80503600D02*
X142138800Y-80531600D01*
X270154800Y-80277600D02*
X246278800Y-80277600D01*
X317906800Y-80277600D02*
X294030800Y-80277600D01*
X118290800Y-80531600D02*
X118262800Y-80503600D01*
X94437200Y-80416400D02*
X63514000Y-80416400D01*
X94524400Y-80503600D02*
X94437200Y-80416400D01*
X63514000Y-80416400D02*
X63398800Y-80531600D01*
X400727600Y-108992000D02*
X400694000Y-109025600D01*
X294030800Y-80277600D02*
X270154800Y-80277600D01*
X366624001Y-109740599D02*
X352793401Y-109740599D01*
X484886000Y-103022400D02*
X484886000Y-103022400D01*
X180380287Y-92644721D02*
X176879611Y-96145397D01*
X211934800Y-88544400D02*
X319481200Y-88544400D01*
X319481200Y-88544400D02*
X326034400Y-95097600D01*
X326034400Y-101701600D02*
X327355200Y-103022400D01*
X326034400Y-95097600D02*
X326034400Y-101701600D01*
X201516800Y-98962400D02*
X211934800Y-88544400D01*
X181024658Y-92000349D02*
X180380287Y-92644721D01*
X176879611Y-96145397D02*
X61741003Y-96145397D01*
X327355200Y-103022400D02*
X484886000Y-103022400D01*
X194554749Y-92000349D02*
X181024658Y-92000349D01*
X201516800Y-98962400D02*
X194554749Y-92000349D01*
X461975200Y-104800400D02*
X461975200Y-104800400D01*
X180492400Y-90881200D02*
X176328213Y-95045387D01*
X204016800Y-98962400D02*
X213334790Y-89644410D01*
X326899561Y-104122410D02*
X461297210Y-104122410D01*
X201828400Y-96774000D02*
X196392800Y-91338400D01*
X176328213Y-95045387D02*
X96874187Y-95045387D01*
X319025562Y-89644410D02*
X324934390Y-95553238D01*
X324934390Y-95553238D02*
X324934390Y-102157239D01*
X324934390Y-102157239D02*
X326899561Y-104122410D01*
X461297210Y-104122410D02*
X461975200Y-104800400D01*
X96874187Y-95045387D02*
X96418400Y-94589600D01*
X213334790Y-89644410D02*
X319025562Y-89644410D01*
X195935600Y-90881200D02*
X180492400Y-90881200D01*
X196392800Y-91338400D02*
X195935600Y-90881200D01*
X223442601Y-145365399D02*
X223442601Y-145365399D01*
X465694899Y-149478099D02*
X460713703Y-149478099D01*
X160526002Y-105714800D02*
X123596400Y-105714800D01*
X465848800Y-149632000D02*
X465694899Y-149478099D01*
X441663703Y-154865901D02*
X436251402Y-149453600D01*
X455325901Y-154865901D02*
X441663703Y-154865901D01*
X336394574Y-145135600D02*
X335963873Y-145566301D01*
X430271402Y-149453600D02*
X425953402Y-145135600D01*
X316951703Y-145566301D02*
X316750801Y-145365399D01*
X425953402Y-145135600D02*
X336394574Y-145135600D01*
X204480541Y-105145459D02*
X189596141Y-105145459D01*
X205472202Y-104153798D02*
X204480541Y-105145459D01*
X189596141Y-105145459D02*
X189585600Y-105156000D01*
X316750801Y-145365399D02*
X223442601Y-145365399D01*
X436251402Y-149453600D02*
X430271402Y-149453600D01*
X335963873Y-145566301D02*
X316951703Y-145566301D01*
X460713703Y-149478099D02*
X455325901Y-154865901D01*
X161084802Y-105156000D02*
X160526002Y-105714800D01*
X189585600Y-105156000D02*
X161084802Y-105156000D01*
X460654400Y-105460800D02*
X460654400Y-105460800D01*
X142697200Y-93624400D02*
X142646400Y-93573600D01*
X180036761Y-89781190D02*
X179392390Y-90425562D01*
X143018177Y-93945377D02*
X142697200Y-93624400D01*
X179392390Y-90425562D02*
X175872575Y-93945377D01*
X203058400Y-95504000D02*
X197335590Y-89781190D01*
X214734780Y-90744420D02*
X318569924Y-90744420D01*
X326443922Y-105222420D02*
X460416020Y-105222420D01*
X175872575Y-93945377D02*
X143018177Y-93945377D01*
X323834380Y-96008876D02*
X323834380Y-102612878D01*
X323834380Y-102612878D02*
X326443922Y-105222420D01*
X318569924Y-90744420D02*
X323834380Y-96008876D01*
X197335590Y-89781190D02*
X180036761Y-89781190D01*
X206516800Y-98962400D02*
X214734780Y-90744420D01*
X460416020Y-105222420D02*
X460654400Y-105460800D01*
X185652701Y-187676499D02*
X185652701Y-187676499D01*
X432644999Y-186607001D02*
X464723801Y-186607001D01*
X185652701Y-187676499D02*
X207234499Y-187676499D01*
X372823198Y-194614800D02*
X311065990Y-194614800D01*
X207766800Y-101462400D02*
X206304799Y-102924401D01*
X196739400Y-104045449D02*
X160470151Y-104045449D01*
X375193208Y-192244790D02*
X427007210Y-192244790D01*
X311065990Y-194614800D02*
X308271990Y-197408800D01*
X372823198Y-194614800D02*
X375193208Y-192244790D01*
X197860447Y-102924401D02*
X196739400Y-104045449D01*
X269800370Y-197408800D02*
X266422960Y-194031389D01*
X308271990Y-197408800D02*
X269800370Y-197408800D01*
X464723801Y-186607001D02*
X465848800Y-187732000D01*
X427007210Y-192244790D02*
X432644999Y-186607001D01*
X213589389Y-194031389D02*
X207234499Y-187676499D01*
X206304799Y-102924401D02*
X197860447Y-102924401D01*
X266422960Y-194031389D02*
X213589389Y-194031389D01*
X160470151Y-104045449D02*
X159969200Y-104546400D01*
X175564800Y-107188000D02*
X175564800Y-107188000D01*
X421944800Y-142290800D02*
X421944800Y-142290800D01*
X255574800Y-174447200D02*
X255574800Y-174447200D01*
X208041699Y-82819699D02*
X209016800Y-83794800D01*
X178054000Y-107188000D02*
X175564800Y-107188000D01*
X179956400Y-109090400D02*
X178054000Y-107188000D01*
X254762000Y-160477200D02*
X251815600Y-157530800D01*
X446798800Y-130582000D02*
X441509802Y-130582000D01*
X441509802Y-130582000D02*
X431374391Y-140717411D01*
X431374391Y-140717411D02*
X423518189Y-140717411D01*
X183764701Y-82819699D02*
X208041699Y-82819699D01*
X256794000Y-175666400D02*
X255574800Y-174447200D01*
X423518189Y-140717411D02*
X421944800Y-142290800D01*
X187096800Y-109090400D02*
X179956400Y-109090400D01*
X421944800Y-175666400D02*
X256794000Y-175666400D01*
X251815600Y-157530800D02*
X202285600Y-157530800D01*
X183540800Y-83043600D02*
X183764701Y-82819699D01*
X336954072Y-163025900D02*
X336954072Y-163025900D01*
X336905600Y-183388000D02*
X336905600Y-183388000D01*
X267868400Y-177342800D02*
X248462800Y-177342800D01*
X434805900Y-163025900D02*
X336954072Y-163025900D01*
X440462000Y-168682000D02*
X434805900Y-163025900D01*
X273050000Y-182524400D02*
X267868400Y-177342800D01*
X273050000Y-182524400D02*
X300380400Y-182524400D01*
X300380400Y-182524400D02*
X301244000Y-183388000D01*
X301244000Y-183388000D02*
X336905600Y-183388000D01*
X243031801Y-171911801D02*
X243031801Y-169087401D01*
X446798800Y-168682000D02*
X440462000Y-168682000D01*
X243031801Y-169087401D02*
X242726800Y-168782400D01*
X248462800Y-177342800D02*
X243031801Y-171911801D01*
X246481600Y-92202000D02*
X246481600Y-92202000D01*
X335224797Y-138507399D02*
X271347001Y-138507399D01*
X428053801Y-133893801D02*
X422330201Y-139617401D01*
X221134770Y-91844430D02*
X246124030Y-91844430D01*
X246124030Y-91844430D02*
X246481600Y-92202000D01*
X336334799Y-139617401D02*
X335224797Y-138507399D01*
X427748800Y-130582000D02*
X428053801Y-130887001D01*
X422330201Y-139617401D02*
X336334799Y-139617401D01*
X428053801Y-130887001D02*
X428053801Y-133893801D01*
X214016800Y-98962400D02*
X221134770Y-91844430D01*
X290779801Y-153026401D02*
X290779801Y-150035401D01*
X428312001Y-160305601D02*
X298059001Y-160305601D01*
X428936001Y-158529599D02*
X428936001Y-159681601D01*
X426157810Y-149632000D02*
X424903799Y-150886011D01*
X219028812Y-105224412D02*
X274947212Y-105224412D01*
X298059001Y-160305601D02*
X290779801Y-153026401D01*
X274947212Y-105224412D02*
X275640800Y-105918000D01*
X428936001Y-159681601D02*
X428312001Y-160305601D01*
X290779801Y-150035401D02*
X290474800Y-149730400D01*
X424903799Y-154497397D02*
X428936001Y-158529599D01*
X424903799Y-150886011D02*
X424903799Y-154497397D01*
X215266800Y-101462400D02*
X219028812Y-105224412D01*
X427748800Y-149632000D02*
X426157810Y-149632000D01*
X427736000Y-159105600D02*
X427736000Y-159105600D01*
X310239799Y-149015401D02*
X360749801Y-149015401D01*
X247057601Y-93402001D02*
X248564400Y-91895202D01*
X265967321Y-195131399D02*
X269362322Y-198526400D01*
X216516800Y-98962400D02*
X222077199Y-93402001D01*
X277471598Y-91895202D02*
X277520400Y-91846400D01*
X269362322Y-198526400D02*
X309829200Y-198526400D01*
X293827200Y-91846400D02*
X294132000Y-92151200D01*
X360749801Y-149015401D02*
X370840000Y-159105600D01*
X204303799Y-195131399D02*
X202082800Y-192910400D01*
X248564400Y-91895202D02*
X277471598Y-91895202D01*
X222077199Y-93402001D02*
X247057601Y-93402001D01*
X309524800Y-149730400D02*
X310239799Y-149015401D01*
X370840000Y-159105600D02*
X427736000Y-159105600D01*
X204303799Y-195131399D02*
X265967321Y-195131399D01*
X277520400Y-91846400D02*
X293827200Y-91846400D01*
X390601200Y-195478400D02*
X373735600Y-195478400D01*
X330606800Y-109090400D02*
X333146800Y-111630400D01*
X320446800Y-109090400D02*
X330606800Y-109090400D01*
X392734800Y-193344800D02*
X390601200Y-195478400D01*
X333300701Y-111476499D02*
X365658899Y-111476499D01*
X220428802Y-104124402D02*
X320430802Y-104124402D01*
X217766800Y-101462400D02*
X220428802Y-104124402D01*
X438670800Y-195352000D02*
X436663600Y-193344800D01*
X365658899Y-111476499D02*
X365748000Y-111565600D01*
X333146800Y-111630400D02*
X333300701Y-111476499D01*
X436663600Y-193344800D02*
X392734800Y-193344800D01*
X394309600Y-107188000D02*
X394309600Y-107188000D01*
X482346000Y-174447200D02*
X482346000Y-174447200D01*
X322734370Y-103068517D02*
X325988283Y-106322430D01*
X325988283Y-106322430D02*
X393444030Y-106322430D01*
X322734370Y-96471170D02*
X322734370Y-103068517D01*
X393444030Y-106322430D02*
X394309600Y-107188000D01*
X396404800Y-166014400D02*
X386595200Y-166014400D01*
X417952899Y-168575699D02*
X423824400Y-174447200D01*
X423824400Y-174447200D02*
X482346000Y-174447200D01*
X399120000Y-168729600D02*
X396404800Y-166014400D01*
X361734999Y-168014601D02*
X361020000Y-168729600D01*
X399120000Y-168729600D02*
X399273901Y-168575699D01*
X386420000Y-166189600D02*
X370071002Y-166189600D01*
X368246001Y-168014601D02*
X361734999Y-168014601D01*
X223477189Y-94502011D02*
X247513240Y-94502011D01*
X386595200Y-166014400D02*
X386420000Y-166189600D01*
X247513240Y-94502011D02*
X320765211Y-94502011D01*
X399273901Y-168575699D02*
X417952899Y-168575699D01*
X370071002Y-166189600D02*
X368246001Y-168014601D01*
X219016800Y-98962400D02*
X223477189Y-94502011D01*
X320765211Y-94502011D02*
X322734370Y-96471170D01*
X253894799Y-102924401D02*
X253894799Y-102924401D01*
X73050800Y-187830400D02*
X73204701Y-187676499D01*
X306047200Y-185290400D02*
X303661101Y-187676499D01*
X303661101Y-187676499D02*
X292406701Y-187676499D01*
X221728801Y-102924401D02*
X253894799Y-102924401D01*
X64314701Y-168626499D02*
X87775699Y-168626499D01*
X220266800Y-101462400D02*
X221728801Y-102924401D01*
X73204701Y-187676499D02*
X96772899Y-187676499D01*
X96667799Y-159734399D02*
X251123599Y-159734399D01*
X96772899Y-187676499D02*
X96926800Y-187830400D01*
X64160800Y-168780400D02*
X64314701Y-168626499D01*
X277247201Y-161677201D02*
X277622000Y-162052000D01*
X251123599Y-159734399D02*
X253066401Y-161677201D01*
X253066401Y-161677201D02*
X277247201Y-161677201D01*
X292252800Y-187830400D02*
X277644800Y-187830400D01*
X322478800Y-185290400D02*
X306047200Y-185290400D01*
X292406701Y-187676499D02*
X292252800Y-187830400D01*
X87775699Y-168626499D02*
X96667799Y-159734399D01*
X209245200Y-160934400D02*
X212191600Y-163880800D01*
X290525200Y-163880800D02*
X295424800Y-168780400D01*
X212191600Y-163880800D02*
X290525200Y-163880800D01*
X295424800Y-168780400D02*
X316636800Y-168780400D01*
X148996400Y-101600000D02*
X148996400Y-101600000D01*
X216306800Y-109090400D02*
X218846800Y-111630400D01*
X219000701Y-111476499D02*
X235349699Y-111476499D01*
X110896800Y-109090400D02*
X129946800Y-109090400D01*
X186454789Y-96400389D02*
X182847211Y-96400389D01*
X181461799Y-110915401D02*
X180746800Y-111630400D01*
X263296800Y-109090400D02*
X282346800Y-109090400D01*
X148996800Y-109090400D02*
X168046800Y-109090400D01*
X182847211Y-96400389D02*
X178602172Y-100645428D01*
X178206800Y-109090400D02*
X180746800Y-111630400D01*
X68068800Y-109090400D02*
X91846800Y-109090400D01*
X187972801Y-110915401D02*
X181461799Y-110915401D01*
X235349699Y-111476499D02*
X237735798Y-109090400D01*
X315212899Y-119531299D02*
X380055501Y-119531299D01*
X150050963Y-100545437D02*
X148996400Y-101600000D01*
X178602172Y-100645428D02*
X178502181Y-100545437D01*
X237735798Y-109090400D02*
X244246800Y-109090400D01*
X301396800Y-109090400D02*
X311556800Y-109090400D01*
X168046800Y-109090400D02*
X178206800Y-109090400D01*
X91846800Y-109090400D02*
X110896800Y-109090400D01*
X206146800Y-109090400D02*
X216306800Y-109090400D01*
X189797802Y-109090400D02*
X187972801Y-110915401D01*
X178502181Y-100545437D02*
X150050963Y-100545437D01*
X311556800Y-109090400D02*
X314096800Y-111630400D01*
X206146800Y-109090400D02*
X189797802Y-109090400D01*
X189016800Y-98962400D02*
X186454789Y-96400389D01*
X218846800Y-111630400D02*
X219000701Y-111476499D01*
X282346800Y-109090400D02*
X301396800Y-109090400D01*
X380055501Y-119531299D02*
X380070000Y-119516800D01*
X129946800Y-109090400D02*
X148996800Y-109090400D01*
X244246800Y-109090400D02*
X263296800Y-109090400D01*
X427837600Y-144221200D02*
X427837600Y-144221200D01*
X205486000Y-135128000D02*
X205486000Y-135128000D01*
X338033703Y-135914301D02*
X206272301Y-135914301D01*
X428663200Y-145046800D02*
X427837600Y-144221200D01*
X427837600Y-144221200D02*
X427583600Y-143967200D01*
X484898800Y-145046800D02*
X428663200Y-145046800D01*
X205486000Y-135128000D02*
X204620899Y-135993101D01*
X97490527Y-135993101D02*
X95199801Y-133702375D01*
X204620899Y-135993101D02*
X97490527Y-135993101D01*
X338033703Y-135914301D02*
X424255101Y-135914301D01*
X95199801Y-130985401D02*
X94894800Y-130680400D01*
X95199801Y-133702375D02*
X95199801Y-130985401D01*
X206272301Y-135914301D02*
X205486000Y-135128000D01*
X202313727Y-116864301D02*
X200101801Y-114652375D01*
X200101801Y-111935401D02*
X199796800Y-111630400D01*
X436252602Y-116789200D02*
X399457374Y-116789200D01*
X446798800Y-111532000D02*
X441509802Y-111532000D01*
X399382273Y-116864301D02*
X202313727Y-116864301D01*
X399457374Y-116789200D02*
X399382273Y-116864301D01*
X200101801Y-114652375D02*
X200101801Y-111935401D01*
X441509802Y-111532000D02*
X436252602Y-116789200D01*
X299854810Y-196308790D02*
X308333200Y-187830400D01*
X266878599Y-192931379D02*
X270256010Y-196308790D01*
X218389200Y-183591200D02*
X217932000Y-183591200D01*
X270256010Y-196308790D02*
X299854810Y-196308790D01*
X308333200Y-187830400D02*
X316128800Y-187830400D01*
X217932000Y-183591200D02*
X220421200Y-183591200D01*
X229761379Y-192931379D02*
X266878599Y-192931379D01*
X220421200Y-183591200D02*
X229761379Y-192931379D01*
X217932000Y-183591200D02*
X211531200Y-183591200D01*
X363446000Y-128140400D02*
X363446000Y-128140400D01*
X330583600Y-128140400D02*
X363446000Y-128140400D01*
X158394800Y-128140400D02*
X139344800Y-128140400D01*
X101244800Y-128140400D02*
X100925799Y-128459401D01*
X179906000Y-130680400D02*
X177444800Y-128219200D01*
X100925799Y-128459401D02*
X75178801Y-128459401D01*
X190298701Y-130526499D02*
X190144800Y-130680400D01*
X291744800Y-128140400D02*
X272694800Y-128140400D01*
X215544800Y-128140400D02*
X199195802Y-128140400D01*
X73111703Y-130526499D02*
X66600701Y-130526499D01*
X75178801Y-128459401D02*
X73111703Y-130526499D01*
X310794800Y-128140400D02*
X291744800Y-128140400D01*
X253644800Y-128140400D02*
X234594800Y-128140400D01*
X177444800Y-128219200D02*
X158473600Y-128219200D01*
X120294800Y-128140400D02*
X101244800Y-128140400D01*
X272694800Y-128140400D02*
X253644800Y-128140400D01*
X158473600Y-128219200D02*
X158394800Y-128140400D01*
X196809703Y-130526499D02*
X190298701Y-130526499D01*
X139344800Y-128140400D02*
X120294800Y-128140400D01*
X310794800Y-128140400D02*
X330583600Y-128140400D01*
X66600701Y-130526499D02*
X66446800Y-130680400D01*
X234594800Y-128140400D02*
X215544800Y-128140400D01*
X199195802Y-128140400D02*
X196809703Y-130526499D01*
X190144800Y-130680400D02*
X179906000Y-130680400D01*
X225348199Y-181812599D02*
X215087801Y-181812599D01*
X228826000Y-185290400D02*
X225348199Y-181812599D01*
X298602800Y-185290400D02*
X228826000Y-185290400D01*
X89029600Y-157350400D02*
X81940800Y-157350400D01*
X163220800Y-147190400D02*
X182270800Y-147190400D01*
X277774800Y-147190400D02*
X296824800Y-147190400D01*
X403506301Y-164225901D02*
X405470000Y-166189600D01*
X192430800Y-147190400D02*
X194970800Y-149730400D01*
X106070800Y-147190400D02*
X125120800Y-147190400D01*
X212034797Y-149015401D02*
X213859798Y-147190400D01*
X106070800Y-147190400D02*
X99189600Y-147190400D01*
X296824800Y-147190400D02*
X315874800Y-147190400D01*
X239420800Y-147190400D02*
X258470800Y-147190400D01*
X182270800Y-147190400D02*
X192430800Y-147190400D01*
X194970800Y-149730400D02*
X195685799Y-149015401D01*
X125120800Y-147190400D02*
X144170800Y-147190400D01*
X144170800Y-147190400D02*
X163220800Y-147190400D01*
X258470800Y-147190400D02*
X277774800Y-147190400D01*
X213859798Y-147190400D02*
X220370800Y-147190400D01*
X220370800Y-147190400D02*
X239420800Y-147190400D01*
X99189600Y-147190400D02*
X89029600Y-157350400D01*
X195685799Y-149015401D02*
X212034797Y-149015401D01*
X372251901Y-164225901D02*
X403506301Y-164225901D01*
X315874800Y-147190400D02*
X372234400Y-147190400D01*
X181935935Y-94200369D02*
X177790887Y-98345417D01*
X59791600Y-102311200D02*
X58521600Y-103581200D01*
X196516800Y-98962400D02*
X191754769Y-94200369D01*
X177790887Y-98345417D02*
X67019840Y-98345417D01*
X67019840Y-98345417D02*
X63054057Y-102311200D01*
X191754769Y-94200369D02*
X181935935Y-94200369D01*
X63054057Y-102311200D02*
X59791600Y-102311200D01*
X158502962Y-101745438D02*
X158502962Y-101745438D01*
X287150800Y-166262400D02*
X287172800Y-166240400D01*
X96672800Y-166240400D02*
X115722800Y-166240400D01*
X186516800Y-98962400D02*
X186180562Y-98962400D01*
X153822800Y-166240400D02*
X172872800Y-166240400D01*
X172872800Y-166240400D02*
X191922800Y-166240400D01*
X184718561Y-97500399D02*
X183315039Y-97500399D01*
X204776701Y-168626499D02*
X221125699Y-168626499D01*
X183315039Y-97500399D02*
X179070000Y-101745438D01*
X134772800Y-166240400D02*
X153822800Y-166240400D01*
X380375001Y-169034601D02*
X380070000Y-168729600D01*
X249074800Y-166240400D02*
X249076800Y-166242400D01*
X204622800Y-168780400D02*
X204776701Y-168626499D01*
X221125699Y-168626499D02*
X223511798Y-166240400D01*
X287172800Y-166240400D02*
X291329152Y-166240400D01*
X191922800Y-166240400D02*
X202082800Y-166240400D01*
X268116800Y-166262400D02*
X287150800Y-166262400D01*
X299103053Y-174014301D02*
X378386301Y-174014301D01*
X202082800Y-166240400D02*
X204622800Y-168780400D01*
X378386301Y-174014301D02*
X380375001Y-172025601D01*
X291329152Y-166240400D02*
X299103053Y-174014301D01*
X223511798Y-166240400D02*
X230022800Y-166240400D01*
X179070000Y-101745438D02*
X158502962Y-101745438D01*
X115722800Y-166240400D02*
X134772800Y-166240400D01*
X268096800Y-166242400D02*
X268116800Y-166262400D01*
X186180562Y-98962400D02*
X184718561Y-97500399D01*
X230022800Y-166240400D02*
X249074800Y-166240400D01*
X380375001Y-172025601D02*
X380375001Y-169034601D01*
X249076800Y-166242400D02*
X268096800Y-166242400D01*
X196283761Y-102945439D02*
X67702759Y-102945439D01*
X58873799Y-111774399D02*
X58873799Y-123467127D01*
X70510800Y-149315398D02*
X70510800Y-166240400D01*
X197766800Y-101462400D02*
X196283761Y-102945439D01*
X63601799Y-142406397D02*
X70510800Y-149315398D01*
X58873799Y-123467127D02*
X63601799Y-128195127D01*
X63601799Y-128195127D02*
X63601799Y-142406397D01*
X67702759Y-102945439D02*
X58873799Y-111774399D01*
X493788800Y-183314000D02*
X490155774Y-183314000D01*
X453148800Y-147092000D02*
X434098800Y-147092000D01*
X473323799Y-184067001D02*
X472198800Y-185192000D01*
X472198800Y-166142000D02*
X453148800Y-166142000D01*
X491248800Y-128042000D02*
X472198800Y-128042000D01*
X472198800Y-147092000D02*
X453148800Y-147092000D01*
X198475600Y-126034800D02*
X432091600Y-126034800D01*
X432091600Y-126034800D02*
X434098800Y-128042000D01*
X489402773Y-184067001D02*
X473323799Y-184067001D01*
X490155774Y-183314000D02*
X489402773Y-184067001D01*
X472198800Y-128042000D02*
X453148800Y-128042000D01*
X491248800Y-147092000D02*
X472198800Y-147092000D01*
X56827610Y-101211190D02*
X56827610Y-101211190D01*
X62568010Y-101211190D02*
X56827610Y-101211190D01*
X181480297Y-93100359D02*
X177335249Y-97245407D01*
X193154759Y-93100359D02*
X181480297Y-93100359D01*
X177335249Y-97245407D02*
X66533793Y-97245407D01*
X199016800Y-98962400D02*
X193154759Y-93100359D01*
X66533793Y-97245407D02*
X62568010Y-101211190D01*
X186082398Y-185470800D02*
X177954398Y-177342800D01*
X177954398Y-177342800D02*
X111224400Y-177342800D01*
X216204800Y-185470800D02*
X186082398Y-185470800D01*
X111224400Y-177342800D02*
X103276800Y-185290400D01*
X174995968Y-92424399D02*
X141763601Y-92424399D01*
X175416936Y-92845367D02*
X174995968Y-92424399D01*
X179581121Y-88681182D02*
X175416936Y-92845367D01*
X141763601Y-92424399D02*
X72218401Y-92424399D01*
X207686020Y-88681180D02*
X180492399Y-88681180D01*
X180492399Y-88681180D02*
X179581121Y-88681182D01*
X213258400Y-83108800D02*
X207686020Y-88681180D01*
X181747201Y-95944751D02*
X178246525Y-99445427D01*
X182391572Y-95300379D02*
X181747201Y-95944751D01*
X178246525Y-99445427D02*
X74646173Y-99445427D01*
X74646173Y-99445427D02*
X73863200Y-100228400D01*
X190354779Y-95300379D02*
X182391572Y-95300379D01*
X194016800Y-98962400D02*
X190354779Y-95300379D01*
X494030000Y-118821200D02*
X494030000Y-118821200D01*
X237896400Y-107086400D02*
X237896400Y-107086400D01*
X242715689Y-117964311D02*
X241960400Y-118719600D01*
X212766800Y-101462400D02*
X212766800Y-103953200D01*
X215900000Y-107086400D02*
X237896400Y-107086400D01*
X212766800Y-103953200D02*
X215900000Y-107086400D01*
X464946601Y-112496999D02*
X459594803Y-112496999D01*
X459594803Y-112496999D02*
X454202592Y-117889210D01*
X399837912Y-117964311D02*
X242715689Y-117964311D01*
X465848800Y-111594800D02*
X464946601Y-112496999D01*
X466002701Y-111378099D02*
X478603897Y-111378099D01*
X486046998Y-118821200D02*
X494030000Y-118821200D01*
X478603897Y-111378099D02*
X486046998Y-118821200D01*
X465848800Y-111532000D02*
X465848800Y-111594800D01*
X399913013Y-117889210D02*
X399837912Y-117964311D01*
X454202592Y-117889210D02*
X399913013Y-117889210D01*
X465848800Y-111532000D02*
X466002701Y-111378099D01*
M02*
